<svg xmlns="http://www.w3.org/2000/svg" width="100mm" height="135.6mm" viewBox="0 0 283.46 384.38"><path d="M102.8,23H88.09s-9.08,0-22,5.27S36,38.8,32.15,44.79,19.8,63.5,17.8,88.2s-3.45,36.15,4.72,44.68c-4.72,2.55-6.36,6.18-6.36,10.35s1.27,10.72,2.91,13.26c-1.82,2.36-15.62,12-15.62,12l2,2.18s.9,8,0,13.08a56,56,0,0,1-3.27,10.53l9.62,7.27L8,204.44s3,6.18.95,15.85a30.93,30.93,0,0,1-3.67,9.22l25.79,22.16L4,270.19v4.9s1.84,9.23,1.09,12.36a36.27,36.27,0,0,1-3.27,8l131.5,87.18,145.12-87.55a49.69,49.69,0,0,0,.91-13.25,50.52,50.52,0,0,0-2.91-12.9,58.68,58.68,0,0,0-6.17-4.9c5.81-2.91,10.35-5.45,10.35-5.45s1.27-8.36.91-13.08-.55-11.81-.55-11.81l-23.61-23.24,22-12.9-2-24.7-26.7-22.52s5.63-19.44,2.54-37-23.43-30.88-23.43-30.88l4-13.62-12-15.8s11.45-.55,10.9-13.08-8.35-13.62-8.35-13.62l2-6.9L219.58,8.11l-5.45-.37s-23.06,12-25.79,13.44-33.42-1.81-37.23-3.45S136.58,1.2,132.22,1.39,109.52,8.11,102.8,23Z" fill="#fff"/><path d="M252.05,148.85c.71.85,1.36,1.59,2,2.37a3.09,3.09,0,0,0,1.5,1.15,3.69,3.69,0,0,1,1.55,1.14,10.49,10.49,0,0,0,4,3c1.09.47,1.63,1.51,2.59,2.11.73.46,1.19,1.33,1.87,1.9s1.38.86,2,1.34c1.06.8,2.09,1.65,3.13,2.48.07.05.1.18.17.19,1.22.29,1.65,1.44,2.46,2.18a17.63,17.63,0,0,0,3.54,2.6,5,5,0,0,1,2.69,4.6,5.76,5.76,0,0,1-.48,2.38,1.63,1.63,0,0,0,.19,1.73,2.06,2.06,0,0,1,.18,2.33,1.17,1.17,0,0,0-.09,1,2.1,2.1,0,0,1,0,2.35,2,2,0,0,1,.5,2.16c-.14.33.16.83.15,1.25,0,1.2-.14,2.39-.18,3.59a5.19,5.19,0,0,0,.13,1.42,4.56,4.56,0,0,1,.13,2.94c-.15.39,0,.69.35,1,1,1,.82,1.74-.34,2.51-1.34.87-2.66,1.78-3.94,2.75a43.13,43.13,0,0,1-4.79,2.71c-.3.17-.54.41-.82.6s-.5.49-.74.47c-1,0-1.46.78-2.16,1.21-1.69,1-3.19,2.4-5.2,2.83-.13,0-.29,0-.37.1-.6.58-1.19,1.17-1.88,1.86,1.72.57,2.45,2.12,3.55,3.3a26.65,26.65,0,0,0,2.4,1.93,19.94,19.94,0,0,1,2.5,2.36,26.05,26.05,0,0,0,3.72,3.63c.9.72,1.67,1.6,2.51,2.4.31.29.66.54,1,.83a4.24,4.24,0,0,1,.87.93,10,10,0,0,0,4.24,4.07,6.49,6.49,0,0,1,2,3.06c-.05.67-.31,1.33-.41,2a1.94,1.94,0,0,0,.15.95,3.91,3.91,0,0,1,.38,2.12,17,17,0,0,0,.08,2.56c0,.43-.11.86-.11,1.29a10.83,10.83,0,0,0,.1,1.39c0,.26.11.51.11.77,0,1.15,0,2.29,0,3.44a3,3,0,0,0,.13.9,1.89,1.89,0,0,1-.38,2,3.65,3.65,0,0,1,.24,3.21c-.41,1.49-1.11,2.92-1.07,4.54a1.33,1.33,0,0,1-.62.9c-1.82,1.07-3.66,2.11-5.53,3.1-.93.49-1.92.85-3,1.32a6.88,6.88,0,0,0,3,2.16c1.51.5,2,1.77,2.87,2.81s.74,2.4,1.34,3.51a.81.81,0,0,1,0,.63,3.84,3.84,0,0,0,.3,3.48,4.7,4.7,0,0,1,.17,3.15,2.66,2.66,0,0,0,.22,2.44,1.94,1.94,0,0,1,0,2.43,1.13,1.13,0,0,0-.12,1,2.58,2.58,0,0,1,.45,1.94,11.73,11.73,0,0,1-.34,3.67,5.81,5.81,0,0,0,0,2.39,1.74,1.74,0,0,1-.84,1.86c-1.66,1.08-3.2,2.36-4.86,3.44a8,8,0,0,1-2.78,1.53,2.91,2.91,0,0,0-1.33.75,2.72,2.72,0,0,1-2.22,1.07s-.11,0-.12.05c-.67,1.21-1.93,1.68-3,2.38a12.52,12.52,0,0,1-1.41.91c-.7.33-1.68.37-2.1.89a7.18,7.18,0,0,1-1.77,1.47c-1,.68-2.16,1.23-3.25,1.84a2.54,2.54,0,0,0-.5.36c-.16.14-.3.43-.46.44-1.17.08-1.73,1.25-2.79,1.52a1.49,1.49,0,0,0-.76.47,2.67,2.67,0,0,1-1.68.88,4.08,4.08,0,0,0-1.74.83,13.67,13.67,0,0,1-2.76,1.66c-.32.2-.61.44-.94.64-.73.44-1.47.87-2.21,1.3s-1.34.75-2,1.16c-.8.51-1.57,1.07-2.35,1.61-.6.41-1.16.9-1.79,1.25a25.45,25.45,0,0,1-2.63,1.27c-.48.2-1,.29-1.1.94s-.61.81-1.12,1a10.08,10.08,0,0,0-3.41,2,.93.93,0,0,1-.45.25c-2,.15-3,1.86-4.67,2.63s-3,2.33-4.7,3.17a37.92,37.92,0,0,0-4.19,2.45c-1.51,1-3.08,1.91-4.62,2.88-.95.59-1.87,1.23-2.82,1.82a1.32,1.32,0,0,1-.73.22.72.72,0,0,0-.9.5,1.18,1.18,0,0,1-.56.52c-1,.48-2,.87-2.9,1.41-.71.4-1.29,1-2,1.46-.91.63-1.85,1.23-2.8,1.81a3.09,3.09,0,0,1-1,.37,2.86,2.86,0,0,0-2.1,1.38,1.67,1.67,0,0,1-1.88.74c-.87.78-1.47,1.8-2.74,1.92-.17,0-.31.28-.49.39-.63.37-1.27.69-1.89,1.07a11.65,11.65,0,0,0-1.15.84c-.27.22-.48.63-.76.69-1.09.2-1.76,1.09-2.66,1.5a20.55,20.55,0,0,0-3.25,1.8c-.3.21-.57.47-.88.67a6.55,6.55,0,0,1-1,.56c-.79.32-1.68.48-2.17,1.31a.94.94,0,0,1-.39.35,31.45,31.45,0,0,0-4.79,2.81,4.81,4.81,0,0,1-1.5.31c-.35.6-.74,1.35-1.67,1.49-.46.94-1.4,1.05-2.27,1.28-.12,0-.29.08-.33.18-.5,1-1.59,1.1-2.45,1.55-.3.16-.69.3-.85.56a1.89,1.89,0,0,1-1.6.94c-.29,0-.56.35-.81.57s-.35.56-.6.66c-2.13.85-3.67,2.7-5.82,3.43a14.21,14.21,0,0,0-2.93,1.8c-1.19.75-2.47,1.37-3.7,2.06a8.87,8.87,0,0,0-.71.54,5.79,5.79,0,0,1-1.3.82,4.09,4.09,0,0,0-2,1.28c-.31.37-1,.45-1.61.71a4.1,4.1,0,0,1-2.91,1.9,2.66,2.66,0,0,0-1.2.7,3.34,3.34,0,0,1-4.57-.22,2.72,2.72,0,0,0-.91-.68,4.41,4.41,0,0,1-2.45-1.81,1.92,1.92,0,0,0-1-.77,8.29,8.29,0,0,1-3.85-2,15.51,15.51,0,0,0-2.85-1.77c-.07,0-.2,0-.23-.11-.73-1.43-2.4-1.41-3.5-2.27-.61-.48-1.17-1-1.76-1.53a4,4,0,0,0-2.3-1.34c-.34,0-.67-.37-1-.59-1.32-.94-2.62-1.89-4-2.83-.38-.27-.82-.48-1.21-.75a3,3,0,0,1-1-.79,3,3,0,0,0-1.86-1.31c-.29-.1-.67-.13-.83-.34-1.09-1.34-2.83-1.65-4.12-2.67-1-.76-2-1.39-3.08-2.09a2.4,2.4,0,0,1-.58-.52c-.41-.59-.82-1.11-1.68-1a.8.8,0,0,1-.7-.27c-.52-.84-1.46-1-2.19-1.51a2.61,2.61,0,0,1-.79-.68,1.6,1.6,0,0,0-1-.68,2.51,2.51,0,0,1-1.41-.84c-.75-1.42-2.26-1.65-3.42-2.41-.39-.26-.79-.48-1.19-.73-1.43-.89-2.86-1.77-4.27-2.69a2.25,2.25,0,0,1-.93-.84c-.25-.65-.8-.74-1.3-1a15.28,15.28,0,0,1-2.09-1c-1.05-.67-2-1.49-3-2.2-.83-.57-1.7-1.09-2.56-1.61-.58-.34-.7-1.17-1.54-1.26-1.42-.15-2.13-1.5-3.3-2.08-.46-.23-.9-.51-1.34-.75a3.59,3.59,0,0,1-.59-.29c-.69-.63-1.54-1.07-2.24-1.64s-1.62-.94-2.36-1.5c-.17-.12-.48-.15-.56-.3-.5-1.09-1.77-1.32-2.43-2.22a1.3,1.3,0,0,0-.41-.32c-.88-.48-1.77-.94-2.64-1.45-.21-.12-.33-.39-.53-.55s-.61-.58-.94-.6a6.09,6.09,0,0,1-3.64-2,11.71,11.71,0,0,0-3.24-2.34,25.87,25.87,0,0,1-3.49-2.16c-.35-.23-.63-.57-1-.79-.54-.33-1.11-.6-1.67-.9a5.39,5.39,0,0,1-2.1-1.66,2.59,2.59,0,0,0-.92-.85,20.86,20.86,0,0,1-3.52-1.82c-.83-.69-2.05-.92-2.52-2.07a1.28,1.28,0,0,0-.79-.62,3,3,0,0,1-1.88-1.35,2.59,2.59,0,0,1-2.12-.73,12,12,0,0,1-2.38-2c-.26-.38-.88-.51-1.36-.71a4.31,4.31,0,0,1-1.49-1.14,13.9,13.9,0,0,0-2.81-2c-.28-.18-.67-.2-.94-.39-1.39-.93-2.74-1.9-4.12-2.84s-2.9-2-4.36-3a3.87,3.87,0,0,0-.84-.33c-.2-.07-.46-.06-.61-.19-1.05-.88-2.1-1.75-3.1-2.68A6.15,6.15,0,0,1,0,295.13c1.67-1.34,2.47-3.2,3.51-4.88a5.11,5.11,0,0,0,.68-2.08,38.29,38.29,0,0,0,.22-4c0-1.14-.06-2.28-.14-3.41A18.69,18.69,0,0,0,4,278.18c-.34-1.65-.75-3.28-1.16-4.92a3.19,3.19,0,0,0-1.44-1.79c-.77-.52-.85-.82-.46-1.61a6.5,6.5,0,0,1,.85-1.45,1.91,1.91,0,0,1,1.08-.62A3.56,3.56,0,0,0,5,266.53a5.69,5.69,0,0,1,3.47-2.13c.2,0,.41-.28.57-.46a7.56,7.56,0,0,1,2.63-2.06,5.39,5.39,0,0,0,.88-.55c.93-.6,1.58-1.59,2.77-1.84.29-.06.5-.46.77-.66a4.54,4.54,0,0,1,1.47-1A7.28,7.28,0,0,0,21,256.15a5.19,5.19,0,0,1,1.42-.6,10.58,10.58,0,0,0,2.42-1.85c.22-.19.47-.47.73-.5,1.25-.15,1.83-1.22,2.73-1.77a1.26,1.26,0,0,0-.82-1.28A9.17,9.17,0,0,1,26,249.07c-.13-.11-.22-.37-.33-.37-1.46,0-2-1.5-3.13-1.94a.87.87,0,0,1-.35-.38,4.42,4.42,0,0,0-2.29-2,1.58,1.58,0,0,1-.67-.58A8.53,8.53,0,0,0,16,240.86a34.56,34.56,0,0,1-4.11-3.28,50,50,0,0,0-4.39-3.77,22.72,22.72,0,0,1-3.34-2.9,9.7,9.7,0,0,1-1.59-2,1.47,1.47,0,0,1-.09-1.31,2.2,2.2,0,0,1,1.38-.49c.3,0,.62.22,1,.36a37.88,37.88,0,0,0,2.65-4.26,11.94,11.94,0,0,0,1-3.88c.21-2.31.25-4.64.29-7,0-1.17-.1-2.35-.17-3.52a3.11,3.11,0,0,0-1.4-2.39,1.86,1.86,0,0,1-.27-3c.11-.13.28-.23.34-.38a1.87,1.87,0,0,1,2.1-1.18,4.27,4.27,0,0,0,.74-.11c-.16-.32-.23-.66-.44-.81Q7.85,199.71,6,198.51a13.27,13.27,0,0,0-1.6-.8,2,2,0,0,1-.47-.22C3,196.73,2.09,196,1.2,195.17a2.86,2.86,0,0,1-.9-3.06l1.78.42a16.17,16.17,0,0,0,1.66-4.7c.18-1,.18-2,.28-2.94.16-1.51.34-3,.5-4.53.18-1.7.41-3.4.52-5.11a9.15,9.15,0,0,0-.25-2.19c-.29-1.67-.31-1.66-1.78-2.46-.41-.23-.77-.56-1.17-.82-.75-.49-.82-.79-.23-1.74A4.14,4.14,0,0,0,2,167.4a1.65,1.65,0,0,1,1.55-1.18,3.48,3.48,0,0,0,2-1.11,6.74,6.74,0,0,1,3.56-2.24c.46-.06.88-.64,1.24-1.05a4.64,4.64,0,0,1,1.46-1A5.39,5.39,0,0,0,14.38,159a.83.83,0,0,1,.5-.39,4.4,4.4,0,0,0,2.53-1.73c-.74-1.73-1.57-3.4-2.18-5.15A19.58,19.58,0,0,1,16,136.11a11.14,11.14,0,0,1,3.22-3.54c.19-.16.4-.3.67-.49-.24-.34-.43-.62-.63-.89a30.81,30.81,0,0,1-3.65-6.47,18.29,18.29,0,0,1-.85-5.52c-.13-1.47-.27-2.93-.4-4.4a2.56,2.56,0,0,1,0-.39c0-1.55.1-3.1.14-4.65s.12-3.29.06-4.93a32,32,0,0,1,.44-6.62,4,4,0,0,0,.05-.78,50.55,50.55,0,0,1,.9-9.18c.31-2.14.58-4.29,1-6.43.26-1.45.7-2.87,1-4.31.45-2.08.93-4.15,1.25-6.25a64.24,64.24,0,0,1,4.27-14.18q1.14-2.84,2.3-5.67a4.47,4.47,0,0,1,.27-.59c1.1-1.78,2.13-3.6,3.31-5.31A18.22,18.22,0,0,1,34,41.07c1.7-1.2,3.49-2.29,5.29-3.34a42.3,42.3,0,0,1,7.08-3.57c2.89-1,5.69-2.32,8.53-3.51,2.52-1.06,5.07-2.09,7.55-3.23a41.51,41.51,0,0,1,6.89-2.36c2-.55,4.09-1.16,6.15-1.64,1.72-.4,3.53-.49,5.21-1,2.56-.79,5.29-.33,7.82-1.23a1.26,1.26,0,0,1,.39,0c2.6-.09,5.21-.18,7.81-.24,1.4,0,2.79,0,4.19,0a1.48,1.48,0,0,0,1.43-.73l.07-.11c1.78-3.2,4.55-5.58,7-8.26A35.73,35.73,0,0,1,113,8.61c.79-.67,1.64-1.28,2.4-2A28.16,28.16,0,0,1,123,1.48,20.59,20.59,0,0,1,130,0a17.47,17.47,0,0,1,4.12.42c1.7.29,3,1.47,4.24,2.48,1.47,1.15,2.79,2.5,4.25,3.66a18.1,18.1,0,0,1,3.29,4,12.53,12.53,0,0,0,6.67,5.14c.5.15,1,.41,1.45.57a17.35,17.35,0,0,0,2.11.58c2,.37,4,.72,6,1,1.41.22,2.83.38,4.25.55a33.33,33.33,0,0,1,3.75.41,43.56,43.56,0,0,0,6.73.73c1.47.11,2.93.42,4.4.41,3,0,5.92-.14,8.76-1.46a54.41,54.41,0,0,0,6.72-4A76.15,76.15,0,0,1,207.51,8.4c1.79-.79,3.5-1.76,5.24-2.66a3.74,3.74,0,0,1,2.49-.4,33.27,33.27,0,0,0,3.88.29,3.87,3.87,0,0,1,3.39,2.49,27,27,0,0,0,2.94,5.07,14.58,14.58,0,0,1,1.2,2.16c.4.77.76,1.56,1.19,2.31a2.61,2.61,0,0,1,.27,2.57,14.06,14.06,0,0,0-.64,2.92c-.16.77-.3,1.55-.49,2.48.71.42,1.61.93,2.49,1.48a4.59,4.59,0,0,1,1.19.93,10.28,10.28,0,0,1,2.12,3.86c.17.67.53,1.29.73,2a18.89,18.89,0,0,1,0,10.54A30.85,30.85,0,0,1,232,48.55c-1.17,2.66-3.44,4.05-6,5l-1.11.4a5.16,5.16,0,0,0,.44.88A122.16,122.16,0,0,0,233,64.75a26,26,0,0,0,2.09,2,2.15,2.15,0,0,1,.75,2.23,26.62,26.62,0,0,1-1.17,4.39c-1,2.48-1.8,5.07-2.69,7.61a1,1,0,0,0,.36,1.15,4.08,4.08,0,0,0,.44.28c3,1.48,5.24,3.88,7.74,5.94a21.5,21.5,0,0,1,3.19,3.77c1.21,1.6,2.27,3.29,3.48,4.89a55.09,55.09,0,0,1,4.34,7.57,45.74,45.74,0,0,1,3.05,8.31c.27.87.47,1.76.72,2.64a15,15,0,0,1,.54,4.87,21.88,21.88,0,0,0,.5,4,28.24,28.24,0,0,1-.27,9.22c-.5,2.59-1.29,5.13-1.84,7.72a18.43,18.43,0,0,1-.72,3.42c-.52,1.23-.9,2.51-1.34,3.78A2.09,2.09,0,0,0,252.05,148.85ZM100.22,24.22c-1.68,0-3.12-.06-4.55,0a59,59,0,0,0-9.84.89c-.76.17-1.57.06-2.33.21-1.74.37-3.46.82-5.19,1.23-.21.05-.43.05-.65.09-1.27.25-2.55.46-3.81.75-.76.18-1.48.49-2.23.71-2,.58-3.93,1.08-5.86,1.72-1.44.48-2.82,1.14-4.22,1.72-1.61.66-3.22,1.31-4.82,2-3.17,1.32-6.32,2.68-9.51,4a42.89,42.89,0,0,0-7.16,3.69c-1.14.72-2.25,1.48-3.37,2.23a15.22,15.22,0,0,0-4.31,3.74c-1.46,2.11-2.71,4.36-4,6.6a36.93,36.93,0,0,0-1.86,4.56,78.27,78.27,0,0,0-3,8.62c-.81,3-1.32,6-1.95,9,0,.2.06.43,0,.65,0,.5-.08,1-.16,1.51a9.31,9.31,0,0,0-.24,1.26A3.34,3.34,0,0,1,20.49,82a1.71,1.71,0,0,0-.25.86c-.33,2-.67,4-.95,6-.37,2.71-1.06,5.37-.93,8.15a36.9,36.9,0,0,1-.25,3.77c-.15,2.38-.33,4.76-.39,7.15,0,1.68.14,3.36.12,5a72.13,72.13,0,0,0,.39,8.82,6.12,6.12,0,0,0,.49,2c.78,1.56,1.64,3.07,2.54,4.55a18.29,18.29,0,0,0,1.52,1.95c1.57-.53,2.95-1.06,4.37-1.47a11,11,0,0,1,2.68-.43,1.62,1.62,0,0,1,.75,3.06,5.48,5.48,0,0,1-1.34.48c-.54.14-1.1.23-1.65.37A24.08,24.08,0,0,0,22,135a6.6,6.6,0,0,0-3.37,3.81,21.18,21.18,0,0,0-.89,2.84,28.17,28.17,0,0,0-.25,3.9,16,16,0,0,0,3,9.29A96.61,96.61,0,0,0,27,163.78c2.75,3.2,5.27,6.6,8.81,9a3.19,3.19,0,0,1,.38.36c.92.79,1.8,1.64,2.77,2.36a53,53,0,0,1,6.74,6,17.82,17.82,0,0,0,1.92,1.77c2,1.52,3.93,3,5.93,4.47,1.55,1.12,3.13,2.21,4.76,3.21,2.33,1.43,4.68,2.82,7.09,4.12,1.64.88,3.38,1.57,5.08,2.32.12,0,.3-.06.43-.09a14.34,14.34,0,0,1-.36-2.11A1.68,1.68,0,0,1,73,193.45a15,15,0,0,1,1.94,1c.58.34,1.14.73,1.76,1.12a4.21,4.21,0,0,0,.85-2.25,1.93,1.93,0,0,1,2.57-2.06c1,.21,2,.4,3.14.62a11.72,11.72,0,0,0,.18-2.78,2.15,2.15,0,0,1,1.2-2.36c.86-.55,1.75-1.07,2.64-1.62-.41-2.05-1.79-3.43-3-4.86A27.56,27.56,0,0,0,79,175.64c-1.57-1.08-3.11-2.2-4.73-3.21a2,2,0,0,1-1.09-2.37,7.15,7.15,0,0,1,.37-1c1.06-2.53,2.14-5,3.16-7.58a22.92,22.92,0,0,0,.75-2.48c.44-1.54.92-3.07,1.31-4.63.24-1,.37-2,.52-3,.34-2.27.9-4.52.62-6.86a20.15,20.15,0,0,1-.17-3.38,35.34,35.34,0,0,0-.6-7.27c-.7-4.16-2.26-8.09-3.65-12.06a1.94,1.94,0,0,1,1-2.59c1.12-.41,2,.13,2.33,1.38s.82,2.74,1.34,4.06a44.36,44.36,0,0,1,2.92,12.79c.13,1.72,0,3.45.19,5.16a42.6,42.6,0,0,1-1.21,13.07c-.31,1.34-.61,2.69-.93,4.08a3.93,3.93,0,0,0,.38.31l6.85,4.28q4,2.51,7.92,5a30.62,30.62,0,0,1,3.12,2.13,19.86,19.86,0,0,0,6.5,3.52,23.85,23.85,0,0,0,8,1.2,13.83,13.83,0,0,1,1.44,0,21.48,21.48,0,0,0,5.43-.26c.85-.15,1.69-.38,2.54-.53s1.85-.27,2.88-.42c-.53-1.06-1.05-2-1.44-2.92-1.4-3.37-2.73-6.77-4.14-10.13a53.39,53.39,0,0,0-2.28-4.84c-1.55-2.82-3.21-5.58-4.78-8.39a3.83,3.83,0,0,1-.4-1.61,1.75,1.75,0,0,1,1.2-1.8,1.54,1.54,0,0,1,1.77.8c.53.79,1,1.63,1.48,2.44,1,1.68,2.08,3.33,3,5a125.93,125.93,0,0,1,5.63,12.48c1.09,2.64,1.85,5.44,3.59,7.8a15.31,15.31,0,0,1,1.18,2.32,11.75,11.75,0,0,0,.64,1.28,24,24,0,0,1,3,7.61,37.59,37.59,0,0,0,1.3,4.35,33,33,0,0,0,1.88,3.58,1.47,1.47,0,0,0,2,.88,19.7,19.7,0,0,0,2.44-.87,5.75,5.75,0,0,0,3.73-3.88c.36-1.3,1.62-2.15,3.18-1,.34.26.64.56,1.08,1a32.17,32.17,0,0,0,2.4-2.62c1-1.36,1.47-1.52,3-.78a14.2,14.2,0,0,0,2.18.79,1.06,1.06,0,0,0,1.4-.63c.3-.71.67-1.4.94-2.12a1.76,1.76,0,0,1,1.95-1.37,10,10,0,0,1,1.75.45l2.74.76a24.19,24.19,0,0,0,.86-2.84c.3-1.72,1.16-2.46,2.85-2.33a2.14,2.14,0,0,0,1.61-.27,15.11,15.11,0,0,0-1.82-1,8.09,8.09,0,0,1-3-2.28c-1.24-1.39-2.47-2.79-3.67-4.23a60.94,60.94,0,0,0-6.57-6.68c-1.44-1.26-2.82-2.59-4.2-3.92a1.66,1.66,0,0,1,0-2.62,1.78,1.78,0,0,1,2.55.21c.57.59,1.16,1.16,1.77,1.7,3,2.65,6.14,5.14,8.56,8.37a2.54,2.54,0,0,0,2.28,1.22,6.22,6.22,0,0,1,1.77.37c2.19.58,4.36,1.2,6.55,1.75,1.64.42,3.3.77,4.95,1.12a15,15,0,0,0,4.38.54,16.25,16.25,0,0,1,2.09.05,50.21,50.21,0,0,0,5.34.16c3.64-.26,7.28-.22,10.93-.59a43,43,0,0,0,8.09-1.87c.08-.87.16-1.68.24-2.54-.56-.41-1.11-.84-1.69-1.21A6.38,6.38,0,0,1,207.8,162a2.53,2.53,0,0,1,1.53-2.86c1.63-.82,3.25-1.67,4.84-2.56A5.33,5.33,0,0,0,216.7,154c1-2.37,1.94-4.75,2.9-7.12a1.27,1.27,0,0,0,.11-.38c.26-2.42,1.38-4.67,1.43-7.13a2.25,2.25,0,0,1,.09-.64,2.11,2.11,0,0,1,2.22-1.46,1.76,1.76,0,0,1,1.31,2.21c-.22,1.72-.53,3.42-.85,5.12a54.24,54.24,0,0,1-3.48,10.22c-1.26,3.08-3.9,4.8-6.82,6.13-.69.32-1.34.74-2.19,1.2a6.26,6.26,0,0,0,1.05,1.58,11.66,11.66,0,0,0,2.43,1.49c1.38.62,1.9,1.54,1.25,2.9a8.63,8.63,0,0,0-.52,3.44c1.06.53,2.13,1.09,3.22,1.6a1.86,1.86,0,0,1,1.06,2.35c-.32,1.21-.59,2.43-.9,3.72,2,.17,3.78.66,5.67,0,1.46-.5,2.56.2,3,1.75.33,1.25.43,2.56.64,3.84,0,.27.11.53.2.9a36.42,36.42,0,0,0,3.21-2.46c1.31-1.23,3.22-1.21,3.77,1.23a5.38,5.38,0,0,0,1.36,2.51c.37-.22.71-.39,1-.61a1,1,0,0,0,.43-1.23c-.6-2.45-1.08-4.93-1.71-7.36a4.1,4.1,0,0,1,.23-3.15c1.45-2.72,2.15-5.79,3.86-8.39a7.58,7.58,0,0,0,.62-1.71c.16-.46.26-.93.45-1.37,2-4.46,4-8.9,5.88-13.37.91-2.12,1.76-4.26,2.52-6.43a32.64,32.64,0,0,0,.73-3.43c.49-2.2,1-4.4,1.51-6.6a27.66,27.66,0,0,0,.19-9.73c-.15-1.16-.16-2.34-.31-3.5-.17-1.41-.39-2.83-.66-4.23-.13-.72-.46-1.4-.63-2.11a32,32,0,0,0-2.35-6.89c-.5-1-1.06-2-1.5-3a23.69,23.69,0,0,0-3.25-5.34c-1-1.26-1.87-2.61-2.8-3.92a17.29,17.29,0,0,0-3.53-4.15c-1.48-1.13-2.87-2.4-4.31-3.59a8.22,8.22,0,0,0-2.76-1.47c-1.08,2.39-2.15,4.72-3.19,7.06-.76,1.71-1.47,3.44-2.26,5.14-.94,2-2,4-2.92,6s-1.94,4.27-3,6.36a72,72,0,0,1-7.9,11.94,22.49,22.49,0,0,1-5.38,5.1c-1.79,1.15-3.51,2.42-5.2,3.71a25.48,25.48,0,0,1-9.85,4.89,16.9,16.9,0,0,0-4.48,1.72,29.74,29.74,0,0,1-11.22,3.17,52.54,52.54,0,0,0-7.19,1.16,28.38,28.38,0,0,1-10.34.55c-2.85-.3-5.7-.61-8.53-1.05a35.67,35.67,0,0,1-7.6-1.76c-2-.78-4.13-1.36-6.21-2-1.32-.41-2.69-.7-4-1.14a26.67,26.67,0,0,1-5.7-2.54c-1.74-1.08-3.6-1.94-5.36-3-2.4-1.4-4.81-2.8-7.1-4.36s-4.19-3.25-6.34-4.8a29.31,29.31,0,0,1-5-4.59c-1.12-1.27-2.2-2.58-3.28-3.88s-2.12-2.43-3-3.76c-1.63-2.41-3.17-4.88-4.66-7.38-.82-1.38-1.47-2.87-2.18-4.31a1.67,1.67,0,0,1,.25-2c1-1.07,2.47-.8,3.15.7a69.7,69.7,0,0,0,5.41,9.37c1.24,1.88,2.64,3.66,4,5.44,1,1.33,2.18,2.59,3.31,3.86a17.5,17.5,0,0,0,1.91,1.94c1.6,1.34,3.24,2.62,4.88,3.92a55.91,55.91,0,0,0,7.41,5.09c2.89,1.61,5.81,3.17,8.64,4.87a25.89,25.89,0,0,0,6.89,2.76,74.91,74.91,0,0,1,8.33,2.56,28.63,28.63,0,0,0,5.82,1.37c2.65.43,5.33.74,8,1a28,28,0,0,0,7.14.28c1.62-.22,3.23-.6,4.85-.87,2.1-.34,4.21-.63,6.31-1,1.62-.26,3.26-.51,4.87-.87a32.81,32.81,0,0,0,6.35-2.69,18,18,0,0,1,3.55-1.25,19.06,19.06,0,0,0,6.55-2.79c2.88-1.94,5.76-3.92,8.48-6.07A23.87,23.87,0,0,0,209,118.9a64.43,64.43,0,0,0,5.88-8.76c1.21-2.31,2.3-4.69,3.43-7,1.59-3.29,3.19-6.57,4.73-9.88q1.52-3.25,2.89-6.56c.81-1.93,1.57-3.87,2.3-5.82s1.37-3.76,2-5.66c.58-1.73,1.09-3.48,1.65-5.22a1.87,1.87,0,0,0-.66-2.17,21.61,21.61,0,0,1-2.34-2.44,54.44,54.44,0,0,1-4-5c-1.17-1.81-3-3.17-3.72-5.28,0-.07-.12-.12-.22-.21-1.12-.09-2.3-.13-3.46-.31a11.82,11.82,0,0,1-5.61-2.31,50.34,50.34,0,0,1-3.8-3.92,4.71,4.71,0,0,1-1.29-2.65,27.38,27.38,0,0,1-.29-3.5c0-2.22-.23-4.46.61-6.59a53.32,53.32,0,0,1,2.18-5.31,16.49,16.49,0,0,1,4.29-5.53,7,7,0,0,1,4.24-1.79,12.28,12.28,0,0,1,2.71.28c.93.19,1.82.54,2.76.83a2.56,2.56,0,0,0,.36-.58c.29-1.18.57-2.36.83-3.55a1,1,0,0,0,0-.63,21.57,21.57,0,0,0-1.65-3.54,38.6,38.6,0,0,1-3.49-5.95A1.22,1.22,0,0,0,218,9,10.74,10.74,0,0,1,215.61,9a2.52,2.52,0,0,0-1.75.28c-1.34.71-2.69,1.42-4.05,2.09-.9.44-1.86.76-2.74,1.22A108.79,108.79,0,0,0,196.64,19c-3.76,2.53-7.78,4.42-12.44,4.47a23,23,0,0,1-5.85-.25,14.34,14.34,0,0,0-2.46-.23,51.26,51.26,0,0,1-7-.71c-1.4-.28-2.85-.28-4.28-.42-.86-.09-1.72-.19-2.57-.34-2.22-.39-4.43-.93-6.66-1.18a17.05,17.05,0,0,1-6.68-2.4,17.65,17.65,0,0,1-6.38-6.24,9.58,9.58,0,0,0-1.81-2.21C139,8.06,137.3,6.7,135.66,5.35a7.31,7.31,0,0,0-3.84-1.66,14.19,14.19,0,0,0-7,1A18.63,18.63,0,0,0,119,8.11c-1.67,1.46-3.38,2.87-5.07,4.31-.73.62-1.47,1.22-2.15,1.9-1.23,1.23-2.43,2.5-3.63,3.75a8.5,8.5,0,0,0-.7.78,36.41,36.41,0,0,0-4.38,7.67,66.77,66.77,0,0,0-2.74,7.88,53.8,53.8,0,0,0-1.27,10.2c0,.74,0,1.48-.12,2.21a1.71,1.71,0,0,1-1.34,1.43,1.82,1.82,0,0,1-1.58-1,2,2,0,0,1-.18-.75c0-1.34-.08-2.68,0-4,.16-2.24.35-4.5.68-6.72a32.74,32.74,0,0,1,2.61-8.58C99.51,26.34,99.78,25.42,100.22,24.22ZM74.72,198.5a7.49,7.49,0,0,0,.09,1.21,1.83,1.83,0,0,1-.68,2,1.8,1.8,0,0,1-2.08.11,19.23,19.23,0,0,0-2.6-1.22,29.51,29.51,0,0,1-7.58-3.72c-1.15-.78-2.43-1.37-3.61-2.1q-2.77-1.71-5.51-3.49c-1.12-.74-2.21-1.53-3.27-2.35-1.82-1.42-3.64-2.84-5.37-4.35-1.34-1.18-2.49-2.57-3.82-3.75-1.49-1.33-3.09-2.53-4.63-3.79s-3.2-2.43-4.61-3.83c-2-2-3.91-4.09-5.73-6.25s-3.31-4.25-5-6.38c-.33-.44-.67-.87-1-1.3a12,12,0,0,0-2.3,1.86,10.68,10.68,0,0,1-2.69,2c-.92.67-2.23.73-2.81,1.9a.55.55,0,0,1-.33.21c-1.26.3-1.9,1.82-3.38,1.73-.15,0-.32.27-.47.43l-1.14,1.3,1.83,1.8a4.54,4.54,0,0,1,1.23.52c.89.66,1.7,1.44,2.57,2.14a1.18,1.18,0,0,0,.79.33,1.71,1.71,0,0,1,1.76.87,1.62,1.62,0,0,0,.7.54c1.42.48,2.47,1.54,3.74,2.27s2,2.11,3.56,2.18c.18,0,.36.22.54.34a6.35,6.35,0,0,1,1,.71c.76.74,1.86,1,2.41,2.08a3,3,0,0,0,1.74,1.24A16.12,16.12,0,0,1,32.69,186c.81.56,1.57,1.19,2.36,1.77.4.3.82.58,1.23.87a4.46,4.46,0,0,0,.63.44,18.9,18.9,0,0,1,3.76,2.14,8.5,8.5,0,0,0,.94.67,17,17,0,0,1,3.77,2.7,4.83,4.83,0,0,0,1.46.77,7,7,0,0,1,1.19.46c1.28.93,2.71,1.68,3.92,2.64s2.6,1.3,3.48,2.58a4.88,4.88,0,0,0,1.91,1.49,16.94,16.94,0,0,1,3.79,1.93c1,.85,2.38,1.29,3.34,2.31a4.22,4.22,0,0,0,.84.59q2.11,1.35,4.26,2.67c.76.47,1.55.9,2.32,1.35.3.18.74.31.84.57.44,1.21,1.62,1.49,2.53,2.08.65.42,1.34.75,2,1.12.19.1.41.15.6.26a18.21,18.21,0,0,1,2.6,1.55,3.14,3.14,0,0,0,1.5.9,1.82,1.82,0,0,1,.65.41c.76.58,1.49,1.21,2.28,1.75,1,.72,1.87,1.79,3.21,2,.08,0,.15.09.21.15,1.23,1.17,3,1.54,4.25,2.67A23.5,23.5,0,0,0,96.07,227c.22.14.4.39.64.45.84.22,1.17.95,1.72,1.49a9.61,9.61,0,0,0,1.93,1.19c.33.19.65.39,1,.57l1.13.62a13.5,13.5,0,0,1,1.34.75,4.75,4.75,0,0,1,1,.9,2.88,2.88,0,0,0,1.52,1.12,11.4,11.4,0,0,1,2.43,1.19c1.34.84,2.64,1.76,4,2.65.53.36,1.25.62,1.57,1.12a4.32,4.32,0,0,0,2.59,1.6c.83.3,1.51.63,1.75,1.58a2.52,2.52,0,0,1,2.21,1,9.82,9.82,0,0,0,1.1.82c.32.21.68.37,1,.6a11.76,11.76,0,0,0,2.72,1.65,3.56,3.56,0,0,1,2.17,1.56c1.26.39,2.1,1.44,3.18,2,.68.38,1.38.53,1.73,1.33a6.23,6.23,0,0,0,1,1.12c.24-.38.35-.79.62-1a15.49,15.49,0,0,1,2.92-1.56,4.74,4.74,0,0,0,1.93-1,5.4,5.4,0,0,1,.74-.51c1.3-.81,2.58-1.64,3.9-2.43a18.23,18.23,0,0,1,1.73-.82c.19-.08.47-.06.6-.19a9.57,9.57,0,0,1,4.42-2.5,3.05,3.05,0,0,0,1.53-.88,5,5,0,0,1,2.43-1.42,4,4,0,0,0,.84-.3c1.21-.72,2.15-1.86,3.59-2.19.12,0,.22-.15.31-.24a6.41,6.41,0,0,1,3-1.67,3,3,0,0,0,1.73-1.06,1.77,1.77,0,0,1,1.92-.72c.89-.68,1.66-1.35,2.52-1.9,1.11-.7,2.51-.91,3.42-2,.1-.12.32-.13.48-.2.5-.23,1-.49,1.52-.7a6,6,0,0,0,2.51-1.42.34.34,0,0,1,.24-.09,2.62,2.62,0,0,0,1.43-.77c.93-.72,2-1.14,3-1.87a19.27,19.27,0,0,1,3.62-1.66,1.78,1.78,0,0,0,.76-.65,1.93,1.93,0,0,1,1.23-.88c1-.35,2.09-.54,2.76-1.51A1.21,1.21,0,0,1,190,220c1.36-.61,2.49-1.68,4-2a4.49,4.49,0,0,0,2-.83,14.58,14.58,0,0,1,2.87-2c.34-.17.69-.32,1-.52a14,14,0,0,0,2.36-1.53,2,2,0,0,1,1.88-.67,1.58,1.58,0,0,1,2-1.16,10,10,0,0,1,2.65-1.83,15.91,15.91,0,0,0,3.59-1.88c1.57-.87,3-2.08,4.66-2.72,1.15-.43,1.93-1.66,3.37-1.5.18,0,.5-.36.62-.61a1.72,1.72,0,0,1,1.44-1,2.5,2.5,0,0,0,2-1.11c.18-.3.72-.4,1.11-.59.57-.27,1.35-.4,1.68-.85a3.38,3.38,0,0,1,2-1.1,11,11,0,0,0,2-1.27s.09,0,.12,0a2.72,2.72,0,0,0,.78-.46,2.18,2.18,0,0,1,1.46-.76,1.69,1.69,0,0,0,.81-.36,18.19,18.19,0,0,1,5.33-2.86,1.25,1.25,0,0,0,.7-.52,1.85,1.85,0,0,1,1.72-1,2.22,2.22,0,0,0,1-.37c.47-.29.86-.7,1.33-1a12.72,12.72,0,0,0,3.2-2.07.88.88,0,0,1,.58-.27,3.16,3.16,0,0,0,1.79-.92,7.1,7.1,0,0,1,2.45-1.39,5.56,5.56,0,0,0,2.3-1c.25-.18.47-.38.73-.54a10.13,10.13,0,0,0,2.17-1.34c.83-.87,2.26-.66,2.87-1.78a5.27,5.27,0,0,0,3.05-1.59,5,5,0,0,1,.92-.48,14.09,14.09,0,0,0,3-1.65,7.37,7.37,0,0,1,2.55-1.41,6.53,6.53,0,0,0,2.2-1,6.26,6.26,0,0,1,2.69-1.86c-.07-.19-.07-.31-.13-.34a23.57,23.57,0,0,1-3.94-3.25c-.5-.45-.83-1.09-1.63-1.15-.17,0-.34-.26-.47-.42a12.21,12.21,0,0,0-2.8-2.16c-.23-.11-.59-.2-.66-.38-.33-.85-1.15-1.09-1.78-1.57-.24-.18-.39-.48-.63-.65a11,11,0,0,1-2.26-2.2c-.13-.17-.47-.17-.7-.29a9.91,9.91,0,0,1-1.18-.7c-1-.76-1.89-1.61-2.91-2.31a2.12,2.12,0,0,1-1.08-1.2,1,1,0,0,0-.6-.57,4.54,4.54,0,0,1-2.25-1.7c-.38-.46-.72-1-1.13-1.51-.23.38-.45.65-.59,1-.72,1.54-1.45,3.07-2.11,4.64-1.31,3.12-2.56,6.27-3.89,9.39q-1.6,3.78-3.34,7.49c-.65,1.37-1.27,2.69-.46,4.19,0,.07,0,.17,0,.26.4,1.6.69,3.23,1.23,4.78a6.55,6.55,0,0,1-.07,3.7,3.76,3.76,0,0,1-1.23,1.78,7.23,7.23,0,0,1-2.22,1.35c-2.59.92-3.84,1.11-5.34-2-.15-.3-.28-.6-.46-1-.26.17-.44.28-.6.4-.74.53-1.45,1.13-2.22,1.6-1.81,1.09-3.43.53-4.22-1.44a9.77,9.77,0,0,1-.87-3.66,4.83,4.83,0,0,0-.23-1.08c-.22,0-.35-.08-.48-.09-1.82-.09-3.65-.14-5.46-.3a3,3,0,0,1-1.5-.64,3.5,3.5,0,0,1-1.33-3.71,14.35,14.35,0,0,0,.19-2.07c0-.24-.05-.61-.2-.71-1.31-.77-2.6-1.55-4.25-1.07a29.52,29.52,0,0,1-4.68,1.13c-3.19.37-6.4.58-9.6.78q-3.19.21-6.39.2c-2.13,0-4.26-.15-6.39-.25a6,6,0,0,1-1-.12c-2.2-.49-4.41-1-6.61-1.47-1.35-.31-2.7-.66-4-1l-.94-.22c1,.8,2.11,1.44,3.13,2.16a3.16,3.16,0,0,1,1.22,1.3,11.57,11.57,0,0,1,.69,3.28c.08,1.75-1.13,2.61-2.82,2.15a5.61,5.61,0,0,0-2.85-.23c-.34,1-.7,2-1,3-.68,2.16-2.12,2.86-4.22,2.05-.83-.32-1.7-.56-2.54-.83a13.83,13.83,0,0,1-.67,1.3c-1,1.44-2.1,2.57-4,2.35-1.19-.13-2.39-.23-3.75-.36-1.63,1.48-3.15,3.75-6.21,2.7l-.43.53c-2.1,2.69-5,3.93-8.26,4.53a4.28,4.28,0,0,1-4.61-1.74,24.88,24.88,0,0,1-4-8.89,21.35,21.35,0,0,0-3.43-8.55c-1.76.32-3.54.68-5.33,1a33.57,33.57,0,0,1-3.87.5c-1.82.08-3.66,0-5.49,0a25.08,25.08,0,0,1-5.93-.74,22.49,22.49,0,0,1-8.84-4c-3.16-2.3-6.5-4.36-9.77-6.51-2-1.33-4.07-2.66-6.13-3.95-.79-.5-1.64-.9-2.52-1.37-1,2.23-1.91,4.34-2.82,6.38,2.42,1.94,4.75,3.69,7,5.58A30.65,30.65,0,0,1,89.23,181a8.08,8.08,0,0,1,1.43,3.71,3.39,3.39,0,0,1-1.14,3.18c-.76.63-1.58,1.18-2.48,1.84a9.06,9.06,0,0,1-1,4.35c-.75,1.32-1.26,1.66-2.69,1.42-.77-.13-1.53-.28-2.34-.43-.36.77-.67,1.49-1,2.18A3,3,0,0,1,76.12,199C75.7,198.9,75.31,198.72,74.72,198.5Zm113.8,104.83a8.09,8.09,0,0,0-1.32,1c-.53.66-1.41.37-2,.81-1.25,1-3.05.95-4.13,2.25a.46.46,0,0,1-.36.13,3,3,0,0,0-2.09.85,5.59,5.59,0,0,1-1.43.55,5.48,5.48,0,0,0-.72.22,21.93,21.93,0,0,1-4.7,2.21,5,5,0,0,0-1.2.69,5.35,5.35,0,0,1-.77.45c-.86.36-1.74.67-2.59,1-1.15.5-2.1,1.55-3.53,1.24a.3.3,0,0,0-.23.09c-.45.83-1.4,1-2,1.49a4,4,0,0,1-1.92.85,9,9,0,0,0-2,1.08,4.13,4.13,0,0,1-.63.12c-.7.2-1.45.28-1.87,1a.83.83,0,0,1-.65.35c-.91-.16-1.44.38-2,.9a2,2,0,0,1-1,.44c-.44.07-.83.1-1.08.57a1.3,1.3,0,0,1-.62.44,22.53,22.53,0,0,1-3.59,1.46,14,14,0,0,0-3,1.46c-.19.1-.36.22-.55.33-1.51.89-3.35,1.08-4.75,2.23-.31.25-.83.23-1.24.37s-1,.21-1.29.53a2.26,2.26,0,0,1-2,.8,4.61,4.61,0,0,1-3.25,1.75,2.59,2.59,0,0,0-1.27.53,2.84,2.84,0,0,1-3.92-.1c-1-.87-2.1-1.48-3-2.41a2.91,2.91,0,0,1-.62-.82,2.06,2.06,0,0,0-1.34-1.14,6.24,6.24,0,0,1-3.05-2.1,3.47,3.47,0,0,0-.68-.58,15.27,15.27,0,0,1-2.56-2.15,5.86,5.86,0,0,0-1.82-1.51,9,9,0,0,1-2.31-1.86c-.81-.93-1.39-2.06-2.78-2.29-.22,0-.36-.38-.59-.49-1.23-.63-1.65-2.27-3.17-2.56-.09,0-.14-.2-.23-.3a10.13,10.13,0,0,0-1.29-1.25,3.14,3.14,0,0,1-1.39-1.49,1.64,1.64,0,0,0-.81-.79,4.84,4.84,0,0,1-2.45-1.84c-.1-.16-.35-.23-.53-.36-.66-.48-1.32-.95-2-1.46A12.1,12.1,0,0,0,92.83,305a8,8,0,0,1-2.6-2.47c-.26-.37-.46-.69-1-.65s-1-.38-1.38-.82c-.9-1-1.91-1.82-2.88-2.72a.63.63,0,0,0-.23-.12,2.52,2.52,0,0,1-1.91-1.78c0-.2-.37-.32-.55-.5-1.08-1.06-2.57-1.51-3.67-2.61s-2.56-2-3.83-3.07a5.4,5.4,0,0,1-.64-.9c-.21-.26-.41-.62-.69-.7a9.14,9.14,0,0,1-3.38-2.34A10.57,10.57,0,0,0,68,284.41c-1-.47-1.33-1.53-2.31-1.9-.13-.05-.18-.28-.29-.42a2.64,2.64,0,0,0-.59-.61,6.71,6.71,0,0,1-2.51-1.94c-.89-1.21-2.69-1.51-3.45-3-1.29-.37-1.87-1.71-3-2.27a2.94,2.94,0,0,1-1.46-1.58,1.24,1.24,0,0,0-.31-.38c-.41-.36-.82-.73-1.24-1.07-.76-.61-1.55-1.16-2.29-1.8-1-.86-1.89-1.94-3.29-2.23,0,0,0-.07-.08-.09-.47-.39-1-.75-1.4-1.18a6.21,6.21,0,0,1-1.29-1.57,2.26,2.26,0,0,0-1-.95,36.32,36.32,0,0,1-3.18-2.09c-1-.8-1.88-1.76-2.82-2.63a2,2,0,0,0-.65-.37,4.68,4.68,0,0,1-2.16-1.94,4.49,4.49,0,0,0-1-1.13c-.7-.54-1.46-1-2.22-1.53-.79.34-1.64.66-2.44,1.05a6.32,6.32,0,0,0-1.85,1.14,10.5,10.5,0,0,1-3.71,2.62,4.4,4.4,0,0,0-.52.36c-1.21.8-2.44,1.57-3.64,2.39-1,.7-2.25,1-3.24,1.81-.72.63-1.36,1.64-2.57,1.6-.1,0-.2.15-.3.23-.71.54-1.4,1.11-2.14,1.6s-1.72.61-2.27,1.44c-.11.18-.47.19-.7.3a5.36,5.36,0,0,0-1,.52c-.55.41-1.06.88-1.47,1.22l1.8,1.74c.71.4,1.41.71,2,1.14.77.55,1.41,1.57,2.21,1.7a7.84,7.84,0,0,1,3.21,1.6c1.21.81,2.52,1.48,3.76,2.26s2,2.08,3.55,2.12c.15,0,.29.18.44.27a6.76,6.76,0,0,1,1.18.75c.75.75,1.88,1,2.44,2.05a2.49,2.49,0,0,0,1.54,1.09,15.08,15.08,0,0,1,4.8,2.42c.66.44,1.22,1.17,1.94,1.39,1.24.37,1.84,1.75,3.2,1.82.36.73,1.24.54,1.76,1a16.67,16.67,0,0,0,3.13,2c1.86.93,3.08,2.93,5.34,3.19a.37.37,0,0,1,.12.07c.67.45,1.34.91,2,1.35a34.36,34.36,0,0,0,4.47,2.78,1.83,1.83,0,0,1,.57.51A8.26,8.26,0,0,0,58,303.46c1.05.38,2.21.55,2.93,1.56.06.09.24.09.35.16a13.08,13.08,0,0,1,2.51,1.43,14.42,14.42,0,0,0,2.64,1.82c1.27.71,2.42,1.65,3.65,2.43a10.05,10.05,0,0,0,2,1,1.75,1.75,0,0,1,1.16.94,1.92,1.92,0,0,0,1.33,1.12,17.81,17.81,0,0,1,2.42,1.15c.42.21.83.43,1.23.68.91.55,1.81,1.11,2.71,1.67.35.22.69.44,1.06.63a8.72,8.72,0,0,1,.92.45A20.33,20.33,0,0,0,85,320.15c1.15.64,1.93,1.9,3.38,2,1.27,1.29,3.1,1.63,4.51,2.76a37.07,37.07,0,0,0,4.87,2.83,1.48,1.48,0,0,1,.57.51,2.28,2.28,0,0,0,1.8,1.34c.19,0,.35.24.54.35l1.42.82,1,.58a5.2,5.2,0,0,0,1,.56,2.15,2.15,0,0,1,1.3,1,3,3,0,0,0,1.15.94c.87.44,1.79.8,2.7,1.17s1.5,1.24,2.44,1.65a9.48,9.48,0,0,1,3.12,2.06,6.12,6.12,0,0,0,2.86,1.64,2,2,0,0,1,1.61,1.47,3.06,3.06,0,0,1,2.42,1.18,1.43,1.43,0,0,0,.7.51,5.51,5.51,0,0,1,2.18,1.36,2.67,2.67,0,0,0,.74.45c1.25.49,2.56.85,3.35,2.08a.86.86,0,0,0,.57.27,2.8,2.8,0,0,1,1.73,1.08c.18.19.39.51.58.5,1.24-.07,1.7.85,2.25,1.68a6.7,6.7,0,0,1,.35.71,7.22,7.22,0,0,1,1.64-1.39c1-.39,1.76-1.25,2.93-1.31.4,0,.79-.49,1.18-.77.21-.15.36-.43.59-.49,1.53-.45,2.55-1.7,3.9-2.46a4.33,4.33,0,0,1,2.26-.88,8.76,8.76,0,0,1,4-2.68,6.47,6.47,0,0,0,2.74-1.56,2.74,2.74,0,0,1,1-.6,12.08,12.08,0,0,0,3.92-2.36,2.41,2.41,0,0,1,.68-.34,3.3,3.3,0,0,0,.8-.39,8.53,8.53,0,0,1,3.13-1.77,3.24,3.24,0,0,0,1.59-1,1.82,1.82,0,0,1,2-.87l2.74-2c1-.7,2.25-.91,3.08-1.87a1.89,1.89,0,0,1,.69-.36l2.83-1.18c.15-.07.23-.27.37-.36.39-.24.79-.47,1.2-.68.23-.12.58-.13.7-.3.77-1.17,2.43-1.14,3.15-2.37.05-.09.23-.1.35-.15,1.18-.53,2.36-1,3.53-1.59a1.31,1.31,0,0,0,.59-.5,1.7,1.7,0,0,1,1.62-1.09c.19,0,.38-.19.58-.28a19.76,19.76,0,0,0,2.34-1.55,30,30,0,0,1,3.94-2.15c1.14-.5,2.53-.71,3.33-1.89.15-.23.5-.33.77-.48a15.71,15.71,0,0,1,2.53-1.4c1.28-.44,1.85-2,3.4-2,.08,0,.19-.16.25-.26a1.52,1.52,0,0,1,1.85-.88,26.7,26.7,0,0,1,2.65-1.87c.81-.43,1.84-.47,2.38-1.38a.56.56,0,0,1,.33-.2,6.52,6.52,0,0,0,2.62-1.6,9.18,9.18,0,0,1,1.53-1c1-.56,2-1.11,3.05-1.65.33-.18.71-.51,1-.46a1,1,0,0,0,1.14-.64,1.89,1.89,0,0,1,1.56-1c.42-.07,1-.12,1.2-.4a4.8,4.8,0,0,1,2.33-1.51c1.21-.49,1.89-1.94,3.39-1.92a.16.16,0,0,0,.11-.07c.45-.76,1.23-1,2-1.37a5.67,5.67,0,0,1,2.29-1.1c.14,0,.26-.21.4-.31a17,17,0,0,1,3.47-2.18c1-.42,2.31-.6,2.87-1.84a.73.73,0,0,1,.56-.28,2.58,2.58,0,0,0,2.31-1.17.88.88,0,0,1,.33-.2,13.7,13.7,0,0,0,3.65-2.32.93.93,0,0,1,.59-.25c.77,0,1.21-.55,1.77-.95a8.09,8.09,0,0,1,2.65-1.53,6.26,6.26,0,0,0,1.95-.86c1.57-1,2.85-2.46,4.76-2.92a.35.35,0,0,0,.2-.16,2.78,2.78,0,0,1,2.07-1.16,4.29,4.29,0,0,0,1-.62c.66-.4,1.32-.79,2-1.17.52-.31,1.08-.56,1.57-.92a11.65,11.65,0,0,1,4.83-2.6,1.73,1.73,0,0,0,.89-.5,6.11,6.11,0,0,1,3.17-2.16,11,11,0,0,1-1.67-.94c-.81-.68-1.56-1.45-2.35-2.16a2.16,2.16,0,0,0-.85-.58,1.26,1.26,0,0,0-1,.15c-1.22,1.17-2.86,1.55-4.25,2.39-1.12.67-2.67.41-3.49,1.69-.05.08-.25.06-.37.11-1,.45-2.06.89-3.07,1.36-1.5.7-3,1.48-4.48,2.13-1.28.55-2.44,1.44-3.94,1.47-.4,0-.79.34-1.18.53l-1.62.78a8.53,8.53,0,0,0-1.85.88,7,7,0,0,1-2.55,1.19,5.84,5.84,0,0,0-2.12.9,8.38,8.38,0,0,1-3,1.5,2.52,2.52,0,0,0-.7.34,6.65,6.65,0,0,1-1.9,1,7.25,7.25,0,0,1-1.94.53.83.83,0,0,0-.6.44c-.31.86-1,1.09-1.8,1.29a8.23,8.23,0,0,0-1.64.73c-.69.34-1.35,1-2,1a4.57,4.57,0,0,0-2.81,1.15,3.79,3.79,0,0,1-.71.3c-1.35.66-2.74,1.24-4,2a12.43,12.43,0,0,1-3.74,1.71,3,3,0,0,0-1.6.75,2.94,2.94,0,0,1-1.33.75c-2.46.6-4.33,2.51-6.83,3a.2.2,0,0,0-.1.08c-.82,1.22-2.61.65-3.45,1.86-.05.07-.26,0-.38.05-.53.18-1,.42-1.58.56-1.19.3-2,1.23-3.14,1.67-.74.31-1.49.63-2.19,1a7.17,7.17,0,0,1-2.41.9,2.41,2.41,0,0,0-1.35.67A2,2,0,0,1,188.52,303.33Zm16.87-60.72c-.17.66-.84.86-1.55,1.17a14.27,14.27,0,0,0-3,1.72,46.53,46.53,0,0,1-4.49,2.76,1.21,1.21,0,0,1-.49.18,2.82,2.82,0,0,0-2.14,1.31,1.42,1.42,0,0,1-1.44.71c-.44-.08-.59.16-.85.4a11.23,11.23,0,0,1-1.83,1.4c-1.25.74-2.55,1.37-3.82,2.07-.22.12-.36.37-.54.54s-.33.37-.51.39a5.19,5.19,0,0,0-2.66,1.48,3.56,3.56,0,0,1-1,.38,3.18,3.18,0,0,0-.71.28,19.3,19.3,0,0,1-4.66,2.69c-.34.12-.59.48-.9.71a5.23,5.23,0,0,1-.83.59c-.75.39-1.56.69-2.28,1.12-1.12.68-2,1.74-3.51,1.68a.28.28,0,0,0-.21.12c-.46.78-1.39,1.06-1.89,1.66s-1.35.69-2,1-1.24.85-1.87,1.27a3.13,3.13,0,0,1-.49.16c-.39.16-.91.24-1.15.54a2.59,2.59,0,0,1-2.17,1.21,5,5,0,0,1-2.74,1.78c-.88,1.23-2.36,1.55-3.53,2.33-.7.47-1.64.6-2.29,1.11a26.38,26.38,0,0,1-3.79,2.41,11.31,11.31,0,0,0-1.88,1,5.37,5.37,0,0,1-1.91,1.06,2.38,2.38,0,0,0-1.22.66,2.21,2.21,0,0,1-2,.95,4.05,4.05,0,0,1-3,2,2.56,2.56,0,0,0-1.21.65,2.88,2.88,0,0,1-3.93.31,38.88,38.88,0,0,1-3.31-2.21c-.26-.22-.43-.55-.69-.76a5.4,5.4,0,0,0-1.36-.89,7.73,7.73,0,0,1-3.24-1.85,4.67,4.67,0,0,0-.84-.59,24.58,24.58,0,0,1-2.9-2.13,3.5,3.5,0,0,0-1.35-.92,6.55,6.55,0,0,1-3-2,4.57,4.57,0,0,0-2.59-1.81,4.1,4.1,0,0,1-1.85-1.14,7.28,7.28,0,0,0-2.2-1.5,11.08,11.08,0,0,1-2.25-1.68c-.24-.18-.6-.29-.71-.53a3.1,3.1,0,0,0-2.34-1.68,1.23,1.23,0,0,1-.66-.38c-1.32-1.55-3.54-1.83-4.83-3.41a7.25,7.25,0,0,1-3.13-2.45c-.13-.16-.35-.39-.5-.37a2.08,2.08,0,0,1-2.17-1.11c-1.53-.41-2.3-2.06-3.89-2.4a1.45,1.45,0,0,1-.89-.73,4,4,0,0,0-2.27-1.82,8.13,8.13,0,0,1-1.72-.86,26.32,26.32,0,0,0-5-3.33,1.27,1.27,0,0,1-.61-.62,1.69,1.69,0,0,0-1.39-1,2.57,2.57,0,0,1-.95-.4c-1.3-.92-2.54-2-3.9-2.79a17.09,17.09,0,0,1-2.15-1.53,11.18,11.18,0,0,0-3.53-2.21,1.09,1.09,0,0,1-.49-.41c-.51-.81-1.42-1.08-2.14-1.6-1.07-.76-2.21-1.44-3.31-2.16a5,5,0,0,1-.45-.47,1.77,1.77,0,0,0-.5-.36,5.14,5.14,0,0,1-2.55-1.9,1.85,1.85,0,0,0-.56-.47c-.34-.25-.69-.5-1-.73s-.71-.48-1.07-.7a9.38,9.38,0,0,1-2.22-1.46,3,3,0,0,0-2.17-1.21c-.27,0-.52-.29-.77-.46a8.23,8.23,0,0,0-1.16-.83,3.73,3.73,0,0,1-1.74-1.68,1.77,1.77,0,0,0-.79-.62c-1.12-.61-2.31-1.1-3.39-1.78s-1.89-1.48-2.86-2.19c-.37-.27-.84-.41-1.23-.65-.65-.42-1.51-.73-1.87-1.33-1-1.65-2.79-1.93-4.16-2.9-.86-.61-1.76-1.15-2.63-1.73a.45.45,0,0,1-.16-.2c-.57-1.38-2.36-1.21-3.05-2.43,0,0-.17,0-.25,0-.63.07-1-.32-1.49-.67-.89-.68-2-1.12-2.57-2.14-.08-.14-.28-.2-.44-.28-1-.48-2.14-.76-2.57-2,0-.12-.3-.16-.45-.25l-4.18-2.51-1.39,1.65c.6.32,1.21.56,1.31,1.36,0,.21.38.41.62.54s.57.07.74.23c.8.76,1.55,1.59,2.36,2.37.29.28.68.65,1,.65a1.66,1.66,0,0,1,1.56,1,2.24,2.24,0,0,0,.65.61c1.2.91,2.41,1.79,3.6,2.71s1.78,2.25,3.35,2.48c.21,0,.38.33.57.51s.37.35.57.51c.91.75,2.07,1.24,2.48,2.51,0,.14.27.21.36.35.88,1.22,2.43,1.37,3.57,2.25a20.94,20.94,0,0,1,3.61,3,1.45,1.45,0,0,0,.63.44,1.7,1.7,0,0,1,1.14,1,1.56,1.56,0,0,0,.59.47,18.66,18.66,0,0,1,3.62,2.62,4.19,4.19,0,0,0,.79.67,16.42,16.42,0,0,1,3.53,3,6,6,0,0,0,1.37.91c.54.34,1.09.66,1.61,1,.25.17.42.44.65.62l3.31,2.6c.43.34.7.85,1.34.95.25,0,.49.34.67.58a7.49,7.49,0,0,0,3.09,2.77,19.45,19.45,0,0,1,3.51,2.33c1.43.92,2.43,2.36,3.93,3.28a36.77,36.77,0,0,1,3.37,2.8c.6.48,1.32.81,1.93,1.28a7.66,7.66,0,0,1,1,1.11,7.49,7.49,0,0,0,.89,1c1,.75,2.22,1.12,3.09,2.06a3.44,3.44,0,0,0,.92.46c.22.12.51.22.63.42.49.83,1.66.93,2,1.91,0,.13.39.15.58.25a3,3,0,0,1,.77.47c1.18,1.1,2.32,2.22,3.49,3.33a5.53,5.53,0,0,0,.7.58,9.73,9.73,0,0,1,1.61,1c1.11,1.09,2.6,1.61,3.7,2.78.76.82,1.94,1.29,2.83,2.08a6.58,6.58,0,0,0,1,.83c1.33.77,1.93,2.32,3.39,3a30.51,30.51,0,0,1,3,2.1,2.58,2.58,0,0,1,1.25,1.23,1.91,1.91,0,0,0,1.2,1.1,9.06,9.06,0,0,1,2.23,1.29c1.5,1.16,2.94,2.39,4.4,3.59.33.27.78.49,1,.84a4.65,4.65,0,0,0,2.54,1.92c.78.35,1.36.74,1.47,1.68a2.58,2.58,0,0,1,2.21,1.2,8.24,8.24,0,0,0,1,.92c.22.19.5.32.72.51a12,12,0,0,0,2.66,2c.77.37,1.7.75,2,1.75a6.9,6.9,0,0,1,2.83,2.33c1.09.06,1.53.82,1.89,1.7a2.38,2.38,0,0,0,.51.63,13.77,13.77,0,0,0,2.46-1.23,3.86,3.86,0,0,1,1.93-.64,5.78,5.78,0,0,0,1.54-.62c.3-.15.56-.39.87-.54.76-.38,1.53-.74,2.3-1.09,1.26-.59,2.34-1.63,3.87-1.58a.75.75,0,0,0,.45-.21,8,8,0,0,1,3.76-1.87,7,7,0,0,0,3-1.36,2.82,2.82,0,0,1,1-.47,13.89,13.89,0,0,0,1.84-.52c1.76-.86,3.47-1.81,5.22-2.7a5.21,5.21,0,0,1,1.31-.5,4.55,4.55,0,0,0,2.76-1.32.83.83,0,0,1,.68-.31c1,.27,1.63-.47,2.4-.81.46-.21.81-.66,1.28-.84,1.23-.49,2.56-.7,3.61-1.62a2.28,2.28,0,0,1,.86-.26,3.33,3.33,0,0,0,.86-.27c.93-.62,2.22-.44,3-1.38.1-.12.41-.05.61-.1s.55-.09.69-.25c.93-1,2.57-.79,3.42-1.94,0,0,.08,0,.13,0,1.26-.42,2.53-.82,3.78-1.27a1.94,1.94,0,0,0,.84-.57,2.17,2.17,0,0,1,1.41-.78,11.34,11.34,0,0,0,2.49-.93c1.42-.69,2.78-1.52,4.23-2.14a17.5,17.5,0,0,1,2.73-.64,1.53,1.53,0,0,0,.68-.38c.91-.94,2.19-1.17,3.3-1.73s2.3-.73,3.16-1.68a1.06,1.06,0,0,1,.7-.26,1.45,1.45,0,0,0,1.33-.56,1.21,1.21,0,0,1,1.41-.41,1.07,1.07,0,0,0,.75-.22c.76-.48,1.37-1.21,2.33-1.35,1.47-.2,2.67-1.09,4-1.65,1.07-.45,2-1.13,3.1-1.62s2-.74,3-1.2a3.27,3.27,0,0,1,1.57-.47,1.58,1.58,0,0,0,1-.58,2,2,0,0,1,1.54-.78,2.69,2.69,0,0,0,2.07-.92c.23-.28.76-.32,1.14-.49a7.69,7.69,0,0,0,2-.88,2.81,2.81,0,0,1,1.48-.69c.38-.06.9-.06,1.08-.3a3.09,3.09,0,0,1,1.65-.91c.91-.36,1.67-1.09,2.74-1,.14,0,.27-.21.43-.28a32.79,32.79,0,0,1,3.59-1.69c1.09-.34,2.39-.4,3.17-1.53.15-.23.7-.2,1.07-.27s1,0,1.21-.27c.42-.62,1.06-.69,1.63-1A10,10,0,0,0,250,245.8a.65.65,0,0,1,.47-.18c.87.1,1.43-.46,2.11-.84a7.8,7.8,0,0,1,2.61-1,6.7,6.7,0,0,0,2-.69c.27-.13.46-.45.73-.52,1.58-.44,2.73-1.86,4.46-1.93.13,0,.24-.25.39-.32a5.2,5.2,0,0,1,1.14-.5,4.47,4.47,0,0,0,2.12-.89,6.66,6.66,0,0,1,1.74-.83c.51-.22,1.07-.35,1.55-.61,1.71-.92,3.33-2,5.35-2.16a2,2,0,0,0,1.15-.57,4.74,4.74,0,0,1,2.75-1.55c-.07-.2-.07-.37-.15-.43a25.76,25.76,0,0,1-3.81-3.79c-.35-.38-.58-.84-1.15-1a1,1,0,0,1-.49-.41,6.84,6.84,0,0,0-2.88-2.63.71.71,0,0,1-.38-.32,4.88,4.88,0,0,0-1.72-1.83c-.35-.29-.46-1-.81-1.11-.8-.26-1-.86-1.33-1.48a1,1,0,0,0-.55-.53,4.2,4.2,0,0,1-2.12-1.61,11,11,0,0,0-1.92-1.88c-.62-.41-1.16-.71-1.2-1.54,0-.16-.22-.35-.39-.47l-2.42-1.69c-.12.05-.48.07-.66.26-.9,1-2.23,1.22-3.24,2a9.51,9.51,0,0,1-3.67,1.75,1.66,1.66,0,0,0-.68.39c-1.34,1.23-3.08,1.85-4.57,2.85s-3.51,1.6-4.91,3c-1.64.38-2.65,1.89-4.23,2.39a8.57,8.57,0,0,0-1.29.54c-.29.14-.72.28-.8.51a2.29,2.29,0,0,1-1.71,1.44,9.63,9.63,0,0,0-1.48.8,7.81,7.81,0,0,1-2.2,1.3,4.54,4.54,0,0,0-2.45,1.3,4,4,0,0,1-.78.45,29.26,29.26,0,0,0-3.92,2.45,9.53,9.53,0,0,1-3.35,1.93,2.87,2.87,0,0,0-1.54.88,5,5,0,0,1-1.37,1,36.69,36.69,0,0,0-3.47,2c-1.29,1-2.82,1.48-4.05,2.52A4.3,4.3,0,0,1,205.39,242.61ZM156.51,367.93c.54-1.12.55-1.11,1.78-1.48a2.36,2.36,0,0,0,.58-.27l4.38-2.68a20.49,20.49,0,0,0,3.49-2.17c1.12-1.08,2.54-1.54,3.77-2.38.63-.43,1.25-.9,1.91-1.31a10.2,10.2,0,0,1,2.32-1.34,6.65,6.65,0,0,0,3.62-2.26,2.68,2.68,0,0,1,1.62-1,4.7,4.7,0,0,0,2.82-1.33c.34-.3.67-.63,1-.93a8.33,8.33,0,0,1,.84-.58c.33-.19.7-.31,1-.52a21.53,21.53,0,0,1,2.88-2c2.17-1,4-2.47,6.07-3.56a1.32,1.32,0,0,1,.72-.24c.66.11.89-.36,1.27-.7a18,18,0,0,1,2.42-1.85,18.48,18.48,0,0,0,2.46-1.3c1.66-1.46,3.92-1.95,5.51-3.5a1.4,1.4,0,0,1,1-.25,1.33,1.33,0,0,0,1.16-.41c1.05-1,2.49-1.56,3.4-2.75a1.33,1.33,0,0,1,.55-.33c1.27-.55,2.54-1.07,3.79-1.65.27-.13.45-.46.68-.69s.49-.67.73-.66a2.5,2.5,0,0,0,2-1.26,2.48,2.48,0,0,1,.88-.52c.23-.11.53-.11.71-.26,1-.86,2.52-1,3.2-2.31a.14.14,0,0,1,.1-.08,7.55,7.55,0,0,0,2.6-1.33c1.08-.68,2.22-1.24,3.24-2a16.25,16.25,0,0,1,3.68-2.34c1-.42,1.86-1.08,2.81-1.56a10.56,10.56,0,0,0,2.72-1.9,3.05,3.05,0,0,1,.7-.35c1.15-.61,2.58-.78,3.28-2.1.05-.1.2-.16.31-.22l4.32-2.31a4.09,4.09,0,0,1,.47-.23,9.8,9.8,0,0,0,4.06-2.74,1.41,1.41,0,0,1,.39-.34,13,13,0,0,1,3-1.36c1.44-.27,2.15-1.37,3.09-2.19.52-.45.95-.87,1.67-.8a2.1,2.1,0,0,0,1.93-.89c.56-.9,1.49-.79,2.19-1.22s1-1.38,1.9-1.71c1.24-.45,2.11-1.59,3.45-1.91.21-.05.32-.41.53-.55s.7-.51,1-.48a2.88,2.88,0,0,0,2.06-.91c.72-.55,1.46-1.06,2.19-1.6l.67-.52c.17-1.27.34-2.37.47-3.48a2.34,2.34,0,0,0-.12-.62,4.54,4.54,0,0,1-.17-1c0-.94.36-1.87-.16-2.78-.1-.17.08-.49.12-.75a10.85,10.85,0,0,0,.23-1.78c0-.94-.2-1.87-.25-2.8a15.58,15.58,0,0,0,0-2.05c-.44-2.18-.37-4.47-1.37-6.54a2.51,2.51,0,0,0-2.09,1,6.69,6.69,0,0,1-3.94,2.34c-.17,0-.41.07-.47.18-.69,1.17-2.17,1.15-3,2.07a2,2,0,0,1-1.06.71c-1.4.18-2.2,1.51-3.54,1.76-1.12,1.62-3.5,1.44-4.54,3.18-.12.2-.45.26-.68.38a9.7,9.7,0,0,1-2.83,1.47c-1.26.17-1.86,1.08-2.76,1.65s-2.18,1.23-3.18,2c-1.86,1.36-4,2.14-6,3.4-1.4.92-3.22,1.19-4.57,2.34-.34.3-.7.58-1.06.86s-.61.58-1,.61c-1.18.13-2,1.07-3,1.43a.9.9,0,0,0-.48.42c-.42.82-1.27.75-2,1.06a9.71,9.71,0,0,0-1.81,1.39c-.09.07-.28,0-.37.09-.64.48-1.47.62-2,1.31a2.22,2.22,0,0,1-1.37.66,1.88,1.88,0,0,0-1.37.78,2.69,2.69,0,0,1-1.32,1,7.59,7.59,0,0,0-4,2.19c-.14.14-.39.17-.58.27a7.07,7.07,0,0,0-2.22,1.28,10.3,10.3,0,0,1-2.63,1.79c-1.26.87-2.65,1.54-4,2.3-1.15.66-2.29,1.33-3.46,2a14.22,14.22,0,0,0-2.07,1c-1.06.83-2,1.75-3.46,1.9a.75.75,0,0,0-.44.25c-.81,1.19-2.44,1.26-3.27,2.42-.06.09-.23.1-.35.14-.7.22-1.41.39-2.09.66a2.87,2.87,0,0,0-1.78,1.39,1.06,1.06,0,0,1-.65.58c-1.21.2-2,1.08-3.06,1.62a27.16,27.16,0,0,1-2.84,1.65,10.91,10.91,0,0,0-2.4,1.24,3.08,3.08,0,0,1-1,.52,3.19,3.19,0,0,0-1.59,1.06,5.29,5.29,0,0,1-1.77,1.24,7.1,7.1,0,0,1-2.14.85,1.23,1.23,0,0,0-.61.44,4.15,4.15,0,0,1-3,1.64,1.73,1.73,0,0,0-.87.48,13.22,13.22,0,0,1-3.54,2.46,2.68,2.68,0,0,0-.68.38,39.36,39.36,0,0,1-5,2.7,10.83,10.83,0,0,0-2.27,1.42c-.46.41-.79.88-1.48.93-.23,0-.45.23-.66.36-.47.3-.92.65-1.41.91s-1.07.25-1.42.57a37.47,37.47,0,0,1-3.15,2.23c-.6.44-1.24.29-1.76.58s-.9,1.09-1.44,1.22a5.19,5.19,0,0,0-3.21,1.71c-.05.07-.15.09-.23.13a17.34,17.34,0,0,0-3,1.77,7,7,0,0,1-3.44,1.59,7.28,7.28,0,0,1-.66.95,20.43,20.43,0,0,0-2.06,2.64c-.06.16-.13.32-.15.37.17.47.47.86.4,1.18a7.66,7.66,0,0,0,.17,3.53c.4,1.51-.21,3-.24,4.48a15.66,15.66,0,0,1-.33,2.05,3.29,3.29,0,0,1,.41,1.1c.08,1.19-.29,2.35-.14,3.58.12.9-.4,1.87-.29,2.76.15,1.22-.44,2.13-.77,3.18-.28.85-.9,1.71-.5,2.83a5,5,0,0,0,3.34-1.76,2.07,2.07,0,0,1,1.62-.94,1.41,1.41,0,0,0,.89-.4,3,3,0,0,1,2.52-1.16,1.75,1.75,0,0,1,1.74-1.53,2.17,2.17,0,0,0,1.7-1,1.8,1.8,0,0,1,1.24-.77,1.84,1.84,0,0,0,1.68-1,2.11,2.11,0,0,1,1.41-1.05c1.17-.25,1.91-1.49,3.23-1.41a.29.29,0,0,0,.2-.16A3.3,3.3,0,0,1,156.51,367.93ZM275.9,175.08a2.78,2.78,0,0,0-.54.13,1.39,1.39,0,0,0-.41.31,7.5,7.5,0,0,1-4.34,2.65c-.23,0-.43.27-.63.42a9.75,9.75,0,0,1-.8.64c-.84.51-1.72,1-2.56,1.48s-1.92.61-2.7,1.38c-.4.4-1.28.37-1.59.79-1.14,1.51-3.42,1.27-4.4,3-.11.18-.46.22-.69.34-.62.29-1.23.6-1.85.88s-1.31.6-2,.9a6.67,6.67,0,0,0-1,.5c-.41.29-.75.7-1.18,1s-1.11.48-1.59.83a27,27,0,0,1-6.28,3.44c-.19.07-.33.26-.51.37a3.85,3.85,0,0,1-1.2.69c-1.77.31-3,1.64-4.63,2.23a2.89,2.89,0,0,1-2.42,1.48c-.15,0-.27.23-.43.27-1.57.39-2.36,2.16-4.1,2.29-.26,0-.48.47-.75.67a8,8,0,0,1-1.17.74,7.84,7.84,0,0,0-1.94,1,3.58,3.58,0,0,1-2.05,1,1.25,1.25,0,0,0-.82.5,4.37,4.37,0,0,1-2.53,1.46,3.4,3.4,0,0,0-1.76.77,16.94,16.94,0,0,1-3.4,2.12c-.61.37-1.11.91-1.72,1.27-.77.45-1.6.79-2.4,1.19-.53.26-1,.54-1.56.85-1.43.85-2.82,1.76-4.26,2.58s-3,1.21-4.22,2.24a15.23,15.23,0,0,1-2.55,1.16,30.68,30.68,0,0,0-2.91,1.86,11.46,11.46,0,0,1-3,1.35,4.42,4.42,0,0,0-1.8,1.18,2.19,2.19,0,0,1-1.43,1,2.42,2.42,0,0,0-.82.37c-1.44.85-2.86,1.72-4.31,2.55a14.85,14.85,0,0,0-1.41.58c-1.5,1.07-3.48,1.38-4.62,3a.75.75,0,0,1-.34.19c-.95.36-1.92.71-2.87,1.09a1.91,1.91,0,0,0-.63.43,4.51,4.51,0,0,1-3,1.63,1.83,1.83,0,0,0-.78.38c-1.07.68-2,1.56-3.12,2.19-1.84,1-3.72,2-5.58,3-1.24.66-2.65,1-3.54,2.21-.15.2-.55.22-.82.34s-.54.26-.79.4c-.67.39-1.32.81-2,1.16-.29.16-.7.11-1,.29a32.67,32.67,0,0,0-3.05,2.14c-.57.47-1.27.23-1.8.52s-.9,1.11-1.44,1.22a6,6,0,0,0-3.25,1.62s-.08,0-.12,0a15.11,15.11,0,0,0-3,1.76,10.54,10.54,0,0,1-3.49,1.76c-.47.41-1,.74-1.49,1.12a4.83,4.83,0,0,0-1.14,1c-.76,1.16-.45,2.49-.26,3.71a6.3,6.3,0,0,1,.1,2.16c-.11.63-.23,1.26-.3,1.89s-.08,1.27-.11,1.91a3.88,3.88,0,0,0,0,1c.22,1.08.68,2.15-.07,3.21-.08.11,0,.34,0,.51.12.76-.13,1.56.41,2.26a.94.94,0,0,1,0,.75,6.09,6.09,0,0,0-.45,4c.07.21-.07.5-.14.75a3.06,3.06,0,0,0-.21.74c.06,1,.17,1.92.26,2.9a2.89,2.89,0,0,0,2.15-1.3,1.68,1.68,0,0,1,1.39-.85,1.59,1.59,0,0,0,1.34-.66,1.82,1.82,0,0,1,1.58-.76.8.8,0,0,0,.92-.56c.24-.73.81-.93,1.5-1.06a2.3,2.3,0,0,0,1.89-1.19,1.33,1.33,0,0,1,1.09-.54,2,2,0,0,0,1.73-1c.19-.23.3-.6.54-.71,1.12-.53,2.24-1,3.35-1.6.48-.24,1-.31,1.38-.79a1.37,1.37,0,0,1,.76-.48,2,2,0,0,0,1.65-1.26.71.71,0,0,1,.49-.39c1.22,0,1.95-1,3-1.46a23.81,23.81,0,0,0,2.78-1.64,23.67,23.67,0,0,0,3.43-2,22.67,22.67,0,0,1,4.86-2.85,1.7,1.7,0,0,0,.36-.16c1.32-1.36,3.12-1.88,4.74-2.7a6.85,6.85,0,0,0,1.57-1.08,4.2,4.2,0,0,1,3-1.52c.28,0,.59-.26.84-.46.82-.68,1.89-1,2.47-2,0-.09.23-.1.35-.16a9.63,9.63,0,0,0,1-.5c1.22-.73,2.43-1.48,3.64-2.22.74-.45,1.46-.92,2.19-1.37s1.16-.72,1.77-1a6.36,6.36,0,0,1,2-.87,2.15,2.15,0,0,0,1.69-1,1.56,1.56,0,0,1,.58-.5c.8-.46,1.62-.88,2.42-1.34,1.25-.73,2.49-1.49,3.76-2.21a32,32,0,0,0,2.81-1.56c.67-.49,1.18-1.18,2.15-.82a.54.54,0,0,0,.36-.12,20.18,20.18,0,0,0,2.66-2c1.33-1.34,3.08-1.87,4.68-2.66.66-.33,1.39-.43,1.72-1.21a.73.73,0,0,1,.49-.39c1.06,0,1.62-.65,2.19-1.37.12-.15.37-.2.57-.29,1.41-.67,3-1.08,4-2.44.1-.14.26-.32.4-.32,1,0,1.72-.73,2.55-1.17a10.67,10.67,0,0,0,2.38-1.43c1.31-1.26,3.07-1.76,4.45-2.87.18-.14.5-.11.74-.19a2.32,2.32,0,0,0,.7-.3c1.34-1.08,3.08-1.57,4.26-2.89a1.6,1.6,0,0,1,.58-.3c1.22-.55,2.68-.71,3.45-2,.11-.19.45-.24.69-.35,1.06-.54,2.14-1.06,3.2-1.61.46-.24.88-.57,1.35-.77a8.61,8.61,0,0,0,4-2.62,1,1,0,0,1,.53-.36c1.36-.4,2.47-1.43,3.94-1.59a.92.92,0,0,0,.45-.23,23,23,0,0,0,1.65-1.62,1.8,1.8,0,0,1,1.57-.74,2.76,2.76,0,0,0,2.32-1.17,1.49,1.49,0,0,1,.82-.58,2.59,2.59,0,0,0,2-1.3,1.66,1.66,0,0,1,1-.56,8.74,8.74,0,0,0,4.16-2,1.77,1.77,0,0,1,.55-.35c1.93-.67,3.12-2.43,4.89-3.26.17-1.13-.51-2.24.25-3.15a4.56,4.56,0,0,1-.64-1.36,24,24,0,0,1,0-3.7,3.54,3.54,0,0,0-.3-2.37,2.27,2.27,0,0,1-.09-1,15.24,15.24,0,0,0-.17-3.59c-.28-1-.31-1.74.24-2.29-.18-.89-.38-1.59-.46-2.3S275.92,175.84,275.9,175.08ZM128.71,328.17a3.32,3.32,0,0,0,2.35-1.05,2.31,2.31,0,0,1,1.31-.69,2.28,2.28,0,0,0,1.62-.65,1.84,1.84,0,0,1,1.66-.56,1,1,0,0,0,.81-.44,1.84,1.84,0,0,1,1.72-1,2,2,0,0,0,1.85-.95c.16-.28.73-.62,1-.53,1,.35,1.52-.33,2.18-.8a2.69,2.69,0,0,1,.95-.34,7.68,7.68,0,0,0,4.38-2.1.65.65,0,0,1,.21-.16,9.42,9.42,0,0,0,2.82-1.59,11.81,11.81,0,0,1,2.43-1.08c1.65-.82,3.42-1.42,5.11-2.17a10.25,10.25,0,0,0,2.37-1.29c1.2-1,2.69-1.28,4-1.95.61-.31,1.2-.66,1.84-.91a19,19,0,0,1,3.28-1.35,6.24,6.24,0,0,0,2.63-1.26,4.63,4.63,0,0,1,3.25-1.31,1.52,1.52,0,0,0,.91-.38c.81-.69,2-.77,2.65-1.76.2-.31.86-.28,1.28-.47,1.36-.65,2.68-1.39,4.07-2a17.11,17.11,0,0,0,2.07-1c.85-.49,1.81-.78,2.7-1.2s1.63-.36,2.29-.69,1.48-1.09,2.38-1.46a23.84,23.84,0,0,1,2.44-1.29c1.43-.38,2.57-1.39,4-1.7s2.64-2.07,4.49-1.53c0,0,.08,0,.12,0a19,19,0,0,0,2.85-1.73c1.38-1.22,3.21-1.4,4.73-2.26,1.57.14,2.29-1.8,3.89-1.59,0,0,.07-.05.09-.08.76-1.22,2.22-1.11,3.29-1.75.76-.45,1.78-.43,2.29-1.34a.71.71,0,0,1,.43-.27,17.73,17.73,0,0,0,2.52-.93,33.71,33.71,0,0,0,3.83-2,13.08,13.08,0,0,1,3.7-1.76c1.9-.45,3.44-1.53,5.16-2.29.67-.29,1.3-.66,2-.94a8.13,8.13,0,0,0,2.11-.81,9.93,9.93,0,0,1,3.59-1.86,19.63,19.63,0,0,0,3.74-1.37c1.13-.66,2.6-.79,3.34-2.07a.41.41,0,0,1,.21-.15,13.28,13.28,0,0,1,3.38-1.16c1.37-.1,2.19-1,3.09-1.69a2.7,2.7,0,0,1,2-.75,2.46,2.46,0,0,0,2.26-.92,1.92,1.92,0,0,1,1.12-.49c.58-.1,1.17-.2,1.44-.74a1.84,1.84,0,0,1,1.37-.87c1.33-.37,2.33-1.46,3.75-1.64.17,0,.31-.29.48-.43a1.59,1.59,0,0,1,1.56-.41,1.13,1.13,0,0,0,.8-.13c1.17-.66,2.28-1.39,3.46-2a2,2,0,0,0,1.27-1.65,14.61,14.61,0,0,1,.56-1.86c.15-.58.55-1.35.32-1.74-.91-1.6.23-3.38-.59-4.93,0-.06,0-.17,0-.26-.09-1.3.46-2.6-.07-3.93-.13-.32.14-.81.22-1.23a4,4,0,0,0,.11-1c-.08-1.07-.17-2.14-.33-3.2-.12-.79-.34-1.56-.55-2.47a4.82,4.82,0,0,0-1,.54,9.34,9.34,0,0,1-3.32,2c-.93.38-2,.36-2.81,1.14a7.92,7.92,0,0,1-2.45,1.09c-.51.21-1,.35-1.57.52-.2.07-.48.07-.59.2-.53.68-1.35.74-2.06,1a4.83,4.83,0,0,0-.8.37A5.1,5.1,0,0,1,262,244a1.1,1.1,0,0,0-.76.4,3,3,0,0,1-1.6,1.06,11,11,0,0,0-2.72,1.16,1.6,1.6,0,0,1-1,.25,1.66,1.66,0,0,0-1.59.66,2.09,2.09,0,0,1-.73.51c-1.08.52-2.16,1.06-3.27,1.5s-2.36,1.09-3.57,1.57c-1,.37-2.13.43-2.87,1.33a.5.5,0,0,1-.36.13c-1.89,0-3.32,1.28-5,1.76-.15,0-.27.22-.36.36a2.34,2.34,0,0,1-1.68.85,6.64,6.64,0,0,0-3.23,1.41c-.65.61-1.39.56-2.11.79a8.37,8.37,0,0,0-1.92,1.24c-.1.06-.26,0-.38.05a5.35,5.35,0,0,0-1.66.67,3.63,3.63,0,0,1-2.39.88.86.86,0,0,0-.52.26,4.3,4.3,0,0,1-2.85,1.34,2.83,2.83,0,0,0-1.7.57c-1.52,1.46-3.72,1.5-5.33,2.86-1,.87-2.56,1.13-3.87,1.68a33.47,33.47,0,0,0-3.73,1.64,10.47,10.47,0,0,1-2.45,1.07,7.13,7.13,0,0,0-1.94.7,9.35,9.35,0,0,1-3.64,1.55,1,1,0,0,0-.58.24c-1,1.06-2.58.94-3.53,2-.11.13-.42.07-.63.12a15.84,15.84,0,0,0-2.38.56c-1.2.47-1.92,1.89-3.44,1.77a29.66,29.66,0,0,1-4.57,2.22c-.42.19-1,.1-1.34.36-1.56,1.1-3.69,1.1-5,2.66-.1.11-.32.12-.49.16-.95.25-1.77.93-2.85.78-.19,0-.45.23-.64.4a4.41,4.41,0,0,1-3.23,1.38,1.21,1.21,0,0,0-.69.25,21.8,21.8,0,0,1-3.39,1.93c-.79.31-1.53.79-2.31,1.13s-1.79.66-2.67,1c-1.6.66-3.43.85-4.69,2.25-.13.14-.41.11-.62.19s-.7.26-1.05.4c-.75.31-1.5.63-2.26.92-.23.09-.57,0-.74.16a13.1,13.1,0,0,1-2.92,1.64,6.64,6.64,0,0,1-1.94.56c-.59.09-1.11.7-1.67,1.08a.44.44,0,0,1-.24.09,4.71,4.71,0,0,0-3.28,1.25,6.26,6.26,0,0,1-1.17.54l-2.28,1.2a8.69,8.69,0,0,1-.77.46c-1.18.48-2.65.27-3.52,1.51,0,.08-.24.09-.36.1-.94.07-1.23.65-1.27,1.5,0,1.33-.14,2.66-.2,4a1.13,1.13,0,0,0,.06.52,6.5,6.5,0,0,1,0,4.2c-.3,1.4.37,3-.66,4.22,0,0,0,.18,0,.26.41,1.32-.24,2.35-1,3.33-.26.35-.42.66-.18,1.07a2.19,2.19,0,0,1-.2,2.33,3.88,3.88,0,0,0-.29.83l-.35,1.37C129.23,326.13,129,327.1,128.71,328.17Zm-4.37-5.53c-1.09-.78-2.22-1.61-3.37-2.42-.42-.29-.89-.53-1.32-.83-.87-.62-1.73-1.25-2.57-1.91a2.67,2.67,0,0,1-.78-.83,1.09,1.09,0,0,1,0-.92c.22-.37.57-.24.89,0,.72.53,1.45,1.06,2.18,1.57.46.31,1,.54,1.42.87,1,.78,2,1.61,3.06,2.38a4.31,4.31,0,0,0,1,.41c.41-1.25.79-2.42,1.17-3.56-.8-.5-1.54-1-2.33-1.45a21.9,21.9,0,0,1-2.43-1.69c-1-.7-2.23-1.12-3.26-1.81-2-1.36-4.2-2.52-6.33-3.73-.36-.2-.76-.29-.66-.8a.84.84,0,0,1,1-.62,3.1,3.1,0,0,1,1,.44c.33.17.62.42.94.61,2,1.21,4.08,2.4,6.11,3.62,1.65,1,3.25,2.11,4.93,3.07,1.84,1,2.14.8,2.13-1.4a12.39,12.39,0,0,0-1.5-1c-1.84-.9-3.71-1.76-5.57-2.64a1,1,0,0,1-.48-.42c-.12-.3-.25-.72-.13-.94s.62-.24.9-.16c1.54.43,2.72,1.64,4.3,2,.64,1,1.92.77,2.75,1.76v-3l-3.25-1.74c-1.59-.86-2.92-2.15-4.64-2.79-.23-.08-.39-.32-.59-.48a5,5,0,0,0-.69-.54c-1.47-.79-3-1.56-4.43-2.36a1.26,1.26,0,0,1-.57-.52,1,1,0,0,1,0-.81.86.86,0,0,1,.79-.14,8.3,8.3,0,0,1,1.71.86c1.44,1,3.26,1.4,4.45,2.79.05.06.16.07.24.11a44.64,44.64,0,0,1,4.15,2.35,24.46,24.46,0,0,0,2.44,1.4c.11.07.3,0,.39,0a8.71,8.71,0,0,0,0-1.59,1.92,1.92,0,0,0-.49-1.14c-1.07-.88-2.21-1.66-3.33-2.48-.8-.59-1.62-1.15-2.39-1.76a.75.75,0,0,1-.17-.67.83.83,0,0,1,.61-.37,2,2,0,0,1,1,.29c1.42,1,2.82,2,4.24,3,.7-2.22-1.18-3.16-2.12-4.6-1.21,0-2.25-.32-2.61-1.77a1.55,1.55,0,0,0-1.38-1,3.16,3.16,0,0,1-2-1.09,25.29,25.29,0,0,0-2.08-1.92c-.44-.39-.81-.93-1.5-.9a16.9,16.9,0,0,0-3.13-2.6c-.19-.16-.38-.3-.56-.47a8.88,8.88,0,0,1-1.08-1c-.57-.78-1.11-1.53-2.2-1.6a1.37,1.37,0,0,1-.78-.42,17.16,17.16,0,0,1-1.13-1.42,2.44,2.44,0,0,0-2-1.28,1,1,0,0,1-.6-.19c-.8-.73-1.56-1.5-2.36-2.23a15.22,15.22,0,0,0-2.53-2.17,10.6,10.6,0,0,1-3.63-2.61c-.16-.22-.51-.29-.73-.49a6.63,6.63,0,0,1-1.13-1.18A1.8,1.8,0,0,0,92,272.54a1.91,1.91,0,0,1-1.38-.83,15.8,15.8,0,0,0-2.31-2.16c-1.06-.86-2.31-1.46-3.4-2.23s-2-1.54-3-2.32a39.77,39.77,0,0,1-3.06-2.75c-.93-.89-1.77-2-3.23-2.24-.18,0-.34-.25-.49-.4a6.63,6.63,0,0,0-2.45-1.86,1.67,1.67,0,0,1-.94-.85c-.49-1.25-1.65-1.71-2.62-2.39a12.24,12.24,0,0,1-1.9-1.3c-.33-.35-.53-.73-1.06-.84a2.24,2.24,0,0,1-.75-.47c-1.25-.87-2.11-2.22-3.66-2.72a2.05,2.05,0,0,1-1.24-1.05c-.38-1.25-1.58-1.43-2.41-2a26.66,26.66,0,0,1-4.66-4,11.19,11.19,0,0,0-1.72-1.29c-.37-.27-.73-.55-1.09-.83s-.44-.36-.65-.55-.56-.52-.82-.8-.23-.48-.36-.5c-1.21-.12-1.87-1.21-2.92-1.62-.32-.12-.5-.55-.78-.81-.74-.7-1.39-1.66-2.28-2s-1.51-.47-1.84-1.34c0-.1-.2-.17-.3-.25-.84-.64-1.73-1.2-2.55-1.9-1.38-1.19-3.09-2-4.06-3.67a14.6,14.6,0,0,1-2.93-1.94c-.46-.3-1-.44-1.48-.77a9.22,9.22,0,0,1-2.18-2,6,6,0,0,0-2.73-2.23,2.94,2.94,0,0,1-1.09-.64c-1.33-1.76-3.27-2.84-4.82-4.36a1.44,1.44,0,0,0-.81-.37,1.54,1.54,0,0,1-1.37-.84c-.11-.19-.41-.27-.6-.43-1.16-.93-2.62-1.52-3.36-2.93-.08-.14-.25-.33-.36-.32-1,0-1.46-.83-2.22-1.37v1.94c.74.58,1.39,1.08,2,1.59s1,.84,1.46,1.24c1.15.9,2.33,1.76,3.46,2.68s1.91,1.73,2.92,2.52c1.51,1.18,3.1,2.27,4.61,3.45.51.39,1,.9.49,1.74a1.93,1.93,0,0,1-1.54-.7,15,15,0,0,0-1.69-1.39c-.82-.63-1.65-1.24-2.45-1.9s-1.25-1.45-2-1.75c-1.37-.51-2.11-1.71-3.25-2.46-.91-.61-1.68-1.43-2.53-2.13-.4-.34-.82-.63-1.33-1v3.27c.66.42,1.63.73,2.06,1.39.79,1.2,2.05,1.74,3.09,2.52,2.71,2,5.44,4,8.06,6.21a19.26,19.26,0,0,0,3.09,2.52,37.07,37.07,0,0,1,3.67,2.58,14.93,14.93,0,0,1,1.5,1.26c.38.34.49.79.09,1.12-.17.14-.61,0-.91-.06-.15,0-.28-.21-.41-.32-1.93-1.48-3.8-3.07-5.82-4.43-1.83-1.23-3.29-2.9-5.22-4-1.12-.65-2-1.69-3.1-2.44-2.1-1.46-4.12-3-6.18-4.7L9.62,221c2,.9,3.32,2.72,5.23,3.73a17,17,0,0,1,2.09,1.54c.62.46,1.26.9,1.86,1.38a28.14,28.14,0,0,0,3.89,2.88c.4.22.6.51.41,1s-1.06.62-1.24.33c-.56-.88-1.69-.89-2.3-1.61a7,7,0,0,0-1.88-1.47c-1.49-.86-2.69-2.1-4.15-3a12.31,12.31,0,0,1-3.23-2.72c-.18-.24-.57-.32-.92-.5l-1.29,3.24,1,.79c1,.78,2,1.54,3,2.35s2.07,1.83,3.16,2.68c2.07,1.62,4.18,3.19,6.28,4.79,1.1.83,2.2,1.66,3.29,2.51q2,1.54,3.94,3.11c.57.45,1.15.89,1.7,1.36.88.76,1.77,1.52,2.6,2.33a.83.83,0,0,1,.07.79c-.13.17-.52.17-.8.17s-.29-.18-.43-.28l-4-3c-.5-.39-1-.79-1.48-1.21a14.05,14.05,0,0,0-2.68-2.36c-1.37-.66-2.28-1.8-3.48-2.63-1.78-1.23-3.41-2.68-5.1-4L10,228.8c-.16-.13-.33-.27-.5-.39L7.19,226.9l-1.11,2c1.4,1.08,2.84,2.06,4.12,3.2,1.43,1.27,3,2.35,4.43,3.63.47.43.89.9,1.36,1.28s1.1.64,1.35,1.3c0,.09.22.11.33.18.64.44,1.3.85,1.91,1.34,1.09.88,2.15,1.81,3.23,2.7.33.28.86.41,1,.74.45.81,1.26,1.13,1.92,1.65a11.39,11.39,0,0,1,1.95,1.7,16.37,16.37,0,0,0,3,2.41c.89.73,1.85,1.44,2.78,2.16s1.64,1.37,2.43,2.08a7,7,0,0,1,.91,1.05,2.61,2.61,0,0,0,1.69,1.29,2.13,2.13,0,0,1,1,.56c.81.77,1.56,1.6,2.36,2.38a14,14,0,0,0,1.38,1.17,20.18,20.18,0,0,0,2.51,1.75A9.33,9.33,0,0,1,47.46,263c1.94,1.63,4,3.17,5.92,4.77a14,14,0,0,0,1.9,1.73,2.9,2.9,0,0,1,1.26,1.24,4.28,4.28,0,0,0,2,1.74,6.48,6.48,0,0,1,.93.65c.19.15.33.4.54.48a2.89,2.89,0,0,1,2.06,2.08,10.59,10.59,0,0,1,1.44,1c1,.77,1.71,2.07,3.19,2.21a19.21,19.21,0,0,0,2.66,2.27c.18.13.16.51.32.7.3.35.68.91,1,.9,1.41,0,1.77.83,1.92,1.84,1.46.91,3,1.44,4.18,2.71.64.69,1.57,1.12,1.87,2.13,0,0,.06.06.09.08L83.39,293c.21.15.42.3.62.46a6,6,0,0,1,1.32,1.18,3.36,3.36,0,0,0,1.41,1.23c.47.23.77.78,1.16,1.18s.5.66.81.74a7,7,0,0,1,3.88,3,4.85,4.85,0,0,0,1.24,1.31c.8.48,1.76.7,2.16,1.7.06.17.45.21.68.32a2.48,2.48,0,0,1,.79.42,15.48,15.48,0,0,0,3.85,3.18c.14.08.24.25.37.36a33,33,0,0,0,3.63,3.19c1.12.74,2,1.69,3.14,2.42a19.18,19.18,0,0,1,1.68,1.58,5.72,5.72,0,0,1,1.76,2,1.62,1.62,0,0,0,.8.79,10.79,10.79,0,0,1,4.4,3.29,21.38,21.38,0,0,0,1.74,1.53,12,12,0,0,0,1.53,1.35,25.85,25.85,0,0,0,2.6,1.26ZM4.94,274.08l.22,1.84c.89.52,1.79,1,2.67,1.57.47.29.88.66,1.34,1s1,.57,1.43.87.61.49.94.69c1.31.83,2.63,1.64,3.94,2.46l3.06,1.9c.87.55,1.74,1.08,2.59,1.66.42.29.69.75.29,1.22s-.79.12-1.18-.07A.62.62,0,0,1,20,287a6.16,6.16,0,0,0-2.37-1.54,17.37,17.37,0,0,1-2.32-1.42c-.71-.48-1.33-1.26-2.11-1.48a7.53,7.53,0,0,1-2.33-1.33c-.71-.48-1.36-1.06-2.08-1.52-1.06-.66-2.17-1.25-3.27-1.88l.2,3.07a7.87,7.87,0,0,1,2.34,1.27c.93,1.07,2.25,1.41,3.33,2.16,1.71,1.16,3.6,2,5.38,3.1,1.14.68,2.22,1.48,3.33,2.22s2.19,1.52,3.34,2.19,2.6,1.34,3.89,2a11.73,11.73,0,0,1,1.5,1c.36.27.66.64.36,1.11s-.72.35-1.11,0L28,296l-6.52-3.93L16,288.8c-.77-.46-1.54-.92-2.3-1.39s-1.68-1.06-2.53-1.58c-1.74-1.05-3.49-2.08-5.27-3.14v4c2,.46,3.27,2.11,5.15,2.79A15.1,15.1,0,0,1,13.63,291c.73.45,1.49.87,2.22,1.33s1.33,1,2,1.37,1.49.63,2.2,1,.48.89-.14,1.17a.86.86,0,0,1-1.07-.12,5.33,5.33,0,0,0-1.21-.63c-.35-.17-.85-.25-1-.52-.55-.85-1.53-.91-2.26-1.41-.21-.14-.47-.21-.68-.35a15.28,15.28,0,0,0-2.53-1.69,17.24,17.24,0,0,1-4.37-2.65A5.27,5.27,0,0,0,5.71,288a11.66,11.66,0,0,1-.64,2.45c-.36.72-.15,1,.41,1.36s1.39.82,2.08,1.25q2.19,1.37,4.37,2.76c.36.22.65.56,1,.78,1.86,1.09,3.75,2.13,5.59,3.24s3.89,2.44,5.83,3.66l2.95,1.85c.54.34,1.09.67,1.61,1,1,.71,2.06,1.41,3.06,2.16a.7.7,0,0,1,.14.67,1.07,1.07,0,0,1-.72.38,1.52,1.52,0,0,1-.7-.32c-1.47-.91-2.9-1.89-4.41-2.73-.87-.48-1.54-1.21-2.39-1.7-1-.6-2.12-1.13-3.18-1.69a1.39,1.39,0,0,1-.31-.23c-1.17-1.22-2.75-1.82-4.1-2.77-1.51-1.05-3.19-1.86-4.76-2.83-2.46-1.52-4.89-3.08-7.39-4.66l-1,2.11c1.28.86,2.56,1.74,3.85,2.58.86.56,1.75,1.11,2.64,1.62.67.38,1.41.64,2,1.07s1.3,1.22,2.05,1.65S15,302.7,15.68,303A15.56,15.56,0,0,1,20,305.83a2.21,2.21,0,0,0,.57.3,6.68,6.68,0,0,1,1.9,1,9.25,9.25,0,0,0,2.08,1.47c.77.47,1.52,1,2.27,1.5,1,.67,1.94,1.4,3,2,.86.53,1.82.88,2.68,1.41,1.24.77,2.44,1.62,3.64,2.46a1.91,1.91,0,0,1,.47.61,2.49,2.49,0,0,0,1.75,1.19,3.53,3.53,0,0,1,1.25.6c1.47,1,2.88,2.13,4.36,3.16A13.38,13.38,0,0,0,46,322.74a14.15,14.15,0,0,1,2.07,1.49c2,1.42,4.15,2.73,6.28,4,1,.58,1.59,1.6,2.77,1.87.24.05.47.38.62.64a3.32,3.32,0,0,0,1.52,1.33c.79.39,1.75.46,2.28,1.32,0,.05.17,0,.25.05,1,.23,1.8.68,1.88,1.49l1.92,1.24A14.06,14.06,0,0,0,68.8,338c1.06.34,1.93,1.32,3,1.85.15.08.2.37.29.57a1.46,1.46,0,0,0,1.39,1A1.6,1.6,0,0,1,75.37,343c2.24.4,3.84,2,5.76,2.87a.61.61,0,0,1,.26.29c.47,1.31,1.77,1.71,2.77,2.38,1.28.85,2.73,1.45,4.1,2.18a2.17,2.17,0,0,1,.68.6,3.11,3.11,0,0,0,1.94,1.38c.39.07.78.55,1,.93a1.37,1.37,0,0,0,1.29.71c.33,0,.8,0,1,.19.9.93,2.29,1.24,3,2.46a3,3,0,0,0,1.43,1.05c.74.33,1.6.42,2,1.28a.57.57,0,0,0,.43.27,2.75,2.75,0,0,1,1.71.87,4.88,4.88,0,0,0,1.58,1.28c1.78.59,3,1.93,4.53,2.92.56.37,1.23.44,1.77,1a9.19,9.19,0,0,0,2.69,1.73c1.72.79,3,2.19,4.45,3.28a.6.6,0,0,1,.14.21A2.22,2.22,0,0,0,119.4,372a9.65,9.65,0,0,1,3.25,1.81,34,34,0,0,0,3.31,2.68,2.75,2.75,0,0,0,2.24.78c.56-1,1.14-2,1.76-3.12l-4.82-2.82-6-3.55a13.85,13.85,0,0,1-1.65-1,.7.7,0,0,1-.17-1,.63.63,0,0,1,.92-.11c.7.4,1.45.71,2.13,1.12,1.46.89,2.85,1.9,4.34,2.73a28.58,28.58,0,0,1,4.75,2.77c.28.25.77.24,1.25.38.34-1,.64-1.8,1-2.66l-1.68-.83c-1.61-.79-3-2-4.81-2.42a1,1,0,0,1-.53-.34,1.06,1.06,0,0,1-.15-.81.77.77,0,0,1,.72-.28,16,16,0,0,1,2.41.94,17.66,17.66,0,0,0,4.17,2l.69-2.57c-1.48-.59-2.9-1.25-4.39-1.73-.89-.28-1.62-1-2.66-.93a.81.81,0,0,1-.6-.43,1.46,1.46,0,0,1-.09-1c0-.12.52-.2.78-.14a4.58,4.58,0,0,1,1.59.52,7,7,0,0,0,2.4.86c.17,0,.43,0,.49.12.55.87,1.46.51,2.33.83l-.46-2.78c-2.81-.69-5.19-2.32-7.8-3.42-1.21-.52-2.42-1.06-3.65-1.56a24.9,24.9,0,0,1-2.45-1.16c-.36-.2-.8-.51-.52-1s.61-.34,1-.17c1.35.56,2.72,1.08,4.08,1.62.55.22,1.09.45,1.62.7s.82.45,1.24.64a24.75,24.75,0,0,1,3.27,1.48,17.76,17.76,0,0,0,2.9,1.2,20.63,20.63,0,0,0-.35-2.09,1.78,1.78,0,0,0-.63-.91c-.74-.52-1.54-.95-2.33-1.4s-1.83-1-2.71-1.53a.88.88,0,0,1-.31-.73.54.54,0,0,1,.79-.42,11.57,11.57,0,0,1,1.31.53c1,.54,2.09,1.11,3.22,1.72-.05-.69-.06-1.2-.12-1.71a3,3,0,0,0-2.29-2.07,2,2,0,0,1-2-1.2,1.91,1.91,0,0,0-1.88-1.3,2.86,2.86,0,0,1-1.89-.76,13.64,13.64,0,0,0-1.7-1.33,4.6,4.6,0,0,0-2.38-1.21c-.21,0-.44-.28-.59-.49-.82-1.07-2.25-1.17-3.19-2-.37-.34-.87-.56-1.2-.92a3.24,3.24,0,0,0-2.37-1.39,1.32,1.32,0,0,1-.8-.35c-.52-.45-1-1-1.47-1.43a2.22,2.22,0,0,0-1.93-.87,1.09,1.09,0,0,1-.71-.24c-1.5-1.09-3-2.2-4.48-3.3a3.6,3.6,0,0,0-.87-.54,8.8,8.8,0,0,1-3.78-2.11c-.19-.2-.53-.25-.78-.4s-1-.46-1.11-.82a2,2,0,0,0-2-1.18,1.66,1.66,0,0,1-1-.43c-1.39-1.6-3.39-2.3-5-3.51-1.13,0-1.81-.87-2.66-1.41-.46-.29-1-.36-1.51-.64a31,31,0,0,1-2.75-1.94c-1.37-1.1-2.6-2.4-4.43-2.73a1.09,1.09,0,0,1-.43-.29,7.47,7.47,0,0,0-2.53-1.51,2,2,0,0,1-1.16-.79c-.6-1.16-1.74-1.48-2.73-2.06s-2-.58-2.58-1.62a.33.33,0,0,0-.24-.1c-1,0-1.62-.78-2.39-1.24a14.27,14.27,0,0,0-1.87-1.3c-1.12-.46-2.27-.79-2.94-1.92a.81.81,0,0,0-.41-.29,13.73,13.73,0,0,1-3.29-1.71,19.1,19.1,0,0,1-3.69-2.84,1.85,1.85,0,0,0-1.69-.79c-.27,0-.63-.24-.89-.45-.7-.59-1.37-1.22-2-1.83a.46.46,0,0,0-.24-.1c-1.27.05-2-1.08-3.19-1.35a1.24,1.24,0,0,1-.58-.47c-.87-1.06-1.81-2-3.31-1.91-.13,0-.32,0-.37-.11a7.36,7.36,0,0,0-3.08-2.2c-.45-.24-.86-.56-1.28-.84a15.48,15.48,0,0,1-3.21-2.14,3.38,3.38,0,0,0-2-1.3,7.12,7.12,0,0,1-2-1.22c-.06-.05-.17,0-.25,0-1.25-.5-2.64-.93-3.41-2a4.46,4.46,0,0,0-2.53-1.89,7,7,0,0,1-2.76-1.56c-.17-.13-.32-.29-.49-.42a20.52,20.52,0,0,0-2.35-1.52,12,12,0,0,0-3.26-1.59c-.07,0-.12-.13-.19-.18-.35-.23-.69-.47-1-.69-1.21-.72-2.63-1.14-3.47-2.42a.94.94,0,0,0-.41-.28Zm125.47-7.81c.09-1.35.09-2.33.22-3.3.18-1.34.22-1.52-1-1.93-2.28-.73-4.13-2.32-6.44-3-.15,0-.27-.21-.41-.3-.32-.18-.64-.37-1-.52-1.49-.66-3-1.3-4.49-2a1,1,0,0,1-.51-.38,1.1,1.1,0,0,1-.12-.81.82.82,0,0,1,.74-.25,6.38,6.38,0,0,1,1.47.5c2.09,1,4.19,2,6.26,3a23.11,23.11,0,0,0,2.65,1.16,25,25,0,0,1,2.71,1.31,7.94,7.94,0,0,0,.07-1.56,1.93,1.93,0,0,0-.49-1.22,32.59,32.59,0,0,0-2.82-1.77c-.85-.52-1.73-1-2.56-1.54a.9.9,0,0,1-.2-.78c0-.15.41-.35.61-.32a4,4,0,0,1,1.19.43c1.07.58,2.1,1.21,3.16,1.79a4.83,4.83,0,0,0,.93.28,5.89,5.89,0,0,0-2.48-4.06,2.17,2.17,0,0,1-2.5-1.16,2,2,0,0,0-1.77-1.28,3.62,3.62,0,0,1-2-.86c-1.23-1-2.36-2.25-4-2.62a.79.79,0,0,1-.4-.33c-.78-1.16-2.32-1.21-3.25-2.19-.37-.39-.9-.64-1.28-1a3.24,3.24,0,0,0-2.25-1.36,2.09,2.09,0,0,1-1.11-.59c-.45-.39-.79-.91-1.25-1.3a2.31,2.31,0,0,0-1.8-.88,1.32,1.32,0,0,1-.84-.27c-1.45-1.07-2.88-2.18-4.31-3.27a3.37,3.37,0,0,0-.75-.52,8.83,8.83,0,0,1-4-2.39.93.93,0,0,0-.54-.31,1.67,1.67,0,0,1-1.37-1.05c-.2-.37-.71-.85-1-.82-1.52.15-2.3-1-3.15-1.8a21.09,21.09,0,0,0-3.89-2.41c-.65-.38-1.46-.44-1.93-1.18a1.69,1.69,0,0,0-.95-.65c-1.62-.49-2.76-1.71-4.07-2.66a16,16,0,0,0-3-2A10.58,10.58,0,0,1,74,216.71a3.34,3.34,0,0,0-.86-.58,3.33,3.33,0,0,1-2.39-1.84c0-.14-.24-.24-.39-.32-1-.54-2.08-1.06-3.12-1.61a2.29,2.29,0,0,1-.83-.58,1.62,1.62,0,0,0-1.15-.74,2.26,2.26,0,0,1-.89-.47,33.58,33.58,0,0,0-3-2,5.4,5.4,0,0,1-2.59-1.81,1.21,1.21,0,0,0-.6-.46,20.14,20.14,0,0,1-5.56-3.45,23.58,23.58,0,0,0-2-1.64c-.81-.49-1.79-.63-2.49-1.43-.32-.37-1-.49-1.23-1.06a.61.61,0,0,0-.29-.23c-1-.45-2.05-.87-3.06-1.35a3.53,3.53,0,0,1-.85-.75c-.87-.87-1.66-1.84-3.08-1.84a1.42,1.42,0,0,1-1-.56,2.79,2.79,0,0,0-1.86-1.29.84.84,0,0,1-.56-.3,4.84,4.84,0,0,0-1.65-1.19c-1.17-.79-2.55-1.3-3.4-2.53a1.62,1.62,0,0,0-1.28-.76c-.39,0-.74-.39-1.11-.6a8.9,8.9,0,0,0-1.2-.67,8.21,8.21,0,0,1-3.6-2.25,5.77,5.77,0,0,0-3.26-2.14,2.27,2.27,0,0,1-1-.57c-1.53-1.59-3.55-2.52-5.24-3.89a1.2,1.2,0,0,0-.73-.2,1.73,1.73,0,0,1-1.37-.63,3,3,0,0,0-.71-.47,17.56,17.56,0,0,1-3.31-2.22,2.53,2.53,0,0,0-2-.79l.14,1.42,4.78,3.3.64.43c.87.55,1.75,1.08,2.61,1.64l2.15,1.4c1.44.95,2.89,1.89,4.33,2.85a1.75,1.75,0,0,1,.63.64,1,1,0,0,1-.06.83c-.08.14-.46.17-.69.13a1.11,1.11,0,0,1-.67-.36c-.79-1-2-1.32-3-2-.57-.37-1.17-.73-1.73-1.13s-1.24-1.22-2-1.45c-1.44-.43-2.38-1.54-3.59-2.26-1-.57-1.82-1.26-2.75-1.87-.12-.08-.33,0-.59,0l-.48,2.34,4.52,2.83c2.35,1.47,4.7,2.93,7,4.41.58.37,1.08.86,1.67,1.21,2.41,1.41,4.72,3,7.16,4.35A25.55,25.55,0,0,1,29,193.85a.79.79,0,0,1,.29,1.14c-.28.42-.65.29-1,0A15.38,15.38,0,0,0,26,193.4a36.17,36.17,0,0,1-5-3c-1.25-.86-2.5-1.72-3.77-2.53-1-.61-2-1.13-3-1.72-1.23-.72-2.46-1.45-3.66-2.22-1.44-.93-2.86-1.89-4.35-2.88v3.84l3.45,2.19a9.68,9.68,0,0,0,.82.61c.48.25,1,.41,1.49.68.67.38,1.31.82,2,1.24A15.14,15.14,0,0,1,17.46,192a1.59,1.59,0,0,0,.56.34c.72.35,1.47.67,2.18,1a.61.61,0,0,1,0,1.13.94.94,0,0,1-1.19-.1,9.27,9.27,0,0,0-1.32-.72c-.44-.27-.86-.57-1.27-.88-.17-.13-.26-.44-.43-.47A11.38,11.38,0,0,1,13.28,191c-1-.48-1.83-1.19-2.83-1.67A10.89,10.89,0,0,1,7.07,187a4.53,4.53,0,0,0-1.11-.6,21.76,21.76,0,0,1-.54,2.36C5,189.94,5,190,6.11,190.59a20.12,20.12,0,0,1,2.79,1.59c2.42,1.8,4.93,3.45,7.51,5,1.7,1,3.31,2.21,5,3.29,2.82,1.82,5.67,3.6,8.49,5.42a12.56,12.56,0,0,1,1.85,1.41c.18.17.14.59.21.89a4.12,4.12,0,0,1-.84.15,1,1,0,0,1-.47-.21c-1.51-1-3-2.09-4.56-2.93-.87-.46-1.44-1.21-2.23-1.71A42.2,42.2,0,0,1,19.72,201a41.51,41.51,0,0,0-4.54-2.88c-.83-.53-1.64-1.09-2.47-1.62l-5.38-3.51c-.22-.14-.4-.33-.62-.46-.77-.42-1.56-.81-2.36-1.23l-1,2a26.45,26.45,0,0,0,3,2.06c1.88,1,3.42,2.45,5.37,3.32.54.23.95.74,1.61.95s1,.84,1.5,1.28a9.62,9.62,0,0,0,1,.9,19.06,19.06,0,0,0,1.68,1c1.33.7,2.32,1.9,3.7,2.54.39.18.9.32,1.1.64.45.71,1.23.93,1.83,1.39.89.67,1.83,1.29,2.74,1.94.24.17.46.38.72.53a23.53,23.53,0,0,1,2.91,1.62A39.37,39.37,0,0,1,34,213.79c.81.75,2,1.05,2.5,2.17.19.42.88.62,1.37.87a14.35,14.35,0,0,1,1.48.7c1.46,1.06,2.87,2.19,4.33,3.25.51.37,1.13.59,1.67.92a6,6,0,0,1,2.25,1.67c2.35.86,3.84,3,6.14,4,1.08.46,1.7,1.72,3,2.05.21,0,.39.34.53.56a5,5,0,0,0,2.53,1.88c1,.41,1.77,1.16,2.78,1.55.2.07.36.38.44.61a1.05,1.05,0,0,0,.89.82,3.21,3.21,0,0,1,1,.58c1,.7,1.78,1.74,3.1,2s1.91,1.63,3.18,2c.17,0,.19.5.37.65.41.35.89.88,1.32.87,1.26,0,1.69.67,1.89,1.62,1.51.85,3.3,1,4.42,2.46a.72.72,0,0,0,.43.26,1.5,1.5,0,0,1,1.31,1.12,1,1,0,0,0,.38.49q2.63,1.66,5.27,3.28c.37.22.9.26,1.16.56a14.26,14.26,0,0,0,2.75,2.21c.85.6,1.47,1.4,2.65,1.55.6.07,1.1.81,1.7,1.14a3.22,3.22,0,0,1,1.31,1.2,3.64,3.64,0,0,0,2.06,1.51c.36.12.86.22,1,.49a2.16,2.16,0,0,0,1.68,1.07,1.52,1.52,0,0,1,.64.42c.62.53,1.14,1.33,1.85,1.58a13,13,0,0,1,4.06,2.72c.55.45,1.2.45,1.71.84a18.33,18.33,0,0,0,2.67,1.94,29.6,29.6,0,0,1,4.26,3.11c.24.18.54.38.63.63.27.77.91,1,1.56,1.24a8.88,8.88,0,0,1,3.51,2.12,19.87,19.87,0,0,0,2.57,2,11.44,11.44,0,0,0,1.79,1.24,19.74,19.74,0,0,0,2.36.81c.33-1.45.66-2.9,1-4.39-.58-.41-1.1-.8-1.64-1.15q-4.25-2.77-8.51-5.52c-1.51-1-3-1.93-4.58-2.89-.84-.52-1.72-1-2.56-1.54s-1.7-1.17-2.52-1.79c-.17-.13-.37-.49-.3-.63a1,1,0,0,1,.63-.54,1.83,1.83,0,0,1,.93.34c.28.17.49.47.78.64.55.33,1.16.57,1.7.91.76.5,1.45,1.1,2.22,1.57,2.41,1.49,4.86,2.9,7.26,4.4s4.56,3,7,4.6c.19-1.4.36-2.55.5-3.7a1.08,1.08,0,0,0-.5-1.12l-2-1.2-2.6-1.55c-.71-.41-1.44-.79-2.13-1.23-1.2-.74-2.39-1.49-3.56-2.28a1.17,1.17,0,0,1-.43-.81c0-.13.42-.38.68-.41a1.56,1.56,0,0,1,1,.2,73.82,73.82,0,0,0,6.59,4C128.37,265,129.25,265.55,130.41,266.27Zm100-225.51c-.59.08-1,.17-1.44.19-3.43.13-6.86.23-10.29.36-.56,0-1.12.14-1.68.16-1.09,0-2.21.59-3.27-.09-.15-.43-.31-.83-.42-1.25s-.2-.64-.09-.87a4.45,4.45,0,0,0,.24-2.92.6.6,0,0,1,.65-.77c.61,0,1.22,0,1.83,0,1.25.06,2.51.17,3.76.24s2.24.13,3.37.17a12.31,12.31,0,0,0,1.82-.07,10,10,0,0,1,3.62.06,11.43,11.43,0,0,0,1.93.1c-.36-1.12-.59-2.14-1-3.08a7.43,7.43,0,0,0-5.16-4.35,9.92,9.92,0,0,1-3-1.17c-1.81-1.28-3.42-1.5-5.1-.24a7.87,7.87,0,0,0-2,2,25.71,25.71,0,0,0-3.15,6,13.36,13.36,0,0,0-1,5.07c.1,1.26.12,2.52.28,3.76a4.75,4.75,0,0,0,.61,2,11,11,0,0,0,5.3,4.45,9.3,9.3,0,0,0,5.61.54c.71-.18,1.43-.35,2.14-.57,2.25-.71,4.23-1.73,5.14-4.17A14.4,14.4,0,0,0,230.37,40.76ZM133.45,368.6a35.17,35.17,0,0,1-3.86,9.33l1.46,1.54a2.12,2.12,0,0,0,.74-1.58,2.93,2.93,0,0,1,.38-.8,17.5,17.5,0,0,0,.86-1.59,1.36,1.36,0,0,0,0-1,3.27,3.27,0,0,1,.31-2.91A3.23,3.23,0,0,0,133.45,368.6Zm-2-87.61a3.76,3.76,0,0,0,.14-1.11,9.46,9.46,0,0,1,.19-3.48c.08-.68.26-1.36.28-2,0-1.38,0-2.77,0-4.15a4.48,4.48,0,0,0-.2-.88h-.35a4.77,4.77,0,0,0-.2.91c-.05,1.35-.06,2.69-.1,4a3.4,3.4,0,0,1-.17.83c-.3,1-.62,2-.93,3-.17.56-.35,1.13-.57,1.86Zm-5.81,47.1a4.48,4.48,0,0,0,.36-1.17,9.13,9.13,0,0,1,.9-3.73,9.48,9.48,0,0,0,.54-2.11,14.71,14.71,0,0,0,.07-1.63c0-.35.07-.7.11-1.05-1.32,2.92-2.44,5.88-3.61,8.87Zm6.51,25.52c.13,1.59.24,3.08.4,4.57,0,.23.28.43.45.68.74-.74.3-1.5.35-2.2s0-1.53,0-2.35Zm-3.19-45.13h.38l-.14-1-.24,0Zm3.32-47.76a2.94,2.94,0,0,0,.18-.54,1.24,1.24,0,0,0-.1-.35c-.11.09-.26.16-.33.28S132.07,260.31,132.24,260.72Z"/><path d="M167.5,124.93c-1.95-.29-3.73-.13-5.46-.74-2.38-.84-4.84-1.42-7.26-2.14a30.21,30.21,0,0,1-6.8-3c-2.66-1.56-5.38-3-8-4.62a27.06,27.06,0,0,1-3.16-2.52c-2.25-1.91-4.48-3.85-6.73-5.77-.19-.17-.41-.32-.59-.5-1.91-1.86-3.83-3.69-5.71-5.57a46.72,46.72,0,0,1-7-8.91c-1.1-1.82-2.25-3.61-3.38-5.42a19.74,19.74,0,0,1-2.13-5.44c-.16-.59-.32-1.17-.52-1.75-.56-1.64-1.17-3.27-1.71-4.92a2,2,0,0,1,.75-2.53,2.07,2.07,0,0,1,2.52.39,9.15,9.15,0,0,0,3.77,2c1,.3,2,.79,3,1.14a26.08,26.08,0,0,0,2.74.81q5.14,1.17,10.3,2.27a16.87,16.87,0,0,0,3.22.45,28.46,28.46,0,0,1,4.52.54c3.2.55,6.44.89,9.63,1.55,4.63,1,9.28.39,13.93.44a34.23,34.23,0,0,0,7.69-1.27c1.91-.42,3.85-.64,5.77-1a29.36,29.36,0,0,0,2.88-.81l8.47-2.6c1.58-.47,3.16-1,4.75-1.38,1-.25,2.05-.35,3.07-.57,2-.42,4-1,6-1.3a48.79,48.79,0,0,1,8.27-1,14.79,14.79,0,0,0,3.47-.52c3-.7,6.08-1.44,9.11-2.2,1.09-.27,2.16-.64,3.24-1a3.4,3.4,0,0,1,.88-.2c1.51-.07,2.24,1.12,1.72,2.54-1.33,3.68-3.37,7-4.93,10.61a52.73,52.73,0,0,1-4.71,8.11c-1.36,2.07-2.93,4-4.33,6s-2.69,4.15-4.06,6.22a11.19,11.19,0,0,1-1.43,1.84c-2.12,2.13-4.07,4.4-6,6.7s-4.19,4.54-7.23,5.63a11.31,11.31,0,0,0-2.31,1.42c-1.15.77-2.3,1.56-3.43,2.36-2.63,1.87-5.77,2.56-8.7,3.76a17.1,17.1,0,0,1-4.93,1.62,13.57,13.57,0,0,1-1.55.16,16.19,16.19,0,0,0-4.64.59A27.19,27.19,0,0,1,167.5,124.93Zm56.37-53.19c-.2-.08-.29-.15-.36-.14-1.79.37-3.58.71-5.35,1.12s-3.6,1-5.43,1.35c-1.1.21-2.27.05-3.38.22-3.55.55-7.18.67-10.6,1.93a2.44,2.44,0,0,1-.39,0c-1.49.27-3,.42-4.47.82-3.44.93-6.85,2-10.25,3a46.84,46.84,0,0,1-8.43,2.19c-2.1.25-4.16.85-6.24,1.31a24,24,0,0,1-5.29.61c-1.7,0-3.39.16-5.08.16-2,0-4,0-6-.16-1.47-.1-2.92-.42-4.38-.59a91.17,91.17,0,0,1-9.13-1.43c-1.13-.25-2.32-.28-3.48-.42-1.34-.15-2.69-.24-4-.51-3.78-.78-7.55-1.63-11.31-2.5a26.34,26.34,0,0,1-3-1c-.73-.26-1.44-.6-2.18-.85a5.43,5.43,0,0,0-1.13-.11c.64,2,1.27,3.8,1.8,5.64a23,23,0,0,0,3,5.68c.38.62.94,1.14,1.34,1.75a41.71,41.71,0,0,0,2.28,3.62c1.34,1.65,2.81,3.2,4.3,4.72,1.65,1.67,3.34,3.31,5.1,4.87,2.34,2.07,4.74,4.08,7.15,6.07a37.35,37.35,0,0,0,4,3.08c2,1.23,4.17,2.18,6.15,3.43a26.5,26.5,0,0,0,6.05,2.73c2.93,1,5.9,1.84,8.88,2.62a11,11,0,0,0,5.16.11,31.25,31.25,0,0,1,5.78-.85,12.71,12.71,0,0,0,3.66-.84c1.77-.61,3.45-1.45,5.23-2,3-1,5.43-2.89,8-4.55a16.08,16.08,0,0,1,2.42-1.49,15.84,15.84,0,0,0,6.06-4.62,34.17,34.17,0,0,1,3.65-4.24,20.62,20.62,0,0,0,3-3.26c1.22-1.63,2.28-3.38,3.42-5.08,1.87-2.78,3.71-5.57,5.62-8.32a46.53,46.53,0,0,0,4.12-6.79c.93-2,1.91-3.91,2.87-5.86C223.38,72.74,223.62,72.24,223.87,71.74Z"/><path d="M138.07,43.45c.22,2.39-.87,5.16-2.18,7.9A15.8,15.8,0,0,1,132,56.49c-2.19,1.89-4.89,2.55-7.65,3-4.51.8-8.61-.4-12.53-2.51a20.91,20.91,0,0,1-6.53-5.89,2.85,2.85,0,0,1-.47-.78A37.62,37.62,0,0,1,103,44.77a11.8,11.8,0,0,1,1.73-8.5,28.12,28.12,0,0,1,5-5.85,17.13,17.13,0,0,1,9.72-4.31c1.21-.14,2.39-.41,3.58-.66,3-.63,5.86-.53,8.3,1.42a15.6,15.6,0,0,1,4.89,6.52c.57,1.44,1.48,2.76,1.56,4.39S137.93,41.08,138.07,43.45Zm-3.47.28c-.14-2.12-.22-3.55-.34-5A5.08,5.08,0,0,0,134,37.1a22.74,22.74,0,0,0-3.54-6.34,6.15,6.15,0,0,0-5.76-1.8,11.53,11.53,0,0,1-3.07.46,13.28,13.28,0,0,0-5.35,1,17.79,17.79,0,0,0-9.31,9.25,7,7,0,0,0-.36,5.1c.42,1.41,1,2.78,1.51,4.15a4.65,4.65,0,0,0,.79,1.19,16.18,16.18,0,0,0,5.64,4.33,14.88,14.88,0,0,0,8.4,1.75c.43-.05.85-.19,1.27-.24a10.27,10.27,0,0,0,7.74-4.73,19.25,19.25,0,0,0,1.44-2.78A13.12,13.12,0,0,0,134.6,43.73Z"/><path d="M110.56,38.52c1.29.1,2.59.25,3.88.3.91,0,1.82-.12,2.72-.12s1.56.13,2.34.11c1.47-.06,2.93-.19,4.4-.29,1.73-.11,3.46-.27,5.2-.34,1,0,1.19.22,1.25,1.23.07,1.21.14,2.42.22,3.63,0,.48-.14.77-.66.69-2.74-.42-5.35.38-8,.76a63.63,63.63,0,0,1-10.76.92c-1.49,0-1.73-.27-1.69-1.78,0-.69,0-1.38.05-2.08C109.54,40,109.53,40,110.56,38.52Z"/></svg>