<svg xmlns="http://www.w3.org/2000/svg" width="110.86mm" height="84mm" viewBox="0 0 314.25 238.11"><path d="M264.07,208.08l2.39,12.4-5.68,2.84-2.54-5.53-6.88,4.63-2.69-8.67-10-1,1.35-6.13-6.13-2.69S217,214.1,207.57,214.25s-25.43,0-25.43,0l-1.92,5.33-5.82-1.94-3.29,5.08-5.68-1.49-4.63,4.63-3.14-1.64c-3.44,6.42-12.71,7-12.71,7s-8.07-19.58-9.56-23c-6.13,2.25-18.83,1.8-26.31,1.2S76.5,189.69,76.5,189.69a62.13,62.13,0,0,0-4.78,11.81c10,4.78,16.44,16.29,16.59,17.49s-4.48,3.43-4.48,3.43l-1.2,6.13-5.08-.6-3.74,5.53-5.08-2.39a15.78,15.78,0,0,0-.3,4.93c-3-1-20-9.41-35.87-23C3.72,188.2,2.37,177,2.08,170.86s2.24-9.71,7.77-14.05c-8.67-10.91-7.48-18.23-7.48-32.58,0-19.13,7.24-59.63,19.28-70.84s48.86-27,81.76-27.2c16-19,26-23.46,34.37-24.21,4.77-.8,15.84,13,20,16.89s38.85,8.52,46.33,6.57S233.13,9.9,235.82,9s6.58.75,6.58.75l7.77,12.7a25.3,25.3,0,0,1-2.39,8.82c4,1.05,9.86,6.73,10,13.75S253.91,61.16,245.39,63C246.73,65.65,259,81,259,81S255.7,92.7,254.2,98.53a41,41,0,0,1,15.42,12.4c6.7-2.39,36.66-13.28,41.93,6.88,3.45,10.89-17.43,34.87-29.65,42.61C277,182.1,264.07,208.08,264.07,208.08Z" fill="#fff"/><path d="M239.21,150.8l6.93-1.16c-3.23,2.73-18,4.13-28,3-8.6-1-25.64-4.53-27.54-5.71l0-.6c2.33.3,4.69.5,7,.94,7.06,1.37,14.06,3.09,21.16,4.17A64.59,64.59,0,0,0,239.21,150.8ZM238.92,140c.22.2,1-.09,1.49-.32,1.18-.58,2.26-1.39,3.47-1.88s1.62-1.22.61-2.23c-3-3-6.61-3.24-10.38-.45C235.73,136.74,237.27,138.4,238.92,140Zm-134-87.55a13.36,13.36,0,0,1,1-7.67A27.21,27.21,0,0,1,110.58,38,24.25,24.25,0,0,1,116,33.45a16.16,16.16,0,0,1,5.59-2.23c2-.36,4-.46,5.89-1a23.62,23.62,0,0,1,5.06-.7,7.91,7.91,0,0,1,4.36,1.25,17,17,0,0,1,7.33,9.06,11,11,0,0,0,.67,1.38,9.46,9.46,0,0,1,1,4.36c.09,1.89.22,3.78.33,5.64a20.9,20.9,0,0,1-2.61,9.25,21.31,21.31,0,0,1-3.12,4.62,14.29,14.29,0,0,1-7,4.21,22.28,22.28,0,0,1-7.25,1.07,21.75,21.75,0,0,1-8.18-1.87,25.56,25.56,0,0,1-5.4-3A19.54,19.54,0,0,1,107,59.19a7.12,7.12,0,0,1-.41-1A40.47,40.47,0,0,1,104.87,52.4Zm3.9-2.27c-.07,2.09.81,3.94,1.38,5.86.84,2.79,3,4.54,5.15,6.25a24.79,24.79,0,0,0,3.17,1.85,16.84,16.84,0,0,0,7.91,2.2A17.31,17.31,0,0,0,133,65.15,11.61,11.61,0,0,0,138.5,61a20.13,20.13,0,0,0,3.05-6.24,12.82,12.82,0,0,0,.65-3.61c0-1.93-.25-3.87-.42-5.81a5.35,5.35,0,0,0-.29-1.65,40.65,40.65,0,0,0-2.55-5.22,9.66,9.66,0,0,0-4-4,6.11,6.11,0,0,0-4.79-.38,25.37,25.37,0,0,1-3.28.65l-.07-.38c-1.42.27-2.84.58-4.27.8a14.63,14.63,0,0,0-7.36,3.94,21.54,21.54,0,0,0-5,6.27A11.09,11.09,0,0,0,108.77,50.13ZM218,143.5c2.39-2.19,2-7.73-.57-9.61-1-.72-1.75-.38-2.29.65l-2.52,4.79c1.35,1.58,2.39,2.95,3.61,4.13A1.83,1.83,0,0,0,218,143.5Zm-39.78-12.11a6.59,6.59,0,0,0,1.45.46c.81.05,1.64,0,2.47-.07a18.47,18.47,0,0,0-.1-2.24,23.33,23.33,0,0,0-.72-2.73c-.4-1.25-3.2-3-4.42-2.3a4.39,4.39,0,0,0-2,3.13C174.92,129.59,176.34,130.85,178.26,131.39Zm-1.2,6.8a1.65,1.65,0,0,0-.32-.23,2.74,2.74,0,0,0-.62-.18c-3.5-.36-6.23-1.81-7.53-5.3-.4-1.07-.8-2.15-1.27-3.19a7.33,7.33,0,0,0-.87-1.22,8.47,8.47,0,0,0-.33,1.62c0,.49.37,1,.28,1.47-.82,4.24,2.58,7.78,6.13,8.6a10.63,10.63,0,0,1,4,2.27,13.12,13.12,0,0,0,6.68,2.71C180.87,142.85,177.15,142.46,177.06,138.19Zm59.07,21.27-11-1.37C227.23,160.77,232.47,161.27,236.13,159.46Zm-33.56-30.83c2.9.79,5.71-.84,8.3-2.07-1.34-3.32-3.91-4.27-6.73-4.5-2.52-.22-5.35-2.24-7.34.49C196.85,126.63,199.87,127.89,202.57,128.63Zm-3.91,53.66c3-.58,4.74-3.29,6.52-5.53-2.68-2.39-5.4-2.09-8-1-2.36.93-5.79.37-6.36,3.7C192.64,183,195.91,182.83,198.66,182.29Zm38.79-6.94c.8-1,1.41-2.25,2.27-3.23s.91-1.8-.44-2.27c-4-1.35-7.37,0-9.5,4.2,2.2.79,4.31,1.59,6.48,2.25C236.54,176.38,237.15,175.76,237.45,175.35Zm76.8-48.18a14.34,14.34,0,0,1-3.5,9.84c-1.73,2.05-3.61,4-5.33,6.05-2,2.43-4.23,4.55-7.38,5.5a2.87,2.87,0,0,0-2.26,3.28c.21,2-.72,3.17-2.42,4.19-2.93,1.77-5.83,3.58-8.77,5.33a27.21,27.21,0,0,1-.95,3.6c-.56,1.44-.4,3-.89,4.4-.76,2.24-1.49,4.49-2.38,6.67-1,2.53-2.22,5-3.34,7.49-1.58,3.52-3.18,7-4.73,10.57-.42,1-.64,2-1,3s-.89,1.84-1.3,2.77-.88,2.06-1.32,3.09c-.64,1.5-1.33,3-1.93,4.51a2.57,2.57,0,0,0-.11,1.45c.49,2,1,4.06,1.58,6.08.15.56.31,1.12.47,1.68.38,1.4.19,4.83-1.34,5.85s-2.73,2-4.54,2.31c-2.33.33-3.69-.34-4.57-2.54-.2-.49-.39-1-.63-1.6-.29.25-.52.47-.77.66a11.21,11.21,0,0,1-4.14,2.39,2.82,2.82,0,0,1-3-1.44,12.32,12.32,0,0,1-1.44-5.22,10.47,10.47,0,0,0-.17-1.26c-.33,0-.64,0-.94,0-2.12-.1-4.25-.17-6.36-.32a4,4,0,0,1-3.15-3.62c0-1.37.17-2.75.31-4.13a.81.81,0,0,0-.61-1l-2.37-.94a2.82,2.82,0,0,0-1.51,2.15c-.38,2-1.63,2.82-3.55,3.3-9.16,2.28-18.22,5-27.77,5.38-5.82.2-11.64.7-17.46.7l-.43,0c-.11.34-.21.68-.31,1-.72,2.55-2.72,3.46-5.12,2.36a29.26,29.26,0,0,0-2.87-1c-.92,1.84-1.74,3.78-4,4.21a8.08,8.08,0,0,1-5.59-.51c-1.23,1-2.34,2-3.53,3a3.77,3.77,0,0,1-3.58.59.78.78,0,0,0-1,.37,12.94,12.94,0,0,1-5.61,4.13,21,21,0,0,1-4.14,1.33c-1.85.35-4.89-.39-5.87-2.53s-2.32-4.22-3.24-6.43a39.11,39.11,0,0,1-1.4-5.1,22.09,22.09,0,0,0-3.1-7.55,4.9,4.9,0,0,1-.47-1c-1.57.21-3.09.39-4.59.63-.68.1-1.34.38-2,.5a27.5,27.5,0,0,1-3.7.54c-2.21.08-4.42,0-6.63,0a32.82,32.82,0,0,1-8.89-1.15,21.39,21.39,0,0,1-8.13-3.69c-3.13-2.47-6.65-4.32-10-6.52-1.74-1.16-3.43-2.41-5.19-3.55-2.3-1.48-4.63-2.89-7-4.33-.2-.12-.41-.22-.56-.3L74.41,200l5.49,4.39a48,48,0,0,1,4,3.25,55.9,55.9,0,0,1,4,4.57A13,13,0,0,1,89.67,215a10.3,10.3,0,0,1,.74,3c.22,2.18-1.57,4.14-3.3,4.82-.74.29-1,.54-1,1.4a10.69,10.69,0,0,1-1.14,4.4c-.61,1.24-1.33,1.89-2.68,1.78-.61-.05-1.22-.17-1.82-.28s-1-.21-1.5-.32a19.7,19.7,0,0,1-1,2.27,7.84,7.84,0,0,1-1.68,2.13c-1.1.87-2.38.55-3.59.08-.3-.12-.59-.28-1-.46a7.64,7.64,0,0,0,0,1.52,2.18,2.18,0,0,1-.7,2.23,2.13,2.13,0,0,1-2.44.24c-2.89-1.3-5.81-2.53-8.71-3.81-.53-.24-1.05-.53-1.56-.82-2.56-1.5-5.14-3-7.67-4.52-1.74-1.07-3.41-2.27-5.1-3.43-1.3-.89-2.6-1.81-3.88-2.75-1-.74-2-1.48-3-2.3q-2.25-1.91-4.42-3.92c-1.1-1-2.09-2.19-3.22-3.18-1.32-1.16-2.76-2.19-4.12-3.3-.9-.73-1.75-1.51-2.64-2.24-.63-.53-1.31-1-1.92-1.52-1-.88-1.95-1.8-2.92-2.71-.44-.42-.85-.88-1.3-1.3a62.58,62.58,0,0,1-6.54-7.54c-1-1.31-2.12-2.57-3.1-3.91-1.47-2-2.83-4.08-4.29-6.09a24.86,24.86,0,0,1-3.42-7.83,23.5,23.5,0,0,1-.68-8.31,17.91,17.91,0,0,1,2.77-8.85,23.19,23.19,0,0,1,3.4-3.39,5.57,5.57,0,0,1,.74-.47A43,43,0,0,1,2.34,148a12.74,12.74,0,0,1-1.19-4.49C.87,140.69.62,137.87.39,135a14.91,14.91,0,0,1,.08-1.76q0-.84,0-1.68c0-.31-.1-.62-.09-.92.09-2.21.21-4.42.29-6.64,0-.5-.17-1-.13-1.52.17-2.27.41-4.53.57-6.8.08-1.24,0-2.5.06-3.74.1-1.42.29-2.85.48-4.26s.49-3,.73-4.45c.3-1.87.55-3.74.91-5.59C3.83,94.9,4.47,92.13,5,89.36c.51-2.51,1.12-5,1.42-7.53A33.67,33.67,0,0,1,7.9,76c.94-3,2.14-5.91,3.23-8.86.48-1.3.86-2.63,1.43-3.89a27.94,27.94,0,0,1,2.49-4.91c1.58-2.25,2.6-4.9,4.68-6.81a31.26,31.26,0,0,1,5.68-4.29c1.42-.79,2.73-1.8,4.13-2.64,1.62-1,3.26-1.91,4.94-2.77,1.2-.61,2.49-1,3.73-1.58.28-.12.53-.3.81-.43a11.65,11.65,0,0,1,1.26-.54c.48-.17,1-.25,1.45-.44,1.63-.67,3.25-1.38,4.87-2.07,3.38-1.44,6.76-2.91,10.17-4.32a34.58,34.58,0,0,1,6.31-2.34c2-.41,4-1.26,6-1.78,1.63-.42,3.31-.64,5-1,.35-.06.7-.14,1-.23l5.76-1.4a2.11,2.11,0,0,1,.61-.06A21.54,21.54,0,0,0,87.54,25a17.45,17.45,0,0,1,2.28-.24c2.15-.12,4.3-.26,6.45-.3a39.57,39.57,0,0,1,5,.17,3.42,3.42,0,0,0,3.69-2,18.23,18.23,0,0,1,1.81-2.76c1.23-1.41,2.65-2.65,3.86-4.07a41.65,41.65,0,0,1,5.57-5.38c1.78-1.45,3.67-2.8,5.34-4.37a28.87,28.87,0,0,1,6.65-4.22A17.25,17.25,0,0,1,132.06.68a27.27,27.27,0,0,1,3.46-.62,17.55,17.55,0,0,1,2.9,0,25.13,25.13,0,0,1,3.34.39c1.94.37,3.38,1.7,4.85,2.86,2.15,1.7,4.22,3.51,6.2,5.39a12.66,12.66,0,0,1,2.23,3c1.59,2.82,4.16,4.56,6.75,6.25.76.5,1.87.46,2.66.93,1.82,1.07,3.85.88,5.78,1.22.83.15,1.66.34,2.48.53a32.81,32.81,0,0,0,8,1.06,28.63,28.63,0,0,1,4.55.64c1.26.19,2.51.41,3.78.53q4.42.43,8.86.76a9.56,9.56,0,0,0,1.76-.14c1.54-.15,3.1-.23,4.63-.49a12.44,12.44,0,0,0,2.52-.9,25.8,25.8,0,0,0,2.75-1.17c1.3-.71,2.55-1.52,3.8-2.31,3.91-2.44,7.78-4.92,11.72-7.31,1.17-.71,2.51-1.15,3.75-1.76,1.79-.89,3.6-1.74,5.31-2.76A4.89,4.89,0,0,1,238,6.34a3.69,3.69,0,0,0,1.05,0c2.18-.06,4.4-.14,5.93,1.79a26.12,26.12,0,0,1,1.64,2.94c.75,1.27,1.58,2.49,2.32,3.77.86,1.51,1.64,3.06,2.46,4.59a22.27,22.27,0,0,1,1.1,2.11,2.53,2.53,0,0,1,.16,1.38c-.27,1.37-.66,2.72-1,4.09-.08.33.1.73,0,1.05a20.34,20.34,0,0,1-.82,1.88,21.27,21.27,0,0,0,3.11,1.8,4.48,4.48,0,0,1,2,1.88,24.63,24.63,0,0,1,3.3,8,21,21,0,0,1,.28,3.74,21.1,21.1,0,0,1-1.28,8.46,24.5,24.5,0,0,1-2.78,5.53,9.21,9.21,0,0,1-4.34,3c-.85.36-1.71.69-2.73,1.1.4.59.78,1.23,1.22,1.82,1.63,2.21,3.21,4.45,5,6.57s3.45,3.84,5.19,5.75c.36.4.79.74,1.14,1.15a2.59,2.59,0,0,1,.58,2.3,34.06,34.06,0,0,1-1.79,6.15c-.94,2.31-1.63,4.73-2.42,7.11-.06.16-.12.34-.19.5-.48,1-.4,1.37.6,2s2.12,1.16,3.08,1.87c1.3,1,2.49,2,3.73,3.08a29.41,29.41,0,0,1,2.75,2.33,53.61,53.61,0,0,1,3.45,4.21c.55.74,1.08,1.5,1.61,2.27l0,0,.27.38a.2.2,0,0,1-.08,0,1.94,1.94,0,0,1-.91,1.86,33.37,33.37,0,0,1-4.52,2.48c-5.52,3.1-10.85,6.6-16.6,9.2-1,.44-1.86.91-2.73,1.41a50.79,50.79,0,0,1,5.89,4.18,6.48,6.48,0,0,1,5.94,0,33.79,33.79,0,0,1-1.79,4.22,17.38,17.38,0,0,1,3.86,6.14c.76,2.26,1.12,4.48.32,6.56a45.53,45.53,0,0,1-4.23,8.21,51,51,0,0,1-5.17,6.4c-.23.25-.47.48-.7.71H252l-.18.12c-.2.19-.4.37-.61.54a17,17,0,0,1,5.76,3.61c.32.32.62.65.91,1,4.1-1.68,8.19-3.37,12.27-5.1.69-.29,1.65-.88,1.74-1.44.36-2.24,2.17-2.42,3.61-2.39,4.58.1,7.87-2.18,10.84-5.24,2.56-2.64,5-5.44,7.68-7.92,1.4-1.3,3.58-1.79,4.89-3.15a74.34,74.34,0,0,0,5.38-7c-2.38-1.86-2.41-2.11-.51-4.48.09-.12.21-.2.3-.31a22.38,22.38,0,0,0,5.2-10.89c.26-1.67.54-3.48-.89-5.2-.47,2.07.29,4.17-2,5.8-.28-1.44-.53-2.47-.67-3.52-.5-3.76-.48-3.76-4.36-3.85.11-1.1.21-2.18.34-3.56-3.5-2.36-7.53-2.12-11.57-1.34-4.78.91-9.52,2-14.31,2.88-.79.14-1.76-.81-2.65-1.26a26.51,26.51,0,0,1,1.37-2.37l10.14-2.57c3.29-.51,6.61-1.39,9.89-1.26,3.91.15,7.94,0,11.67,2,2.11,1.12,3.9,2.48,4.75,4.54a46.27,46.27,0,0,1,2.56,8.88A51,51,0,0,1,314.25,127.17Zm-59-26.73c-.46,1.08-.89,2.14-1.35,3.18-1.19,2.67-2.35,5.34-3.58,8-1.08,2.32-2.24,4.6-3.35,6.9-.54,1.13-1.06,2.27-1.59,3.4l1.47-1,8.7-4.75a49.4,49.4,0,0,1,8.89-4.64,18.62,18.62,0,0,1,2.7-.91l-.7-1a11.68,11.68,0,0,0-2-2.23c-1.53-1.36-3.19-2.57-4.7-3.95A17.28,17.28,0,0,0,255.23,100.44Zm-6.94-66.76a32.18,32.18,0,0,1-3.13-.9c-.53-.21-.89-.85-1.41-1.09a4.94,4.94,0,0,0-4.38-.32,8.64,8.64,0,0,0-3.51,3.24,28.43,28.43,0,0,0-3.5,6.63c-.62,1.92-1.44,3.8-1.28,5.89.1,1.35.3,2.7.28,4a5.74,5.74,0,0,0,1.47,4,13.71,13.71,0,0,0,5.22,4.16,10.81,10.81,0,0,0,6.13.88,19.34,19.34,0,0,0,5.55-1.67c1.3-.67,2.59-1.33,3.17-2.85.4-1.07,1.06-2,1.43-3.13a32.39,32.39,0,0,0,.82-3.26c-1.14,0-2.17,0-3.19,0-2.35.12-4.7.31-7.06.44-1.67.09-3.34.08-5,.17-.94,0-1.88.28-2.82.27s-1.87,0-2.08-1.09a22.27,22.27,0,0,1-.21-3.37c0-.84,0-1.68,0-2.52s.35-1.78,1.15-1.79c1.23,0,2.46.11,3.69.14,1.57,0,3.13,0,4.69.06.46,0,.92,0,1.38,0a19.49,19.49,0,0,0,3.13.16,14.71,14.71,0,0,1,5,.11A5.91,5.91,0,0,0,255,42v-.27c-.38-1.15-.7-2.2-1.08-3.22-.81-2.12-2.66-3.23-4.44-4.37A4.49,4.49,0,0,0,248.29,33.68ZM172.46,216.53l-11.41-5.19c0-1.21-1.69-2.41-2.6-3.65-2.88-3.9-4.12-6.73-.61-10.9a2.57,2.57,0,0,0,.4-1.63c-.2-4.43,1.9-7.6,5.31-10.15.69-.53,1.6-1.51,1.53-2.2-.31-3,1.39-4.35,3.77-5.37,2.9-1.24,5.47-3.38,9-3,.5.05,1.32-.64,1.63-1.19a16.33,16.33,0,0,1,7.13-6.51l4.94-1.46c-1.14.13-2.29.24-3.43.39-.84.11-1.66.31-2.49.45a35.75,35.75,0,0,0-4.16.7,24.22,24.22,0,0,1-7,1c-2.2,0-4.39-.27-6.58-.45-1.43-.12-2.85-.28-4.27-.46s-2.67-.42-4-.6a43.12,43.12,0,0,1-8-1.61c-2.88-.93-5.71-2-8.62-2.79a43.87,43.87,0,0,1-10.61-3.9c-3.44-1.93-6.88-3.83-10.3-5.77a59.55,59.55,0,0,1-7.8-5.17c-2-1.59-4.14-3.1-6.16-4.7a25.47,25.47,0,0,1-3.31-3c-2.3-2.63-4.52-5.34-6.71-8.07-1.33-1.66-2.58-3.38-3.76-5.14-.89-1.31-1.48-2.83-2.44-4.07-1.73-2.25-2.73-4.87-4-7.34a2,2,0,0,1,1.79-2.89c1.09-.08,1.88.57,2.47,1.84a48.71,48.71,0,0,0,2.26,4.44c1.5,2.53,3,5,4.68,7.48,1.2,1.77,2.56,3.44,3.9,5.11,1.14,1.42,2.44,2.71,3.51,4.17a24.69,24.69,0,0,0,4.41,4.26c1.32,1.09,2.74,2.07,4.08,3.14a64.19,64.19,0,0,0,8.64,6l4.82,2.69c2.3,1.3,4.52,2.76,6.89,3.89a38.34,38.34,0,0,0,7.8,2.72c2.75.66,5.42,1.67,8.13,2.52,1.44.45,2.86,1,4.32,1.3s2.77.48,4.16.68c1.62.24,3.24.46,4.86.67,1.95.25,3.9.52,5.85.73a27.84,27.84,0,0,0,4,.24,26.59,26.59,0,0,0,6.19-1,32.14,32.14,0,0,1,4.15-.72c2-.3,4.06-.51,6.07-.86l.13,0-.56-.24c-5.31-2.4-10.75-4.54-16-7.13-2.08-1-3.77-2.87-5.54-4.44-1.35-1.2-2.68-2-4.49-1.06l-6.55-8q-2.9-1.59-5.8-3.17a28.65,28.65,0,0,1-6-4.16,56.17,56.17,0,0,0-5.09-4.44,77.6,77.6,0,0,1-8.69-7.81c-1.81-1.82-3.7-3.56-5.41-5.46a51.94,51.94,0,0,1-3.75-4.86q-2.1-3-4-6.07a35.91,35.91,0,0,1-4.09-8.4c-.94-3-1.95-6.08-2.93-9.12a2.36,2.36,0,0,1,.85-3,2.74,2.74,0,0,1,3.18.57,9.31,9.31,0,0,0,3.78,2.08c1.45.5,2.85,1.13,4.3,1.59,1.29.41,2.61.71,3.93,1,3.23.71,6.49,1.27,9.68,2.11a32,32,0,0,0,7.58,1,21.92,21.92,0,0,1,3.54.63c2.11.39,4.21.82,6.33,1.15,2.53.41,5.05.88,7.59,1.06s5.17.05,7.75.06c1.8,0,3.61.09,5.4,0a48.92,48.92,0,0,0,5.77-.73c2.59-.48,5.15-1.14,7.73-1.66.9-.18,1.85-.08,2.74-.29,1.29-.3,2.54-.77,3.81-1.16l6.67-2.05c2.2-.69,4.38-1.47,6.6-2,2-.5,4-.76,5.94-1.15.85-.17,1.67-.44,2.52-.61,1.93-.38,3.87-.73,5.8-1.08.93-.17,1.86-.37,2.8-.46,1.89-.19,3.79-.22,5.65-.5s3.91-.79,5.85-1.22c3-.66,6-1.31,9-2a28.36,28.36,0,0,0,3.34-1.1,2.64,2.64,0,0,1,2.85.46c.59.67.49,1.64-.08,2.71-.39.73-.54,1.59-.88,2.35-.7,1.56-1.45,3.1-2.18,4.64-1,2.1-1.95,4.23-3,6.29s-2.35,4.2-3.61,6.24c-1,1.56-2,3.06-3.11,4.56s-2.36,3.22-3.5,4.86c-.74,1.07-1.38,2.21-2.12,3.28-1,1.42-1.88,2.86-2.87,4.25a14.78,14.78,0,0,1,1.2,1c1.43,1.37.61,2.87-1.38,2.69a31.08,31.08,0,0,1-5-1.3c-6.14-1.54-12.42-2.66-18.38-4.71a31.51,31.51,0,0,0-4.39-1.18c-1.94-.16-3.86-.27-5.74-.34a19.59,19.59,0,0,0-7.89,2.43,3.14,3.14,0,0,1-2.66.09,10.88,10.88,0,0,0-8.58-1.09c-.72.18-1.69.4-2,.93-1.49,2.31-3.71,3.15-6.23,3.54a7.4,7.4,0,0,0-5.4,3.29,5.82,5.82,0,0,1-2.09,1.85c-3.32,1.81-3.91,2.75-3.39,6.38a21,21,0,0,0,1,4.45c1.41,3.77,4,7,7.61,8.29a37.48,37.48,0,0,1,7.52,4.15,20.17,20.17,0,0,0,3.49,1.79q8.44,3.3,16.94,6.46c.7.26,1.8.5,2.26.15,1.79-1.37,3.24-.27,4.26.75,3.26,3.21,7.22,3.82,11.48,3.63,3.67-.16,7.35-.53,11-.48,1.91,0,3.83,1.17,5.71,1.07a74.84,74.84,0,0,0,8.75-1.42c-.45-3-.3-3.19,2.71-3.61.14,0,.29,0,.44,0A22.38,22.38,0,0,0,254.14,153c1.33-1,2.78-2.16,2.93-4.39-1.77,1.19-2.66,3.24-5.42,2.87.79-1.24,1.31-2.16,1.93-3,2.22-3.08,2.23-3.07-.53-5.79l2.7-2.36c-.93-4.11-4-6.71-7.49-8.93-4.1-2.61-8.33-5-12.38-7.72-.67-.45-.72-1.81-1.06-2.74a27.17,27.17,0,0,1,2.62-.79l3.2,1.79c1.24-2.52,2.41-5.07,3.63-7.6.61-1.27,1.28-2.51,1.86-3.79q1.94-4.3,3.8-8.63c.73-1.69,1.48-3.38,2.1-5.11q1.92-5.3,3.69-10.66c.51-1.54.89-3.14,1.26-4.73a1.11,1.11,0,0,0-.3-.9c-.69-.72-1.53-1.31-2.16-2.07-2-2.43-3.94-4.91-5.88-7.39-1.11-1.4-1.9-3-3.37-4.16a1.19,1.19,0,0,1-.31-.52c-.26-.63-.51-1.27-.71-1.8a27.19,27.19,0,0,0-3.3-.38c-2.79,0-5-1.36-7.43-2.47a1.65,1.65,0,0,1-.41-.34c-1.07-1.07-2.2-2.08-3.19-3.22a19.13,19.13,0,0,1-2.17-3.12c-1-1.8-.65-3.86-.8-5.81a16.89,16.89,0,0,1,.77-7.52c.23-.59.45-1.19.69-1.78a42.77,42.77,0,0,1,2-4.65,21.48,21.48,0,0,1,4.6-6,8.89,8.89,0,0,1,8.49-2.05c1.13.3,2.23.7,3.49,1.1.36-1.49.74-2.92,1.05-4.35a2.49,2.49,0,0,0,0-1.48c-.85-1.73-1.39-3.6-2.61-5.18a33.72,33.72,0,0,1-3.55-6.17,1.44,1.44,0,0,0-1-.61c-1.25-.12-2.5-.15-3.76-.16a2.62,2.62,0,0,0-1.17.25c-1.79.88-3.55,1.83-5.34,2.71-.91.45-1.92.72-2.8,1.23-2.69,1.53-5.35,3.12-8,4.7-.4.23-.79.48-1.17.73-1.69,1.16-3.32,2.41-5.08,3.46-1.35.81-2.89,1.3-4.29,2a20.8,20.8,0,0,1-9.95,2.13,27,27,0,0,1-5.66-.4,40,40,0,0,0-5.27-.37,31.29,31.29,0,0,1-3.36-.3,41.26,41.26,0,0,0-8.07-.94,8.65,8.65,0,0,1-1.67-.2c-1.93-.38-3.84-.84-5.78-1.19-1.4-.25-2.88-.21-4.24-.58a30.18,30.18,0,0,1-5.37-2A18.47,18.47,0,0,1,156.07,19a21.84,21.84,0,0,1-3.73-3.84A22.8,22.8,0,0,0,146.82,9c-.37-.26-.69-.6-1-.89-1.31-1-2.6-2.07-3.93-3.07a2.85,2.85,0,0,0-1.19-.65A17.42,17.42,0,0,0,130.06,5.6a11.5,11.5,0,0,0-1.69.91,35,35,0,0,0-3.53,2.15c-1.5,1.15-2.87,2.47-4.31,3.7-1.77,1.52-3.6,3-5.32,4.54-1.17,1.07-2.15,2.35-3.32,3.42a26.11,26.11,0,0,0-4.17,5.48,27.83,27.83,0,0,0-2.23,4.43c-1.08,2.6-2.08,5.23-3,7.87a45,45,0,0,0-2,10.84c-.19,2-.21,4-.33,6a1.87,1.87,0,0,1-1.63,1.85,2,2,0,0,1-2-1.53,8.54,8.54,0,0,1-.24-2.13c.16-2.57.35-5.14.61-7.71a34.09,34.09,0,0,1,1.42-7.82c.65-1.88,1.38-3.74,2.07-5.61.4-1.09.8-2.19,1.22-3.32-1.73-.08-3.36-.23-5-.21-1.94,0-3.89.16-5.83.3-1.29.1-2.58.27-3.86.44a24.22,24.22,0,0,1-2.88.45A40.26,40.26,0,0,0,77,30.81c-1,.18-2,.34-3,.55s-2.08.46-3.11.74-2,.64-3.08.94c-2.1.62-4.23,1.15-6.31,1.85-1.57.52-3.06,1.27-4.6,1.89-2,.79-4,1.52-5.91,2.33-2.62,1.09-5.22,2.22-7.82,3.35-3.13,1.37-6.41,2.41-9.38,4.16-.94.56-1.91,1.08-2.83,1.67s-2,1.51-3.09,2.13a23.27,23.27,0,0,0-5.27,4.07,25.78,25.78,0,0,0-2.36,3.19,45,45,0,0,0-5.9,12.16c-.27.79-.64,1.55-.91,2.34-.68,2-1.4,4-2,6a62.83,62.83,0,0,0-1.39,6.19c-.36,2.2-1.24,4.32-.91,6.62a1.21,1.21,0,0,1-.17.74,4.61,4.61,0,0,0-.46,2.73,2,2,0,0,1-.29,1.31,4.13,4.13,0,0,0-1,2.49c-.2,1.15-.48,2.3-.65,3.47-.22,1.54-.32,3.1-.57,4.63a34.62,34.62,0,0,0-.83,7.85,5.34,5.34,0,0,1-.05.69c-.19,1.93-.47,3.86-.54,5.8-.1,2.6,0,5.22,0,7.83,0,.76-.14,1.53-.14,2.29,0,1.65.07,3.3.09,4.95,0,.68-.07,1.37,0,2.06.1,1.45.23,2.9.39,4.34a10,10,0,0,0,.82,4c.92,1.62,1.78,3.28,2.76,4.86a29.25,29.25,0,0,0,1.93,2.47c2-.67,3.74-1.33,5.53-1.85a11.37,11.37,0,0,1,2.79-.38,1.72,1.72,0,0,1,1.78,1.31,1.79,1.79,0,0,1-.65,2.12,6.41,6.41,0,0,1-1.61.69c-1.67.54-3.39.94-5,1.58-1.23.48-2.34,1.27-3.53,1.86-2.94,1.45-4.3,4-5.15,7a23.13,23.13,0,0,0-.43,6,18.09,18.09,0,0,0,1.77,7.48A33.92,33.92,0,0,0,10,186c1,1.4,2,2.89,3,4.24,1.92,2.4,3.85,4.79,5.91,7.07,1.68,1.86,3.49,3.61,5.33,5.31,1.33,1.22,2.82,2.28,4.22,3.42.83.68,1.64,1.39,2.46,2.09a59.32,59.32,0,0,1,4.65,4,67.6,67.6,0,0,0,8,6.91c1.22.92,2.55,1.71,3.74,2.68a48.4,48.4,0,0,0,7.11,4.5c1.54.86,3.12,1.67,4.59,2.63a26.32,26.32,0,0,0,6.4,3.27c.56.17,1.09.43,1.65.66a25.31,25.31,0,0,1-.46-3c0-1.19,1.11-2.31,2.09-2a11.63,11.63,0,0,1,2.51,1.09c.9.51,1.72,1.16,2.75,1.87.34-1,.91-1.81.83-2.57a2.33,2.33,0,0,1,2.86-2.72c1.28.25,2.55.53,4,.83a26.92,26.92,0,0,0,.17-3.45,2.36,2.36,0,0,1,1.09-2.5c1-.64,2.06-1.28,3.12-1.86.38-.2.34-.37.25-.72-.53-1.9-1.86-3.3-3-4.74a50.3,50.3,0,0,0-8-7.08,16.33,16.33,0,0,0-3.77-2.47c-1.55-.61-2.38-1.81-1.57-3.65.68-1.54,1.41-3.07,2.07-4.62.58-1.36,1.14-2.73,1.65-4.12.37-1,.64-2,1-3,.42-1.29,1-2.55,1.26-3.86.49-2.25.86-4.52,1.22-6.8.28-1.74.53-3.49.64-5.24a27.72,27.72,0,0,0-.27-3c-.13-2.71-.13-5.43-.35-8.13a31,31,0,0,0-.9-5.59c-.75-2.81-1.7-5.58-2.62-8.35a17.43,17.43,0,0,0-1.21-3.68,1.89,1.89,0,0,1,.3-2.1,2.09,2.09,0,0,1,2-.84,1.67,1.67,0,0,1,1.55,1.1c.44,1.24.8,2.5,1.19,3.75.13.41.21.84.35,1.26.89,2.77,1.8,5.54,2.69,8.31a3.86,3.86,0,0,1,.11.68c.29,1.87.6,3.74.84,5.61a31.4,31.4,0,0,1,.21,3.36c0,1.09-.06,2.18,0,3.27s.13,2.24.22,3.36c.29,3.71-.62,7.29-1.2,10.89-.32,2-1,3.92-1.43,5.89a.86.86,0,0,0,.27.72c.37.29.85.46,1.26.72,1.75,1.1,3.48,2.24,5.22,3.34,1.58,1,3.21,1.92,4.76,3a64.51,64.51,0,0,0,6.17,4,32.32,32.32,0,0,1,3.77,2.49,27.88,27.88,0,0,0,2.86,2.06,25.37,25.37,0,0,0,7.87,2.94,38.49,38.49,0,0,0,4.4.62c2.76.1,5.52,0,8.28,0a5.62,5.62,0,0,0,.92-.09l7.15-1.37L129.46,200c-1.08-2.57-2.12-5.15-3.24-7.7s-2.08-4.9-3.33-7.24c-1.76-3.3-3.74-6.48-5.54-9.75a4.83,4.83,0,0,1-.5-2.26,2,2,0,0,1,1.62-1.81,2,2,0,0,1,2,1.08c.57,1,1.14,1.93,1.72,2.88.88,1.44,1.82,2.85,2.64,4.32.91,1.63,1.81,3.28,2.56,5,1.89,4.25,3.7,8.54,5.53,12.81.83,1.92,1.61,3.86,2.49,5.76.4.88,1,1.66,1.46,2.52.53,1,.92,2.12,1.51,3.1a22.64,22.64,0,0,1,2.72,5.65c.35,1.25.7,2.51,1,3.76a33.74,33.74,0,0,0,1.17,4.28c.79,1.85,1.82,3.61,2.78,5.38a1.54,1.54,0,0,0,2.09.86c1-.29,2-.65,3-1a6.73,6.73,0,0,0,4.52-4.72,2.07,2.07,0,0,1,3.06-1.41,12.37,12.37,0,0,1,1.37,1.07c.19.13.6.28.67.2a35.72,35.72,0,0,0,2.94-3.22,2.1,2.1,0,0,1,2.69-.86,10.58,10.58,0,0,0,1.32.63,22.09,22.09,0,0,0,2.65.61.83.83,0,0,0,.68-.34,14.54,14.54,0,0,0,1.3-2.66A3.7,3.7,0,0,1,172.46,216.53Zm73.88-21.73c-1.73-2.48-1.68-2.72.83-4.43.12-.08.26-.13.38-.21a22.38,22.38,0,0,0,8.16-8.89c.73-1.52,1.53-3.17.67-5.23-1.06,1.84-.95,4.07-3.58,5,.15-1.46.21-2.52.39-3.56.62-3.74.64-3.74-3.05-5,.43-1,.84-2,1.38-3.31a11.23,11.23,0,0,0-4.82-3.4,15.19,15.19,0,0,1-3.34.77c-2.67.3-5.36.42-8,.73-3.15.38-6.21.41-9.14-1.07a2.88,2.88,0,0,0-3.9.84c-1.21,1.59-2.71,1.8-4.64,1.38-2.84-.63-5.69-1.21-8.54-1.83a106.89,106.89,0,0,1-11,2.17c-6.61.85-11.91,3.3-15.74,8.82a3.13,3.13,0,0,1-2.35,1.26,10.88,10.88,0,0,0-8.17,2.84c-.57.48-1.33,1.1-1.4,1.73-.31,2.73-1.94,4.47-4,5.94a7.38,7.38,0,0,0-3.37,5.34,5.93,5.93,0,0,1-1.05,2.59c-2.18,3.1-2.29,4.19-.21,7.21a21.14,21.14,0,0,0,2.89,3.55c2.94,2.74,6.71,4.44,10.5,4a37.6,37.6,0,0,1,8.58.38,19,19,0,0,0,3.92.06q9-.79,18.06-1.74c.73-.07,1.83-.35,2.08-.86,1-2,2.78-1.68,4.15-1.23,4.35,1.44,8.16.22,11.9-1.84,3.22-1.77,6.35-3.74,9.66-5.32,1.72-.83,4-.66,5.59-1.58A74,74,0,0,0,246.34,194.8Zm33-30.47a72.72,72.72,0,0,1-11,5c-2.75.95-5.48,2-8.21,2.95,0,.08,0,.16,0,.25a46,46,0,0,1-.15,9.24,51.83,51.83,0,0,1-1.79,8,14.38,14.38,0,0,1-6.22,8.39c-2.26,1.45-4.62,2.75-6.88,4.22a24.53,24.53,0,0,1-3.34,1.88,2.12,2.12,0,0,1,.95,2.62c-.41,1.43-.74,2.89-1.1,4.36l1.58.17a12.66,12.66,0,0,0,4.94-.11c1.88-.51,3.18-.08,3.67,1.94.39,1.61.54,3.27.8,4.91,0,.26.1.51.16.83.42-.35.75-.62,1.1-.89.91-.7,1.84-1.38,2.73-2.1a2.8,2.8,0,0,1,2.72-.85,2.48,2.48,0,0,1,1.69,2.2,7.59,7.59,0,0,0,1.56,3.15l1-.61a1.5,1.5,0,0,0,.76-1.85c-.79-3.08-1.46-6.18-2.2-9.27a3.47,3.47,0,0,1,.21-2.31c1.08-2.51,2.11-5,3.16-7.56.12-.28.26-.55.4-.83.62-1.22,1.31-2.42,1.85-3.68.74-1.74,1.33-3.54,2.07-5.28.92-2.17,1.94-4.29,2.89-6.44s1.81-4.12,2.71-6.19c.72-1.66,1.48-3.31,2.12-5A27.64,27.64,0,0,0,279,166,15.44,15.44,0,0,1,279.38,164.33Zm10.74-44.86c.45-1.23.69-2.56,1.23-3.75s.34-2-1.09-2c-4.21-.13-7,2.19-7.85,6.8,2.33.1,4.59.25,6.85.25C289.56,120.72,290,120,290.12,119.47Zm-31.57,39,.38.48c2.19-.46,17-9.6,23.93-14.77,8.05-6,17.83-17.18,18.3-21.38l-4.24,5.61a64.85,64.85,0,0,1-14.39,14.44c-5.9,4.09-12.18,7.64-18.25,11.5C262.3,155.62,260.46,157.1,258.55,158.48Zm42.08-21.66-8.93,6.55C295.06,143.89,299.21,140.65,300.63,136.82Zm-31.12-5.76c-1.24.16-1.54.92-1.22,2l1.45,5.22c2.07.22,3.76.5,5.46.52a1.82,1.82,0,0,0,1.32-1.19C276.76,134.42,272.68,130.65,269.51,131.06ZM242.42,195,232,198.67C235,200.14,239.94,198.26,242.42,195Zm-23.3-6.26c1.18-3-1.62-7.82-4.77-8.35-1.23-.21-1.74.42-1.77,1.58,0,2-.09,3.9-.13,5.42,1.91.82,3.45,1.58,5.07,2.1A1.79,1.79,0,0,0,219.12,188.75Zm-41,6.81a6,6,0,0,0,1.49-.23,21.9,21.9,0,0,0,2.19-1.16,16.94,16.94,0,0,0-1.09-2,22.16,22.16,0,0,0-1.86-2.13c-.9-.94-4.18-1.24-5-.1a4.39,4.39,0,0,0-.37,3.67C174.31,195.43,176.14,195.93,178.11,195.56ZM247,181.77l-5.7,4.12a64.67,64.67,0,0,1-18,9.6c-6.85,2.18-13.89,3.74-20.82,5.66-2.26.62-4.46,1.5-6.69,2.26.08.19.15.38.22.57,2.23.2,19.07-4.21,27.21-7.12C232.73,193.47,245.35,185.65,247,181.77Zm-67,20.42a1.51,1.51,0,0,0-.39-.07,2.68,2.68,0,0,0-.64.12c-3.3,1.23-6.38,1.14-9.1-1.41-.83-.78-1.67-1.57-2.55-2.3a7.3,7.3,0,0,0-1.33-.7,9.18,9.18,0,0,0,.43,1.6c.21.44.78.75.9,1.19,1.15,4.16,5.77,5.83,9.31,5a10.74,10.74,0,0,1,4.56.28,13,13,0,0,0,7.19-.54C185.53,204.67,182,206,180.05,202.19ZM114.11,54.56a70.54,70.54,0,0,0,10.06-.66c2-.3,4-.59,6-1,.37,0,.73-.12,1.09-.18a19.37,19.37,0,0,1,5.21-.15c1.21.11,1.91-.39,1.83-1.61-.11-1.64-.21-3.27-.31-4.91a1.61,1.61,0,0,0-1.7-1.61c-1.34,0-2.67.08-4,.15-1,.06-2,.21-3,.25-1.73.08-3.43.6-5.21.24a12.42,12.42,0,0,0-2.66,0c-1,0-1.9.16-2.84.12s-2.08-.25-3.12-.38l0,.11a8.79,8.79,0,0,0-1.54,0,2.27,2.27,0,0,0-1.21.54,4.53,4.53,0,0,0-.82,1.36,2.27,2.27,0,0,0-.16.94c0,1.23,0,2.46,0,3.68C111.6,53.26,111.84,54.58,114.11,54.56Z"/></svg>