<svg xmlns="http://www.w3.org/2000/svg" width="100mm" height="100mm" viewBox="0 0 283.46 283.46"><path d="M135.86,22.84a17.4,17.4,0,0,0-1.81.09,31,31,0,0,0-4,.7l-.67.16a16.61,16.61,0,0,0-4.24,1.4l-.4.21a30.12,30.12,0,0,0-7.12,4.66c-.92.85-2,1.68-3.09,2.55-.56.44-1.15.89-1.73,1.37a45,45,0,0,0-6,5.81c-.46.54-1,1.11-1.61,1.7s-1.35,1.36-2,2.16a17.67,17.67,0,0,0-1.81,2.58c-.88-.07-1.83-.1-2.9-.1l-1.36,0c-1.82,0-3.61.13-5.34.23l-1,0a22.18,22.18,0,0,0-2.88.32l-.85.17a17.5,17.5,0,0,1-3,.43l-.42,0c-.2,0-.41,0-.62,0a7.13,7.13,0,0,0-1.7.21l-3.53.86-2,.48c-.24,0-.5.12-.74.16-.45.09-.92.17-1.41.25-1.17.2-2.38.41-3.66.74-1,.26-1.91.56-2.8.86a26,26,0,0,1-2.63.77,27.78,27.78,0,0,0-5.69,2l-1.31.57c-2.36,1-4.72,2-7,3l-2.75,1.18L46.21,59l-3,1.27-.17,0c-.27.07-.64.17-1.06.31a17.22,17.22,0,0,0-1.63.7l-.06,0c-.32.15-.57.3-.75.4l-.95.38c-.85.34-1.81.72-2.79,1.22-1.5.76-3.1,1.66-5,2.82-.71.43-1.36.86-2,1.28s-1.26.85-1.82,1.17a33.85,33.85,0,0,0-6.41,4.81,21.42,21.42,0,0,0-4,5.41c-.42.71-.81,1.39-1.2,1.94a27.51,27.51,0,0,0-2.57,4.88l-.31.7c-.45,1-.8,2-1.1,2.9-.14.4-.27.78-.4,1.14-.3.83-.63,1.69-.95,2.52-.76,2-1.54,4-2.21,6.18a36.89,36.89,0,0,0-1.58,6.54c-.19,1.59-.54,3.23-.91,5-.13.58-.25,1.18-.38,1.78-.22,1.11-.47,2.24-.7,3.34-.33,1.51-.67,3.08-1,4.65-.25,1.3-.45,2.58-.63,3.82-.09.58-.18,1.13-.26,1.68l-.24,1.39c-.16,1-.33,2-.47,3-.23,1.62-.4,3-.5,4.44-.06.8,0,1.54,0,2.2,0,.5,0,1,0,1.38-.08,1.12-.18,2.23-.29,3.41-.08,1-.18,2-.25,3a8.5,8.5,0,0,0,.1,1.92c0,1.12-.1,2.26-.15,3.37,0,.87-.08,1.78-.12,2.68A8.15,8.15,0,0,0,.45,154q0,.58,0,1.14c0,.05,0,.21,0,.32a10.68,10.68,0,0,0,0,1.93c.24,3,.49,5.7.73,8.19a17.31,17.31,0,0,0,1.68,6.15c.65,1.29,1.35,2.63,2.14,4a13.54,13.54,0,0,0-1.3,1.62,22,22,0,0,0-3.54,11A27.13,27.13,0,0,0,1,198.21,28.77,28.77,0,0,0,5,207.3c.64.88,1.26,1.77,1.92,2.72s1.43,2.06,2.19,3.1c.64.88,1.3,1.69,1.94,2.47.39.48.76.93,1.11,1.38l.06.08A63.33,63.33,0,0,0,19,224.8c.12.11.28.28.45.45s.47.48.76.75l.33.32c.83.78,1.68,1.59,2.58,2.39.48.42.94.77,1.35,1.08l.61.47,1.05.9c.48.42,1,.84,1.5,1.27s1.08.86,1.6,1.26c.78.61,1.52,1.18,2.18,1.77.44.38.9.86,1.4,1.37s1,1,1.56,1.56c1.39,1.29,2.87,2.6,4.4,3.9,1,.87,2.07,1.65,3.14,2.43s2.47,1.78,3.83,2.71l1,.7c1.31.9,2.65,1.84,4.09,2.72,1.87,1.15,3.76,2.25,5.6,3.31l1.83,1.07a22.22,22.22,0,0,0,2,1l3.23,1.41c1.66.72,3.38,1.46,5,2.21a7.92,7.92,0,0,0,3.26.73,7.39,7.39,0,0,0,6.07-3.29,7.74,7.74,0,0,0,3.47-1.55,11,11,0,0,0,2.25-2.49h.48a7.65,7.65,0,0,0,7.06-4.69,15.76,15.76,0,0,0,1.37-4.07,9.82,9.82,0,0,0,4.37-9,14.57,14.57,0,0,0-1.14-4.5,17.46,17.46,0,0,0-2.45-3.87l-.66-.81a53.24,53.24,0,0,1,5.19,3.48,25.43,25.43,0,0,0,9.75,4.51,37.26,37.26,0,0,0,9.26,1.26h4.79c.87,0,1.59,0,2.27,0a24.21,24.21,0,0,0,3.64-.48l.62-.11a13.75,13.75,0,0,0,1.48-.37l.37-.1.6-.09a26.87,26.87,0,0,1,1.18,3.72c.11.41.21.87.32,1.35a26,26,0,0,0,1.25,4.21c.59,1.4,1.26,2.65,1.91,3.86.46.85.9,1.66,1.25,2.44,1.9,4.12,6.33,5.59,9.54,5.59a9.72,9.72,0,0,0,1.9-.18,24.56,24.56,0,0,0,5-1.58,18.72,18.72,0,0,0,5.81-3.69,8.85,8.85,0,0,0,5.09-1.85c.48-.37.94-.75,1.39-1.12a13.31,13.31,0,0,0,1.81.12,17.76,17.76,0,0,0,3.27-.33,8.85,8.85,0,0,0,5-2.86,9.14,9.14,0,0,0,2.3.3,8.06,8.06,0,0,0,5.38-2,9.05,9.05,0,0,0,2.5-3.63l.43,0a7.44,7.44,0,0,0,7.57-7.36,16.41,16.41,0,0,0,2.67.32c3.06.09,6.33.14,10.6.16h.29c1.72,0,3.38-.08,4.78-.15,2.25-.12,4.5-.28,6.69-.44h.12l.91-.05a23.43,23.43,0,0,0,3.66-.4c1.18-.25,2.29-.55,3.36-.86v.07a9.1,9.1,0,0,0,7.94,8.88l2.78.16a20.52,20.52,0,0,0,1.32,3.37,8.12,8.12,0,0,0,7.16,4.42,7.69,7.69,0,0,0,1.79-.22,12,12,0,0,0,1.84-.62A8.71,8.71,0,0,0,255,248a13.35,13.35,0,0,0,1.74-.13,13.49,13.49,0,0,0,6-2.66c.2-.13.39-.27.57-.38a8.93,8.93,0,0,0,3.62-6.23,12.77,12.77,0,0,0-.16-5.19c-.07-.25-.13-.5-.2-.74s-.16-.57-.23-.83c-.12-.46-.25-.92-.37-1.38-.31-1.15-.6-2.25-.88-3.35.26-.62.54-1.25.83-1.91l.6-1.37.51-1.2c.24-.59.47-1.14.71-1.68l.44-.91c.28-.56.6-1.2.88-1.91s.44-1.21.6-1.72a9.29,9.29,0,0,1,.34-1c1.06-2.44,2.18-4.91,3.26-7.3l1.23-2.74c.31-.7.64-1.43,1-2.12.77-1.68,1.57-3.41,2.29-5.19.8-1.95,1.46-3.9,2.1-5.79.09-.29.19-.58.29-.88a14,14,0,0,0,.63-3.05,7.65,7.65,0,0,1,.15-.95,23.15,23.15,0,0,0,.95-3.41c.09-.38.17-.75.25-1.08,0-.07.06-.21.11-.35a11.21,11.21,0,0,0,.48-2.1c.13-1,.23-2.05.32-3s.19-2,.31-2.91a33,33,0,0,0-.39-9.2c-.16-1-.25-1.8-.3-2.5,0-.2,0-.52,0-.86a13.29,13.29,0,0,0-.3-3.63c-.94-3.77-1.83-6.84-2.8-9.65a42.77,42.77,0,0,0-2.1-4.86c-.28-.57-.54-1.11-.78-1.64a46.78,46.78,0,0,0-5.09-8.67c-.57-.76-1.13-1.56-1.72-2.41s-1.24-1.8-1.93-2.72a54.27,54.27,0,0,0-3.64-4.43,19,19,0,0,0-2.42-2.14l-.71-.56-1-.86c-.87-.75-1.77-1.52-2.79-2.27-.23-.18-.47-.34-.7-.49.47-1.47.92-2.85,1.45-4.15a37.63,37.63,0,0,0,2-6.83,7.75,7.75,0,0,0-1.74-6.74,12.54,12.54,0,0,0-.94-1l-.25-.25-1.44-1.56c-1.19-1.27-2.3-2.47-3.32-3.71-.67-.81-1.31-1.65-2-2.52a11.46,11.46,0,0,0,3.13-3.09,28.43,28.43,0,0,0,3.25-6.5,25.17,25.17,0,0,0,1.51-10.18c0-.25,0-.56,0-.89a14.82,14.82,0,0,0-.41-3.67,28,28,0,0,0-3.94-9.38l0,0a10.15,10.15,0,0,0-3-3c0-.18.09-.37.14-.56.2-.79.41-1.61.58-2.49a7.7,7.7,0,0,0-.45-4.38,17.21,17.21,0,0,0-1-2l-.27-.48-.69-1.3c-.55-1-1.12-2.13-1.73-3.21-.45-.78-.9-1.5-1.34-2.19-.33-.52-.64-1-.92-1.48-.1-.17-.23-.44-.37-.72a13.58,13.58,0,0,0-1.6-2.67c-3-3.76-7.28-3.76-8.7-3.76l-1.23,0h-.08a10.89,10.89,0,0,0-2.3-.26,9.58,9.58,0,0,0-5,1.37c-1.2.7-2.5,1.35-3.88,2l-.84.42c-.33.16-.72.33-1.13.5a21.2,21.2,0,0,0-2.85,1.4c-2.6,1.58-5.2,3.21-7.71,4.8L206,41.4l-.69.43c-.92.59-1.8,1.14-2.66,1.61-.36.19-.89.4-1.45.62l-.59.23-.71.29c-.23.1-.53.23-.67.27-.81.14-1.72.21-2.68.3l-1.32.11-.64.08-.27,0c-2.91-.22-5.59-.45-8.18-.7-.75-.07-1.54-.19-2.38-.33l-1-.14c-.34-.05-.74-.13-1.15-.21a19.5,19.5,0,0,0-3.86-.47h-.41a27.7,27.7,0,0,1-6.1-.86l-.15,0c-.79-.18-1.6-.37-2.47-.52s-1.48-.21-2.11-.27a7.68,7.68,0,0,1-1.62-.24,9.29,9.29,0,0,0-2.75-1h0c-2-1.32-3.49-2.42-4.3-3.85a17,17,0,0,0-3.1-4.11c-2.07-2-4.18-3.8-6.28-5.46l-.48-.38a14.31,14.31,0,0,0-6.44-3.4,31.69,31.69,0,0,0-3.85-.46c-.71,0-1.3-.06-1.85-.06Z" fill="#fff"/><path d="M80.62,247.4a17.86,17.86,0,0,1-1,2.16,7.47,7.47,0,0,1-1.59,2c-1,.83-2.27.52-3.43.07-.29-.11-.57-.27-.92-.43a7.73,7.73,0,0,0,0,1.45,2.08,2.08,0,0,1-.67,2.12,2,2,0,0,1-2.32.23c-2.76-1.24-5.54-2.42-8.31-3.63a16.12,16.12,0,0,1-1.48-.79c-2.45-1.43-4.92-2.82-7.33-4.31-1.66-1-3.25-2.16-4.86-3.27-1.24-.85-2.48-1.73-3.7-2.62-1-.7-1.93-1.42-2.84-2.19q-2.15-1.83-4.22-3.75c-1.05-1-2-2.08-3.07-3-1.26-1.11-2.63-2.09-3.94-3.15-.85-.69-1.66-1.44-2.51-2.14-.6-.5-1.25-.93-1.83-1.45-.95-.83-1.86-1.71-2.78-2.58-.43-.4-.82-.84-1.25-1.24a59.35,59.35,0,0,1-6.24-7.19c-1-1.25-2-2.45-3-3.73-1.4-1.91-2.7-3.89-4.1-5.81a23.87,23.87,0,0,1-3.26-7.46,22.33,22.33,0,0,1-.64-7.93,17,17,0,0,1,2.63-8.44,22.13,22.13,0,0,1,3.25-3.24,4.59,4.59,0,0,1,.71-.45,41.24,41.24,0,0,1-4.45-7.29,12,12,0,0,1-1.13-4.28c-.27-2.7-.51-5.39-.73-8.09,0-.55.06-1.12.07-1.68s0-1.07,0-1.61c0-.29-.09-.58-.08-.87.09-2.11.2-4.22.27-6.33,0-.48-.15-1-.12-1.46.16-2.16.4-4.31.54-6.48.08-1.18,0-2.38.07-3.57.09-1.36.27-2.71.46-4.06s.46-2.83.69-4.25c.28-1.78.52-3.56.86-5.33.52-2.65,1.13-5.29,1.67-7.94.49-2.39,1.07-4.77,1.37-7.18a30.84,30.84,0,0,1,1.37-5.59c.89-2.86,2-5.64,3.07-8.45.46-1.24.83-2.51,1.37-3.71a27,27,0,0,1,2.37-4.68c1.51-2.15,2.48-4.67,4.47-6.5a29.65,29.65,0,0,1,5.42-4.09c1.35-.76,2.6-1.72,3.93-2.52,1.55-.92,3.11-1.82,4.72-2.64,1.14-.58,2.37-1,3.56-1.51.26-.11.51-.29.77-.41s.79-.37,1.2-.52,1-.23,1.39-.41c1.55-.64,3.09-1.32,4.64-2,3.23-1.37,6.45-2.78,9.7-4.12a33.15,33.15,0,0,1,6-2.23c1.94-.4,3.79-1.2,5.72-1.7,1.55-.4,3.15-.61,4.73-.91.33-.06.66-.14,1-.22l5.51-1.34a1.87,1.87,0,0,1,.58,0,21,21,0,0,0,5.8-.65A16,16,0,0,1,91,51.76c2-.12,4.1-.25,6.15-.29a37.74,37.74,0,0,1,4.76.16,3.27,3.27,0,0,0,3.52-1.87,16.59,16.59,0,0,1,1.73-2.63c1.17-1.34,2.52-2.53,3.68-3.89a40.24,40.24,0,0,1,5.31-5.13c1.7-1.38,3.5-2.67,5.1-4.16a26.91,26.91,0,0,1,6.34-4,16.17,16.17,0,0,1,3.7-1.1,23,23,0,0,1,3.3-.59,15.9,15.9,0,0,1,2.76,0,26.18,26.18,0,0,1,3.19.37c1.85.36,3.23,1.63,4.63,2.74,2,1.62,4,3.34,5.92,5.14a12,12,0,0,1,2.12,2.86c1.52,2.69,4,4.35,6.44,6,.73.48,1.78.43,2.54.88,1.73,1,3.67.84,5.51,1.17.8.14,1.58.33,2.36.51a31.82,31.82,0,0,0,7.6,1,27.17,27.17,0,0,1,4.34.62c1.2.18,2.4.39,3.61.5,2.81.28,5.63.51,8.45.73a10.53,10.53,0,0,0,1.67-.13c1.48-.15,3-.22,4.43-.47a12.76,12.76,0,0,0,2.4-.86,24.27,24.27,0,0,0,2.62-1.12c1.24-.68,2.43-1.45,3.63-2.2,3.72-2.33,7.42-4.7,11.17-7,1.12-.68,2.4-1.09,3.58-1.67,1.71-.85,3.43-1.67,5.07-2.63a4.62,4.62,0,0,1,3.73-.42,4.17,4.17,0,0,0,1,0c2.08,0,4.2-.13,5.65,1.71a26.2,26.2,0,0,1,1.57,2.8c.71,1.21,1.51,2.38,2.21,3.6.82,1.44,1.57,2.92,2.35,4.38a22.59,22.59,0,0,1,1,2,2.39,2.39,0,0,1,.15,1.32c-.26,1.31-.63,2.59-.92,3.9-.07.31.1.69,0,1a18.76,18.76,0,0,1-.78,1.79,20.3,20.3,0,0,0,3,1.72,4.27,4.27,0,0,1,1.95,1.8A23.24,23.24,0,0,1,252.7,68a19,19,0,0,1,.27,3.56,20.28,20.28,0,0,1-1.22,8.07,23,23,0,0,1-2.65,5.27A8.86,8.86,0,0,1,245,87.79l-2.59,1c.37.56.73,1.17,1.15,1.73,1.56,2.1,3.07,4.25,4.73,6.27s3.29,3.66,4.95,5.48c.35.38.75.71,1.09,1.1a2.49,2.49,0,0,1,.55,2.19,32.56,32.56,0,0,1-1.7,5.87c-.91,2.21-1.56,4.52-2.32,6.78a4.68,4.68,0,0,1-.18.48c-.46,1-.38,1.3.57,1.9s2,1.1,2.94,1.78c1.24.92,2.38,2,3.56,2.94a28.15,28.15,0,0,1,2.62,2.22,46.86,46.86,0,0,1,3.29,4c1.26,1.68,2.4,3.45,3.65,5.13a42.13,42.13,0,0,1,4.52,7.69c.91,2,2,3.94,2.68,6,1,3,1.89,6.11,2.67,9.21a21,21,0,0,1,.15,3.56c.07,1,.2,2,.36,3a27.75,27.75,0,0,1,.36,7.72c-.24,2-.39,4-.63,6a14,14,0,0,1-.46,1.77,34.36,34.36,0,0,1-1,3.9c-.53,1.37-.38,2.84-.84,4.2-.73,2.13-1.43,4.28-2.28,6.36-1,2.42-2.12,4.77-3.18,7.14-1.51,3.36-3,6.72-4.52,10.09-.4.91-.61,1.9-1,2.83s-.85,1.75-1.25,2.64-.83,2-1.25,2.95c-.62,1.43-1.28,2.85-1.85,4.31a2.5,2.5,0,0,0-.1,1.38c.46,1.94,1,3.87,1.51,5.8.14.53.29,1.06.44,1.59.36,1.34.19,4.61-1.28,5.59s-2.6,1.95-4.33,2.2c-2.22.32-3.51-.32-4.35-2.42-.19-.47-.37-1-.6-1.53-.28.24-.5.45-.74.64a10.75,10.75,0,0,1-3.95,2.27,2.69,2.69,0,0,1-2.89-1.37,11.7,11.7,0,0,1-1.37-5,11.9,11.9,0,0,0-.16-1.21c-.32,0-.61,0-.9,0-2-.1-4.05-.16-6.07-.31a3.84,3.84,0,0,1-3-3.45c0-1.31.15-2.63.29-3.94a.77.77,0,0,0-.58-.92c-1-.39-2-.84-3-1.19a1.91,1.91,0,0,0-1,.06c-1.82.48-3.61,1.07-5.44,1.45a29.15,29.15,0,0,1-3.86.36c-2.24.16-4.48.32-6.72.44-1.58.08-3.17.15-4.75.14-3.49,0-7-.06-10.47-.16a15.73,15.73,0,0,1-3-.47q-3.61-.81-7.2-1.7c-1.23-.3-2.45-.65-3.68-1a.63.63,0,0,0-.45.06c.34.18.67.36,1,.56,1.17.71,2.37,1.38,3.49,2.17a2.7,2.7,0,0,1,1,1.39,16.81,16.81,0,0,1,.63,3.65,2.21,2.21,0,0,1-2.94,2.28c-1.11-.25-2.24-.42-3.36-.62-.43,1.31-.86,2.45-1.19,3.62-.68,2.43-2.59,3.3-4.88,2.25a27.5,27.5,0,0,0-2.74-.92c-.88,1.75-1.66,3.61-3.79,4a7.71,7.71,0,0,1-5.33-.49c-1.17,1-2.24,2-3.37,2.83a3.6,3.6,0,0,1-3.41.56c-.46-.15-.68,0-1,.36a12.23,12.23,0,0,1-5.35,3.93,19.06,19.06,0,0,1-3.94,1.27c-1.77.33-4.67-.37-5.61-2.41s-2.2-4-3.09-6.13a37.58,37.58,0,0,1-1.33-4.87,21.14,21.14,0,0,0-3-7.2,4.39,4.39,0,0,1-.44-.92c-1.51.21-3,.37-4.39.6-.65.1-1.27.36-1.92.48a25,25,0,0,1-3.54.51c-2.1.09-4.21,0-6.32,0a31,31,0,0,1-8.47-1.09,20.5,20.5,0,0,1-7.76-3.52c-3-2.36-6.34-4.13-9.49-6.22-1.66-1.11-3.28-2.3-5-3.38-2.18-1.42-4.41-2.77-6.62-4.14l-.53-.28-3.21,7.22,5.24,4.2a45.14,45.14,0,0,1,3.78,3.1,50.91,50.91,0,0,1,3.8,4.36,12.1,12.1,0,0,1,1.73,2.69,9.44,9.44,0,0,1,.71,2.87,4.84,4.84,0,0,1-3.14,4.6,1.23,1.23,0,0,0-1,1.34,10.29,10.29,0,0,1-1.08,4.19c-.59,1.19-1.27,1.81-2.57,1.7a17.25,17.25,0,0,1-1.73-.27C81.58,247.62,81.11,247.5,80.62,247.4ZM102.27,55.49c-1.64-.07-3.21-.21-4.77-.19-1.85,0-3.7.15-5.55.28-1.24.09-2.47.26-3.69.42a21.8,21.8,0,0,1-2.75.43,39.3,39.3,0,0,0-6.75,1.12c-1,.18-1.9.33-2.85.53s-2,.44-3,.71-2,.61-2.94.9c-2,.58-4,1.09-6,1.75-1.49.51-2.92,1.22-4.38,1.81C57.72,64,55.83,64.7,54,65.47c-2.5,1-5,2.12-7.46,3.2-3,1.31-6.12,2.3-9,4-.9.53-1.82,1-2.69,1.59s-1.92,1.44-3,2a22.1,22.1,0,0,0-5,3.88,24.23,24.23,0,0,0-2.25,3A43.09,43.09,0,0,0,19,94.78c-.25.76-.6,1.48-.86,2.24-.65,1.91-1.34,3.82-1.88,5.77a56.67,56.67,0,0,0-1.32,5.91c-.35,2.09-1.19,4.12-.88,6.31a1,1,0,0,1-.16.7,4.47,4.47,0,0,0-.43,2.61,2,2,0,0,1-.28,1.25,3.94,3.94,0,0,0-1,2.37c-.2,1.1-.46,2.2-.62,3.31-.22,1.47-.3,3-.55,4.42a33.16,33.16,0,0,0-.79,7.49,4.89,4.89,0,0,1-.05.66c-.18,1.84-.45,3.68-.51,5.53-.09,2.48,0,5,0,7.47,0,.73-.13,1.46-.13,2.19,0,1.57.06,3.14.08,4.71,0,.66-.06,1.32,0,2,.1,1.38.22,2.76.38,4.14a9.42,9.42,0,0,0,.78,3.84c.88,1.55,1.69,3.13,2.63,4.64a25.93,25.93,0,0,0,1.85,2.36c1.89-.65,3.56-1.27,5.26-1.77a10.94,10.94,0,0,1,2.67-.36,1.64,1.64,0,0,1,1.7,1.25,1.71,1.71,0,0,1-.62,2,6.56,6.56,0,0,1-1.54.66c-1.59.51-3.24.9-4.79,1.5-1.18.46-2.23,1.22-3.37,1.78-2.8,1.38-4.1,3.84-4.91,6.68a22.25,22.25,0,0,0-.41,5.76,17.24,17.24,0,0,0,1.69,7.13,32.52,32.52,0,0,0,4,6.29c1,1.34,1.87,2.75,2.9,4,1.83,2.28,3.68,4.56,5.64,6.74,1.6,1.77,3.33,3.44,5.09,5.06,1.27,1.17,2.68,2.18,4,3.27.8.65,1.57,1.32,2.35,2a57.83,57.83,0,0,1,4.44,3.81,64,64,0,0,0,7.65,6.6c1.17.88,2.44,1.63,3.57,2.55a47.11,47.11,0,0,0,6.79,4.3c1.46.82,3,1.59,4.38,2.51a24.9,24.9,0,0,0,6.1,3.11c.53.17,1,.41,1.57.63a24.89,24.89,0,0,1-.44-2.89c0-1.15,1.06-2.21,2-2a10.41,10.41,0,0,1,2.4,1c.86.49,1.64,1.11,2.63,1.79a7.13,7.13,0,0,0,.79-2.45,2.22,2.22,0,0,1,2.73-2.59c1.21.23,2.42.5,3.76.79a26.29,26.29,0,0,0,.17-3.29,2.23,2.23,0,0,1,1-2.38c1-.62,2-1.23,3-1.78.36-.2.33-.36.23-.69a12.4,12.4,0,0,0-2.9-4.52,47.51,47.51,0,0,0-7.62-6.75,15.52,15.52,0,0,0-3.6-2.36,2.37,2.37,0,0,1-1.5-3.48c.65-1.47,1.35-2.93,2-4.41.56-1.29,1.09-2.6,1.58-3.93.35-1,.61-1.93.92-2.9.4-1.23.92-2.43,1.2-3.69.47-2.14.82-4.31,1.17-6.48.26-1.66.5-3.33.6-5a27.46,27.46,0,0,0-.25-2.84c-.13-2.58-.13-5.18-.33-7.76a30.73,30.73,0,0,0-.86-5.32c-.72-2.69-1.62-5.33-2.51-8a16.21,16.21,0,0,0-1.15-3.51,1.8,1.8,0,0,1,.29-2,2,2,0,0,1,1.87-.81,1.61,1.61,0,0,1,1.48,1c.41,1.18.76,2.38,1.13,3.58.12.39.2.8.33,1.2.85,2.64,1.72,5.28,2.57,7.93a4.64,4.64,0,0,1,.11.65c.27,1.78.57,3.56.8,5.35.13,1.06.17,2.13.2,3.2s-.06,2.08,0,3.12.12,2.14.21,3.21c.27,3.54-.59,7-1.15,10.39-.31,1.89-.92,3.74-1.36,5.62a.83.83,0,0,0,.25.68c.36.28.82.44,1.21.69,1.66,1.05,3.31,2.13,5,3.18,1.51.95,3.06,1.84,4.54,2.83a59.34,59.34,0,0,0,5.89,3.82,32.34,32.34,0,0,1,3.59,2.38,25.74,25.74,0,0,0,2.73,2,23.94,23.94,0,0,0,7.5,2.8,37.91,37.91,0,0,0,4.2.6c2.63.09,5.27,0,7.9,0a5.15,5.15,0,0,0,.88-.09l6.82-1.3-2.52-6c-1-2.45-2-4.91-3.09-7.34s-2-4.67-3.18-6.91c-1.67-3.14-3.56-6.17-5.29-9.3a4.77,4.77,0,0,1-.47-2.16,1.86,1.86,0,0,1,1.55-1.72,1.9,1.9,0,0,1,1.87,1c.54.92,1.08,1.84,1.64,2.75.84,1.37,1.73,2.71,2.52,4.12s1.72,3.12,2.44,4.75c1.8,4.05,3.52,8.14,5.27,12.22.79,1.83,1.54,3.68,2.37,5.5.39.83,1,1.58,1.4,2.4.51,1,.88,2,1.44,3a21.42,21.42,0,0,1,2.59,5.39c.34,1.2.68,2.39,1,3.59a31.1,31.1,0,0,0,1.12,4.08c.74,1.77,1.73,3.44,2.65,5.14a1.47,1.47,0,0,0,2,.81c1-.27,1.89-.62,2.81-1a6.37,6.37,0,0,0,4.31-4.5,2,2,0,0,1,2.92-1.35,12.49,12.49,0,0,1,1.31,1c.18.13.57.27.64.19a31.26,31.26,0,0,0,2.8-3.07,2,2,0,0,1,2.57-.82,9.12,9.12,0,0,0,1.26.61,21.55,21.55,0,0,0,2.53.57.77.77,0,0,0,.65-.32,13.87,13.87,0,0,0,1.24-2.54c.46-1.46,1.39-2.11,2.87-1.7s2.86.89,4.43,1.39a28.07,28.07,0,0,0,1-3.2c.36-2,1.1-2.72,3.2-2.72H183l.08-.22a20.72,20.72,0,0,0-2.18-1.25,9.38,9.38,0,0,1-3.32-2.48c-1.07-1.2-2.11-2.43-3.18-3.62a63.68,63.68,0,0,0-5.85-6.34c-2.49-2.11-4.79-4.46-7.19-6.7a2,2,0,0,1-.1-3,1.92,1.92,0,0,1,2.86.12,10.58,10.58,0,0,0,2,1.93c2.23,2.1,4.61,4.06,6.83,6.18a46.47,46.47,0,0,1,3.31,3.82,1.78,1.78,0,0,0,1.53.81,7.78,7.78,0,0,1,2,.3c3,.74,5.9,1.52,8.86,2.27,1.77.45,3.55.89,5.34,1.28a23.68,23.68,0,0,0,3.24.49c.94.07,1.91-.15,2.85-.06a45.08,45.08,0,0,0,7.53.14c3.26-.25,6.54-.29,9.81-.49a35.43,35.43,0,0,0,4.93-.56c1.57-.31,3.09-.89,4.65-1.3,1-.27,1.06-.25,1.07-1.28a1.61,1.61,0,0,1,0-.58c.45-1.2-.27-1.74-1.17-2.25-2.55-1.45-3.54-3.78-3.7-6.59a2.23,2.23,0,0,1,1.22-2.18c1.76-1,3.53-2,5.35-2.89a7,7,0,0,0,3.75-3.7c.41-1,.75-2.06,1.19-3.06a34.73,34.73,0,0,0,2.46-7.33,45.91,45.91,0,0,0,1.07-5.73,2.42,2.42,0,0,1,2.42-2.21,2,2,0,0,1,1.65,2.48c-.16,1.21-.24,2.43-.44,3.63-.11.69-.39,1.35-.56,2-.4,1.61-.66,3.27-1.18,4.84-.6,1.85-1.47,3.61-2.12,5.45a12.06,12.06,0,0,1-5.89,7c-1.57.81-3.13,1.65-4.74,2.51.23.57.29,1.18.61,1.43a15,15,0,0,0,3.16,2.06c1.57.67,2.18,1.88,1.44,3.44a3.68,3.68,0,0,0-.4,1.09c-.11.84-.15,1.69-.22,2.51.44.28.86.58,1.31.82a14.79,14.79,0,0,0,2.15,1.06,2.08,2.08,0,0,1,1.43,2.76c-.38,1.36-.7,2.76-1,4.16.59.06,1,.1,1.51.16a11.87,11.87,0,0,0,4.71-.11c1.8-.48,3-.07,3.51,1.86.37,1.53.51,3.12.76,4.68,0,.24.09.49.15.79l1.05-.85c.87-.67,1.75-1.31,2.61-2a2.64,2.64,0,0,1,2.59-.81,2.35,2.35,0,0,1,1.61,2.1,7.43,7.43,0,0,0,1.49,3l1-.58a1.43,1.43,0,0,0,.73-1.77c-.75-2.93-1.39-5.89-2.11-8.84a3.4,3.4,0,0,1,.21-2.2c1-2.39,2-4.81,3-7.21.12-.27.25-.53.38-.79.59-1.17,1.25-2.32,1.77-3.52.71-1.66,1.27-3.38,2-5,.87-2.06,1.84-4.08,2.75-6.13s1.73-3.94,2.58-5.91c.69-1.59,1.42-3.16,2-4.78a26.75,26.75,0,0,0,1.33-5.23c.28-1.8,1-3.53,1.34-5.32a52.28,52.28,0,0,0,1-6.34,51.92,51.92,0,0,0,0-6.36c-.1-2.07-.31-4.13-.54-6.19a37.3,37.3,0,0,0-.68-3.8c-.19-.88-.52-1.72-.78-2.58-.56-1.81-1-3.67-1.68-5.43a53.33,53.33,0,0,0-2.33-5,28,28,0,0,0-2.7-4.93c-2-2.54-3.82-5.18-5.63-7.85a11.18,11.18,0,0,0-1.88-2.13c-1.46-1.29-3-2.44-4.48-3.77a16.53,16.53,0,0,0-4.31-2.84c-.43,1-.85,2-1.29,3-1.13,2.54-2.24,5.09-3.41,7.61-1,2.21-2.14,4.38-3.2,6.58q-1.17,2.45-2.29,4.91c-.72,1.57-1.37,3.18-2.14,4.72s-1.63,3-2.5,4.47-1.71,2.91-2.7,4.27c-1.68,2.3-3.47,4.53-5.23,6.78a16.51,16.51,0,0,1-3.72,3.6c-.85.58-1.75,1.09-2.58,1.68-1.9,1.37-3.81,2.73-5.65,4.17a26.8,26.8,0,0,1-10.19,4.81,8.21,8.21,0,0,0-1.34.34c-1.41.61-2.81,1.25-4.18,1.93a31.29,31.29,0,0,1-8.63,2.71c-1.66.29-3.34.39-5,.61-.8.11-1.58.3-2.38.44a34.79,34.79,0,0,0-4,.66,23.12,23.12,0,0,1-6.65.93c-2.09,0-4.18-.26-6.27-.43-1.36-.11-2.72-.26-4.07-.44s-2.55-.4-3.84-.57a41.58,41.58,0,0,1-7.66-1.53c-2.74-.89-5.44-1.94-8.23-2.67a41.56,41.56,0,0,1-10.12-3.72l-9.82-5.5a56.63,56.63,0,0,1-7.43-4.93c-1.94-1.52-4-3-5.89-4.49a24.35,24.35,0,0,1-3.15-2.85c-2.2-2.51-4.32-5.09-6.4-7.7-1.27-1.58-2.46-3.22-3.59-4.9-.85-1.25-1.42-2.7-2.33-3.89-1.65-2.14-2.6-4.64-3.81-7a1.93,1.93,0,0,1,1.71-2.75c1-.08,1.79.54,2.35,1.76.67,1.43,1.35,2.87,2.15,4.23,1.44,2.41,2.9,4.81,4.47,7.13,1.14,1.69,2.44,3.29,3.72,4.88,1.09,1.36,2.33,2.58,3.35,4a23.78,23.78,0,0,0,4.21,4.06c1.26,1,2.61,2,3.89,3a60.5,60.5,0,0,0,8.24,5.71c1.53.85,3.07,1.7,4.6,2.57,2.19,1.24,4.31,2.63,6.57,3.71a37.47,37.47,0,0,0,7.44,2.6c2.63.62,5.17,1.59,7.76,2.39,1.37.43,2.72.92,4.12,1.25s2.64.45,4,.65c1.55.22,3.09.43,4.64.63,1.86.25,3.72.5,5.58.7a26.78,26.78,0,0,0,3.79.23,24.82,24.82,0,0,0,5.91-.91,29,29,0,0,1,4-.68c1.92-.29,3.87-.5,5.79-.82a39.23,39.23,0,0,0,5.72-1.19,61,61,0,0,0,5.73-2.59,15.06,15.06,0,0,1,1.81-.76c1.27-.39,2.58-.65,3.84-1.08a22,22,0,0,0,5.75-2.69c2.54-1.77,4.93-3.77,7.56-5.41a27.8,27.8,0,0,0,7.19-6.82,70.77,70.77,0,0,0,5-7.37c1.68-2.86,3.11-5.86,4.59-8.83,1.3-2.62,2.52-5.29,3.79-7.93.58-1.21,1.22-2.39,1.77-3.61,1.23-2.74,2.43-5.48,3.62-8.24.7-1.61,1.42-3.22,2-4.87q1.83-5.06,3.52-10.16c.49-1.48.85-3,1.2-4.52a1.11,1.11,0,0,0-.28-.86c-.66-.68-1.46-1.24-2.06-2-1.91-2.32-3.76-4.69-5.62-7-1.05-1.33-1.81-2.91-3.21-4a1.2,1.2,0,0,1-.3-.5c-.25-.6-.48-1.21-.67-1.71a22.88,22.88,0,0,0-3.15-.36c-2.66,0-4.82-1.3-7.09-2.36a1.52,1.52,0,0,1-.39-.33c-1-1-2.1-2-3-3.07a18.56,18.56,0,0,1-2.07-3c-1-1.72-.63-3.69-.76-5.54a16.24,16.24,0,0,1,.73-7.18c.22-.56.43-1.14.66-1.7a39.78,39.78,0,0,1,1.9-4.44,20.61,20.61,0,0,1,4.38-5.73,8.52,8.52,0,0,1,8.1-2c1.08.28,2.13.67,3.33,1.05.35-1.42.71-2.78,1-4.15a2.42,2.42,0,0,0,0-1.41,26.34,26.34,0,0,0-2.5-4.94,32.11,32.11,0,0,1-3.38-5.89,1.35,1.35,0,0,0-1-.58c-1.19-.11-2.39-.14-3.58-.16a2.72,2.72,0,0,0-1.12.24c-1.7.85-3.38,1.75-5.09,2.59-.87.43-1.83.69-2.68,1.17-2.56,1.46-5.09,3-7.64,4.49-.37.22-.75.45-1.11.7-1.61,1.1-3.17,2.3-4.85,3.3-1.29.77-2.75,1.23-4.08,1.94a19.93,19.93,0,0,1-9.5,2,25.75,25.75,0,0,1-5.39-.38,38.32,38.32,0,0,0-5-.35,28.39,28.39,0,0,1-3.2-.29,40.67,40.67,0,0,0-7.69-.9,7.77,7.77,0,0,1-1.6-.18c-1.84-.37-3.67-.81-5.51-1.14-1.34-.24-2.75-.2-4-.56a28.41,28.41,0,0,1-5.12-1.91,17.86,17.86,0,0,1-3.64-2.56,20.54,20.54,0,0,1-3.56-3.66,21.81,21.81,0,0,0-5.26-5.82c-.36-.25-.66-.57-1-.85-1.24-1-2.48-2-3.74-2.93a2.7,2.7,0,0,0-1.14-.61,18.05,18.05,0,0,0-3.27-.34,19.61,19.61,0,0,0-6.83,1.45,11.32,11.32,0,0,0-1.61.86,34.7,34.7,0,0,0-3.36,2.06c-1.44,1.1-2.74,2.36-4.12,3.53-1.69,1.44-3.43,2.83-5.07,4.33-1.12,1-2,2.24-3.17,3.26a24.56,24.56,0,0,0-4,5.23A26.22,26.22,0,0,0,106,57c-1,2.47-2,5-2.88,7.5a42.76,42.76,0,0,0-1.9,10.34c-.18,1.9-.21,3.8-.31,5.7a1.81,1.81,0,0,1-1.56,1.77,1.89,1.89,0,0,1-1.87-1.46,7.81,7.81,0,0,1-.23-2c.15-2.45.34-4.91.58-7.36A32,32,0,0,1,99.14,64c.62-1.79,1.31-3.56,2-5.35C101.49,57.62,101.87,56.57,102.27,55.49ZM248.78,74.85c-1.32,0-2.46,0-3.6,0-2.24.11-4.47.3-6.71.42-1.58.08-3.17.08-4.75.16-.9,0-1.79.27-2.69.26s-1.77,0-2-1a18.91,18.91,0,0,1-.2-3.2c0-.8,0-1.6,0-2.39s.33-1.69,1.1-1.7c1.16,0,2.33.11,3.5.14,1.49,0,3,0,4.46,0,.43,0,.87,0,1.3,0a18.78,18.78,0,0,0,3,.15,14,14,0,0,1,4.78.11,11.48,11.48,0,0,0,1.57.12c-.37-1.09-.67-2.09-1-3.06-.77-2-2.53-3.09-4.23-4.18a4.46,4.46,0,0,0-1.09-.41c-1-.29-2-.49-3-.86-.5-.2-.84-.81-1.34-1a4.74,4.74,0,0,0-4.18-.3,8.31,8.31,0,0,0-3.35,3.09A27.54,27.54,0,0,0,227,67.51c-.59,1.83-1.38,3.62-1.23,5.61.1,1.29.29,2.58.27,3.86a5.48,5.48,0,0,0,1.41,3.79,13,13,0,0,0,5,4,10.2,10.2,0,0,0,5.85.84,18.63,18.63,0,0,0,5.3-1.59c1.24-.64,2.47-1.27,3-2.72.38-1,1-2,1.36-3S248.51,76,248.78,74.85Z"/><path d="M185.92,167.15c-1.55.32-3.09.7-4.64.93s-2.85.23-4.27.33h-.15c-2.24.26-4.28-.49-6.37-1.14-2.4-.74-4.84-1.38-7.25-2.08a33.52,33.52,0,0,1-6.72-2.88c-2.05-1.13-4.1-2.26-6.16-3.37a27.38,27.38,0,0,1-5.7-4,57.14,57.14,0,0,0-4.85-4.23,73.31,73.31,0,0,1-8.29-7.45c-1.72-1.73-3.53-3.39-5.16-5.21a51.91,51.91,0,0,1-3.58-4.63c-1.34-1.9-2.62-3.83-3.86-5.79a34,34,0,0,1-3.9-8c-.9-2.91-1.86-5.8-2.79-8.7a2.25,2.25,0,0,1,.81-2.86,2.61,2.61,0,0,1,3,.55,9,9,0,0,0,3.61,2c1.38.48,2.72,1.08,4.11,1.52,1.22.39,2.49.67,3.75.95,3.07.68,6.19,1.22,9.23,2a30.5,30.5,0,0,0,7.23,1,19.7,19.7,0,0,1,3.37.6c2,.37,4,.78,6,1.1,2.4.39,4.81.83,7.23,1s4.93,0,7.4,0c1.71,0,3.43.09,5.14,0a46.34,46.34,0,0,0,5.51-.69c2.47-.46,4.91-1.08,7.37-1.58.86-.18,1.77-.08,2.62-.28,1.23-.29,2.42-.73,3.63-1.11l6.37-2c2.1-.65,4.17-1.39,6.29-1.94,1.86-.48,3.78-.72,5.66-1.1.81-.16,1.6-.42,2.41-.58,1.84-.36,3.69-.69,5.54-1,.88-.16,1.77-.35,2.67-.44,1.79-.18,3.61-.2,5.39-.47s3.72-.76,5.58-1.17c2.85-.63,5.71-1.25,8.56-1.93a26.38,26.38,0,0,0,3.19-1,2.52,2.52,0,0,1,2.72.44c.55.64.46,1.56-.08,2.58-.38.7-.52,1.52-.84,2.25-.67,1.48-1.38,3-2.08,4.42-1,2-1.86,4-2.9,6s-2.24,4-3.45,6c-.92,1.49-2,2.92-3,4.35s-2.25,3.08-3.34,4.64c-.71,1-1.32,2.1-2,3.13-1.85,2.71-3.49,5.56-6,7.84a66.92,66.92,0,0,0-4.82,5.51c-2.34,2.71-4.88,5.13-8.35,6.37a8.82,8.82,0,0,0-1.8,1.09c-1.68,1.11-3.4,2.18-5,3.37-2.44,1.79-5.35,2.44-8.1,3.48-1,.39-2,.81-3,1.27a15.38,15.38,0,0,1-6,1.24Zm-68.19-53c.67,2.16,1.22,4.11,1.9,6a11.21,11.21,0,0,0,1.23,3.16c.8,1.09,1.39,2.33,2.14,3.46.44.66,1.06,1.2,1.5,1.87.76,1.18,1.31,2.51,2.17,3.61a70.4,70.4,0,0,0,4.88,5.62c2.21,2.28,4.55,4.45,6.88,6.61,1.35,1.24,2.79,2.38,4.2,3.55s3.12,2.43,4.55,3.78a24,24,0,0,0,5.19,3.65c1.72.93,3.52,1.73,5.16,2.79a30.09,30.09,0,0,0,6.86,3.06c2.37.78,4.78,1.42,7.18,2.12a17.32,17.32,0,0,0,3.3.93,16.27,16.27,0,0,0,6.47-.31,29.72,29.72,0,0,1,4.47-.67,28.66,28.66,0,0,0,3.71-.59c1.28-.36,2.48-1,3.74-1.48,2.36-.9,4.85-1.51,7-2.9,1.81-1.18,3.6-2.41,5.41-3.59a13.93,13.93,0,0,1,2.32-1.36,14.61,14.61,0,0,0,5.44-3.64c1.28-1.41,2.43-2.92,3.69-4.36.68-.78,1.51-1.45,2.18-2.25,1.43-1.72,3.18-3.15,4.26-5.2a53.36,53.36,0,0,1,3.39-5c.92-1.35,1.87-2.68,2.79-4,1.21-1.77,2.44-3.54,3.6-5.34s2.52-3.88,3.62-5.91c1.32-2.45,2.47-5,3.69-7.48.27-.55.55-1.1.9-1.83-.71.17-1.22.3-1.74.41-2.56.59-5.16,1.07-7.69,1.77a23.55,23.55,0,0,1-6.91,1.06,15.49,15.49,0,0,0-2.62.25c-1.45.19-2.9.38-4.34.62-1.19.21-2.38.48-3.56.75s-2.21.65-3.33.84a41.19,41.19,0,0,0-7.18,1.62c-1.83.67-3.73,1.15-5.6,1.72-1.47.45-2.93.91-4.41,1.33-1.89.53-3.79,1.1-5.71,1.52-2.31.49-4.7.67-7,1.29a33.59,33.59,0,0,1-8.79,1.22c-3.26,0-6.52.18-9.77.11a51.34,51.34,0,0,1-5.51-.63c-1.19-.15-2.37-.33-3.55-.51-2.17-.33-4.33-.66-6.49-1a36.79,36.79,0,0,0-4.26-.72,40,40,0,0,1-7.3-1c-3-.71-6.07-1.4-9.13-2a21.94,21.94,0,0,1-5.86-1.78A22,22,0,0,0,117.73,114.16Z"/><path d="M144.88,77a20,20,0,0,1-2.5,8.82,20,20,0,0,1-3,4.41,13.75,13.75,0,0,1-6.69,4,21.15,21.15,0,0,1-6.92,1A20.75,20.75,0,0,1,118,93.5a24.58,24.58,0,0,1-5.15-2.91,18.72,18.72,0,0,1-5.44-6,6.59,6.59,0,0,1-.4-.95,39.29,39.29,0,0,1-1.64-5.53,12.84,12.84,0,0,1,1-7.32,26.4,26.4,0,0,1,4.46-6.39A22.57,22.57,0,0,1,116,60.07,15.29,15.29,0,0,1,121.34,58c1.86-.34,3.79-.45,5.61-1a22.73,22.73,0,0,1,4.82-.66,7.6,7.6,0,0,1,4.17,1.19,16.32,16.32,0,0,1,7,8.64,10.71,10.71,0,0,0,.64,1.32,9.1,9.1,0,0,1,1,4.16C144.65,73.44,144.77,75.24,144.88,77Zm-18.52-15.7-.07-.35c-1.36.25-2.71.55-4.07.76a13.86,13.86,0,0,0-7,3.76,20.41,20.41,0,0,0-4.78,6A10.57,10.57,0,0,0,109.09,76c-.07,2,.76,3.76,1.31,5.6.8,2.65,2.87,4.32,4.91,6a24.44,24.44,0,0,0,3,1.76,16.14,16.14,0,0,0,7.54,2.1,16.34,16.34,0,0,0,6.29-1.09,11,11,0,0,0,5.27-3.92,19.16,19.16,0,0,0,2.91-6A12.33,12.33,0,0,0,141,77c0-1.85-.24-3.7-.4-5.54a5.19,5.19,0,0,0-.27-1.58,41,41,0,0,0-2.44-5,9.22,9.22,0,0,0-3.8-3.83,5.83,5.83,0,0,0-4.57-.37A21.94,21.94,0,0,1,126.36,61.32Z"/><path d="M115.51,70.62c1,.13,2,.32,3,.37s1.8-.09,2.7-.11a11.26,11.26,0,0,1,2.53,0c1.68.34,3.29-.15,4.94-.22.95,0,1.89-.19,2.83-.24q1.91-.1,3.81-.15a1.53,1.53,0,0,1,1.61,1.53c.1,1.56.19,3.11.3,4.67.07,1.15-.59,1.63-1.74,1.52a18.09,18.09,0,0,0-5.39.22c-2.07.42-4.17.71-6.26,1a67.68,67.68,0,0,1-9.55.62c-2.16,0-2.38-1.22-2.33-2.92,0-1.17,0-2.34,0-3.5a2.12,2.12,0,0,1,.16-.9,4,4,0,0,1,.78-1.29,2.2,2.2,0,0,1,1.14-.51,8,8,0,0,1,1.47,0Z"/></svg>