<svg xmlns="http://www.w3.org/2000/svg" width="146.67mm" height="100mm" viewBox="0 0 415.77 283.46"><path d="M241.05,255.75l2.18,11.31-5.18,2.59-2.32-5-6.26,4.22-2.45-7.9-9.13-1,1.22-5.58-5.58-2.45s-16.62,2.31-25.2,2.45-17.3-3.68-24-3.41c1.78,2.18,8.45,5.59,8.45,5.59s0,2.59-.14,3.95-5.72-.27-5.72-.27l-2.31,6-5.32-1.77-3,4.63-5.18-1.36L146.92,272l-2.86-1.5c-3.14,5.86-11.58,6.41-11.58,6.41s-7.36-17.85-8.72-21c-5.58,2-17.16,1.63-24,1.09s-29.7-18-29.7-18a56.67,56.67,0,0,0-4.36,10.76c9.13,4.36,15,14.85,15.12,15.94s-4.08,3.13-4.08,3.13l-1.09,5.58L71,273.87l-3.4,5L63,276.73a14.33,14.33,0,0,0-.27,4.49c-2.73-1-18.26-8.58-32.7-21C3.75,237.63,2.53,227.42,2.25,221.83S4.3,213,9.34,209c-7.9-9.95-6.81-16.62-6.81-29.7,0-17.43,6.59-54.35,17.57-64.56S64.63,90.11,94.61,90c14.58-17.3,23.7-21.38,31.33-22.06,4.35-.73,14.44,11.85,18.25,15.39s35.42,7.76,42.23,6,26.43-14.16,28.88-15,6,.68,6,.68l7.09,11.58a22.91,22.91,0,0,1-2.18,8c3.68,1,9,6.13,9.12,12.54s-3.54,14.71-11.3,16.34c1.22,2.46,12.39,16.49,12.39,16.49s-3,10.62-4.35,15.93c15.8,7.77,19.07,19.21,25.74,36S241.05,255.75,241.05,255.75ZM348.93,1.94c-30.1.72-62.8,26.33-63.61,64.74a54,54,0,0,0,2.2,16.63l-36.53,43,49.75-21c11.64,11.66,28.86,18.56,48.19,18.56,35.75,0,64.74-27.31,64.74-61S384.67,1.09,348.93,1.94Z" fill="#fff"/><path d="M244.11,132.67l41.71-49.95A68.07,68.07,0,0,1,283,63.25a53.63,53.63,0,0,1,6.19-24.75,68.45,68.45,0,0,1,15.94-20.06A78,78,0,0,1,327.05,5a65.87,65.87,0,0,1,24.29-5c15.75,0,31.9,6.74,44.31,18.49a66,66,0,0,1,14.57,20.08,57.67,57.67,0,0,1,0,49.37A66,66,0,0,1,395.65,108c-12.41,11.75-28.56,18.49-44.31,18.49-16.49,0-40.54-7.29-51.73-19.15Zm56.47-29.84.91,1.06c4.55,5.29,12.57,10.17,22.59,13.74a85,85,0,0,0,27.26,5.16c14.81,0,30-6.37,41.75-17.48a62.32,62.32,0,0,0,13.76-19,54,54,0,0,0,0-46.22,62.44,62.44,0,0,0-13.76-18.95c-11.72-11.1-26.94-17.47-41.75-17.47s-31.21,6.55-43.76,17.52a64.52,64.52,0,0,0-15.08,19,49.88,49.88,0,0,0-5.78,23,64.12,64.12,0,0,0,2.95,19.33l.31,1-32.52,39Z"/><path d="M71.93,275.92A18.75,18.75,0,0,1,71,278a7.14,7.14,0,0,1-1.53,1.94c-1,.79-2.17.5-3.27.07-.28-.11-.54-.26-.88-.42a7.09,7.09,0,0,0,0,1.39,2,2,0,0,1-.64,2,1.94,1.94,0,0,1-2.22.22c-2.64-1.19-5.29-2.31-7.94-3.47-.49-.22-.95-.48-1.42-.75-2.33-1.37-4.69-2.7-7-4.12-1.59-1-3.11-2.07-4.65-3.12-1.19-.82-2.36-1.65-3.53-2.51-.92-.67-1.84-1.35-2.71-2.09q-2.06-1.76-4-3.58c-1-.94-1.9-2-2.93-2.9-1.21-1.06-2.51-2-3.76-3-.81-.66-1.59-1.37-2.4-2-.57-.48-1.19-.89-1.75-1.39-.91-.8-1.78-1.63-2.66-2.46-.4-.39-.78-.81-1.19-1.19a56.57,56.57,0,0,1-6-6.87c-.93-1.19-1.93-2.34-2.82-3.56-1.34-1.82-2.58-3.72-3.91-5.55A22.68,22.68,0,0,1,.7,227.48a21.3,21.3,0,0,1-.62-7.58,16.31,16.31,0,0,1,2.52-8.06,21.14,21.14,0,0,1,3.11-3.09,4.57,4.57,0,0,1,.67-.43,39.15,39.15,0,0,1-4.25-7,11.28,11.28,0,0,1-1.08-4.09c-.26-2.57-.48-5.15-.69-7.72a14.53,14.53,0,0,1,.06-1.61q0-.77,0-1.53c0-.28-.09-.56-.07-.84.08-2,.19-4,.26-6.05,0-.46-.15-.93-.12-1.39.15-2.06.38-4.12.52-6.19.07-1.13,0-2.28.06-3.41.09-1.3.26-2.59.44-3.88s.44-2.71.66-4.06c.27-1.7.5-3.41.83-5.09.49-2.54,1.07-5.06,1.59-7.59.47-2.28,1-4.55,1.3-6.86A30.85,30.85,0,0,1,7.2,135.7c.85-2.73,2-5.39,2.94-8.07.44-1.18.79-2.4,1.3-3.54a26.52,26.52,0,0,1,2.27-4.48c1.45-2,2.37-4.46,4.27-6.2a27.84,27.84,0,0,1,5.18-3.91c1.29-.73,2.48-1.64,3.76-2.41,1.47-.89,3-1.74,4.5-2.53,1.1-.55,2.27-1,3.4-1.44.26-.11.49-.27.74-.39a10.44,10.44,0,0,1,1.15-.49c.43-.16.9-.22,1.32-.4,1.49-.61,3-1.25,4.43-1.88,3.09-1.32,6.17-2.66,9.27-3.94a31.8,31.8,0,0,1,5.76-2.14c1.85-.37,3.62-1.15,5.46-1.62,1.48-.38,3-.58,4.51-.87q.48-.09,1-.21l5.25-1.28a1.77,1.77,0,0,1,.56-.05,19.63,19.63,0,0,0,5.55-.62A15.94,15.94,0,0,1,81.86,89c2-.11,3.91-.24,5.87-.27a34.48,34.48,0,0,1,4.55.15,3.12,3.12,0,0,0,3.36-1.78,15.67,15.67,0,0,1,1.66-2.52c1.11-1.28,2.4-2.42,3.51-3.71A37.94,37.94,0,0,1,105.88,76c1.63-1.32,3.35-2.54,4.87-4a25.9,25.9,0,0,1,6.06-3.85,15.5,15.5,0,0,1,3.53-1.06,24.32,24.32,0,0,1,3.16-.56,15.52,15.52,0,0,1,2.64,0,22.43,22.43,0,0,1,3,.35c1.76.34,3.08,1.55,4.42,2.61,1.95,1.55,3.84,3.2,5.65,4.91a11.74,11.74,0,0,1,2,2.74c1.45,2.56,3.79,4.15,6.15,5.69.69.46,1.7.42,2.43.85,1.65,1,3.5.8,5.27,1.11.75.14,1.5.31,2.25.49a30,30,0,0,0,7.26,1,26.8,26.8,0,0,1,4.14.59c1.15.17,2.29.38,3.45.49,2.69.26,5.38.48,8.07.69a8.64,8.64,0,0,0,1.6-.13c1.41-.13,2.83-.21,4.23-.44a12,12,0,0,0,2.29-.82,22.32,22.32,0,0,0,2.51-1.08c1.18-.64,2.32-1.38,3.46-2.1,3.56-2.22,7.1-4.48,10.68-6.66,1.07-.65,2.29-1,3.42-1.6,1.63-.81,3.28-1.59,4.84-2.52a4.46,4.46,0,0,1,3.56-.4,3.42,3.42,0,0,0,1,0c2-.06,4-.13,5.4,1.63a23.78,23.78,0,0,1,1.49,2.67c.69,1.16,1.45,2.27,2.12,3.44.78,1.38,1.5,2.79,2.25,4.19.34.63.72,1.25,1,1.91a2.42,2.42,0,0,1,.15,1.27c-.25,1.25-.61,2.48-.89,3.72-.07.3.1.67,0,1-.19.56-.47,1.09-.75,1.71a18.89,18.89,0,0,0,2.83,1.64,4.08,4.08,0,0,1,1.85,1.72,22.28,22.28,0,0,1,3,7.33,20.21,20.21,0,0,1,.26,3.41,19.56,19.56,0,0,1-1.17,7.71,22.45,22.45,0,0,1-2.53,5,8.36,8.36,0,0,1-4,2.78l-2.48,1c.35.54.7,1.12,1.1,1.66,1.49,2,2.93,4.06,4.52,6s3.14,3.5,4.73,5.23c.33.37.71.68,1,1.05a2.36,2.36,0,0,1,.53,2.1,30.52,30.52,0,0,1-1.63,5.61c-.86,2.11-1.48,4.31-2.21,6.47a3.61,3.61,0,0,1-.17.46c-.44,1-.37,1.25.55,1.82s1.93,1.05,2.81,1.7c1.18.87,2.27,1.87,3.39,2.81a24.44,24.44,0,0,1,2.51,2.12,46.48,46.48,0,0,1,3.14,3.84c1.21,1.6,2.29,3.3,3.49,4.9a39.85,39.85,0,0,1,4.31,7.35,61.3,61.3,0,0,1,2.57,5.74c1,2.88,1.81,5.84,2.55,8.8a20,20,0,0,1,.14,3.39c.07.95.19,1.9.34,2.84a26.48,26.48,0,0,1,.35,7.38c-.23,1.9-.37,3.8-.6,5.7a15,15,0,0,1-.44,1.69,33.33,33.33,0,0,1-1,3.72c-.5,1.31-.36,2.72-.8,4-.7,2-1.37,4.09-2.18,6.08-.94,2.31-2,4.55-3,6.83-1.44,3.2-2.9,6.41-4.31,9.63-.38.87-.59,1.82-1,2.7s-.8,1.68-1.19,2.53-.79,1.88-1.19,2.81c-.59,1.38-1.22,2.73-1.76,4.12a2.29,2.29,0,0,0-.1,1.32c.44,1.85.95,3.69,1.44,5.54.13.51.28,1,.42,1.53.35,1.27.18,4.4-1.22,5.33a10,10,0,0,1-4.14,2.1c-2.12.31-3.36-.3-4.16-2.31-.18-.45-.35-.9-.57-1.46-.27.23-.48.43-.7.61a10.55,10.55,0,0,1-3.78,2.17,2.56,2.56,0,0,1-2.76-1.31,11.15,11.15,0,0,1-1.31-4.76c0-.36-.1-.73-.15-1.15h-.86c-1.94-.09-3.87-.16-5.8-.3a3.67,3.67,0,0,1-2.87-3.29c0-1.26.15-2.51.28-3.76a.74.74,0,0,0-.55-.89c-1-.37-1.93-.8-2.91-1.14a1.87,1.87,0,0,0-1,.06c-1.74.46-3.45,1-5.2,1.39a28.11,28.11,0,0,1-3.69.34c-2.14.15-4.27.3-6.41.42-1.52.08-3,.14-4.55.13-3.33,0-6.67-.05-10-.15a14.38,14.38,0,0,1-2.83-.45c-2.3-.51-4.59-1.06-6.88-1.62-1.17-.28-2.34-.62-3.51-.94a.58.58,0,0,0-.43.06c.32.18.65.35,1,.54,1.11.68,2.26,1.31,3.33,2.07a2.61,2.61,0,0,1,1,1.32,16.67,16.67,0,0,1,.6,3.49,2.12,2.12,0,0,1-2.81,2.18c-1.06-.24-2.14-.4-3.21-.59-.42,1.25-.82,2.34-1.14,3.45-.65,2.33-2.47,3.16-4.66,2.16a23,23,0,0,0-2.62-.88c-.84,1.67-1.58,3.44-3.62,3.83a7.38,7.38,0,0,1-5.09-.47c-1.12.95-2.14,1.87-3.22,2.7a3.41,3.41,0,0,1-3.26.54.7.7,0,0,0-.91.34,11.71,11.71,0,0,1-5.11,3.76,18.82,18.82,0,0,1-3.77,1.21c-1.69.32-4.46-.35-5.36-2.3s-2.11-3.85-3-5.86a34.27,34.27,0,0,1-1.27-4.65,20.24,20.24,0,0,0-2.83-6.88,4.33,4.33,0,0,1-.43-.87c-1.43.19-2.81.35-4.18.57-.62.1-1.22.34-1.84.45a24.36,24.36,0,0,1-3.38.49c-2,.08-4,0-6,0a30.19,30.19,0,0,1-8.09-1.05,19.69,19.69,0,0,1-7.42-3.36c-2.85-2.26-6.05-4-9.06-6-1.59-1-3.13-2.19-4.74-3.23-2.09-1.35-4.22-2.64-6.33-3.95-.18-.11-.37-.2-.5-.27l-3.07,6.9,5,4a45.27,45.27,0,0,1,3.62,3,49.59,49.59,0,0,1,3.63,4.16,12.15,12.15,0,0,1,1.65,2.58,8.89,8.89,0,0,1,.68,2.74,4.63,4.63,0,0,1-3,4.4c-.68.26-.93.49-1,1.27a9.75,9.75,0,0,1-1,4c-.56,1.14-1.21,1.73-2.45,1.62a15.66,15.66,0,0,1-1.65-.25ZM92.61,92.58c-1.57-.07-3.06-.2-4.55-.19-1.77,0-3.54.15-5.31.28-1.18.08-2.35.24-3.52.4a21.71,21.71,0,0,1-2.63.4,37.13,37.13,0,0,0-6.45,1.08c-.91.16-1.82.31-2.72.5s-1.9.42-2.84.67-1.86.59-2.8.87c-1.92.56-3.86,1-5.75,1.67-1.43.48-2.79,1.17-4.19,1.73-1.79.72-3.61,1.38-5.39,2.12-2.39,1-4.75,2-7.12,3.06A75,75,0,0,0,30.78,109c-.85.51-1.73,1-2.57,1.52s-1.83,1.38-2.82,1.94a21.23,21.23,0,0,0-4.81,3.71A24,24,0,0,0,18.44,119a40.85,40.85,0,0,0-5.38,11.07c-.25.73-.58,1.42-.83,2.14-.62,1.83-1.28,3.65-1.79,5.51a52.36,52.36,0,0,0-1.27,5.65c-.33,2-1.13,3.94-.83,6a1.08,1.08,0,0,1-.16.68,4.22,4.22,0,0,0-.41,2.49,1.94,1.94,0,0,1-.27,1.19,3.72,3.72,0,0,0-.93,2.27c-.19,1.05-.45,2.1-.6,3.16-.21,1.41-.29,2.83-.52,4.23a31.82,31.82,0,0,0-.76,7.15,4.44,4.44,0,0,1,0,.63c-.17,1.76-.43,3.52-.5,5.28-.08,2.38,0,4.76,0,7.14,0,.69-.13,1.39-.13,2.09,0,1.5.06,3,.08,4.5,0,.63-.06,1.26,0,1.88q.14,2,.36,4a8.93,8.93,0,0,0,.75,3.67c.84,1.48,1.62,3,2.52,4.43a23.56,23.56,0,0,0,1.76,2.25c1.81-.61,3.4-1.21,5-1.69A10.81,10.81,0,0,1,17,204.4a1.57,1.57,0,0,1,1.62,1.19,1.64,1.64,0,0,1-.6,1.94,6.32,6.32,0,0,1-1.46.63c-1.53.48-3.09.85-4.58,1.43-1.12.44-2.13,1.16-3.22,1.7-2.67,1.32-3.92,3.67-4.69,6.38a21.16,21.16,0,0,0-.39,5.5A16.57,16.57,0,0,0,5.32,230a30.86,30.86,0,0,0,3.83,6c.93,1.28,1.78,2.63,2.77,3.87,1.75,2.19,3.51,4.36,5.39,6.44,1.52,1.7,3.17,3.29,4.85,4.84,1.22,1.12,2.57,2.08,3.85,3.12.76.62,1.5,1.26,2.24,1.9a53.05,53.05,0,0,1,4.24,3.64,60.07,60.07,0,0,0,7.32,6.3c1.11.85,2.32,1.57,3.4,2.45a44.63,44.63,0,0,0,6.49,4.1c1.4.78,2.84,1.52,4.18,2.4a23.75,23.75,0,0,0,5.83,3c.51.16,1,.4,1.5.6a24.49,24.49,0,0,1-.42-2.76c0-1.09,1-2.11,1.9-1.86a10.18,10.18,0,0,1,2.3,1c.82.46,1.56,1.06,2.5,1.71a6.71,6.71,0,0,0,.76-2.35,2.13,2.13,0,0,1,2.61-2.48c1.16.23,2.31.49,3.59.76a23.94,23.94,0,0,0,.16-3.14,2.16,2.16,0,0,1,1-2.28c.93-.59,1.88-1.17,2.84-1.69.35-.19.32-.35.23-.66a11.94,11.94,0,0,0-2.78-4.32,44.7,44.7,0,0,0-7.28-6.45,14.65,14.65,0,0,0-3.43-2.26,2.25,2.25,0,0,1-1.43-3.32c.62-1.41,1.28-2.8,1.88-4.21.54-1.24,1-2.49,1.51-3.75.34-.91.58-1.86.88-2.78.39-1.17.88-2.32,1.15-3.52.45-2.05.79-4.12,1.11-6.19.25-1.59.48-3.18.58-4.78a25,25,0,0,0-.24-2.71c-.12-2.47-.12-4.95-.32-7.41a28.13,28.13,0,0,0-.82-5.09c-.68-2.57-1.55-5.09-2.39-7.62A15.64,15.64,0,0,0,66,197.1a1.72,1.72,0,0,1,.27-1.91,1.92,1.92,0,0,1,1.79-.77,1.53,1.53,0,0,1,1.41,1c.4,1.13.73,2.28,1.08,3.42.12.38.2.77.32,1.14q1.23,3.79,2.45,7.58a3.22,3.22,0,0,1,.11.62c.26,1.71.55,3.4.76,5.11a28.56,28.56,0,0,1,.19,3.06c0,1-.05,2,0,3s.13,2,.2,3.07c.27,3.38-.56,6.64-1.09,9.92-.29,1.81-.88,3.58-1.3,5.37a.78.78,0,0,0,.24.65c.35.27.78.42,1.15.66,1.59,1,3.17,2,4.76,3,1.44.91,2.92,1.76,4.34,2.7a55.24,55.24,0,0,0,5.62,3.66,29.61,29.61,0,0,1,3.44,2.27,24.35,24.35,0,0,0,2.6,1.87,23,23,0,0,0,7.17,2.68,36.85,36.85,0,0,0,4,.57c2.52.09,5,0,7.55,0a4.79,4.79,0,0,0,.84-.09l6.51-1.24-2.4-5.71c-1-2.34-1.93-4.69-3-7s-1.9-4.47-3-6.61c-1.6-3-3.41-5.9-5-8.88a4.5,4.5,0,0,1-.45-2.06,1.79,1.79,0,0,1,1.47-1.65,1.82,1.82,0,0,1,1.79,1c.52.87,1,1.75,1.57,2.62.8,1.31,1.65,2.6,2.4,3.94s1.65,3,2.34,4.54c1.72,3.87,3.36,7.78,5,11.67.75,1.75,1.46,3.52,2.26,5.25.37.8.92,1.51,1.34,2.3s.83,1.93,1.37,2.82a20.73,20.73,0,0,1,2.48,5.15c.32,1.14.64,2.28.95,3.43a29.91,29.91,0,0,0,1.07,3.9c.71,1.69,1.65,3.28,2.53,4.9a1.4,1.4,0,0,0,1.9.78c.91-.26,1.81-.59,2.69-.94a6.09,6.09,0,0,0,4.12-4.3,1.88,1.88,0,0,1,2.78-1.28,11.73,11.73,0,0,1,1.26,1c.17.12.54.26.61.18a32.08,32.08,0,0,0,2.67-2.93,1.92,1.92,0,0,1,2.46-.78,9.38,9.38,0,0,0,1.2.57,18.26,18.26,0,0,0,2.41.55.74.74,0,0,0,.63-.3,13.61,13.61,0,0,0,1.18-2.43,2.06,2.06,0,0,1,2.75-1.63c1.38.38,2.73.85,4.23,1.33a28.07,28.07,0,0,0,.9-3.05c.35-1.94,1.06-2.61,3.06-2.61h1.78l.07-.2a18,18,0,0,0-2.08-1.2,8.84,8.84,0,0,1-3.17-2.37c-1-1.15-2-2.32-3-3.46a61.35,61.35,0,0,0-5.58-6.06c-2.39-2-4.58-4.26-6.87-6.39a1.87,1.87,0,0,1-.1-2.84,1.83,1.83,0,0,1,2.73.12,10.14,10.14,0,0,0,1.94,1.83c2.14,2,4.4,3.89,6.52,5.92a42.38,42.38,0,0,1,3.17,3.64,1.71,1.71,0,0,0,1.46.78,7.5,7.5,0,0,1,1.93.28c2.83.7,5.64,1.45,8.46,2.17,1.7.43,3.4.85,5.1,1.22a21.69,21.69,0,0,0,3.1.47c.9.06,1.83-.14,2.73-.06a43.14,43.14,0,0,0,7.19.14c3.12-.24,6.25-.28,9.37-.47a33.79,33.79,0,0,0,4.71-.54c1.51-.29,3-.85,4.44-1.24,1-.26,1-.24,1-1.22a2.08,2.08,0,0,1,0-.56c.43-1.14-.25-1.66-1.11-2.14-2.44-1.38-3.39-3.62-3.54-6.3a2.15,2.15,0,0,1,1.17-2.08c1.68-1,3.37-1.91,5.11-2.76a6.76,6.76,0,0,0,3.59-3.54c.38-1,.71-2,1.13-2.93a32.67,32.67,0,0,0,2.35-7,44.07,44.07,0,0,0,1-5.48,2.31,2.31,0,0,1,2.31-2.11,1.88,1.88,0,0,1,1.58,2.37c-.15,1.15-.23,2.32-.42,3.47-.11.65-.38,1.29-.54,1.94-.37,1.54-.63,3.12-1.12,4.62-.58,1.77-1.41,3.45-2,5.2a11.46,11.46,0,0,1-5.63,6.68c-1.5.78-3,1.58-4.52,2.4.22.55.27,1.13.58,1.37a14.38,14.38,0,0,0,3,2c1.5.64,2.08,1.79,1.37,3.28a3.94,3.94,0,0,0-.38,1c-.11.81-.14,1.62-.21,2.4.43.27.82.55,1.25.78a14,14,0,0,0,2.05,1,2,2,0,0,1,1.38,2.63c-.37,1.31-.67,2.64-1,4l1.44.15a11.62,11.62,0,0,0,4.51-.1c1.71-.46,2.9-.07,3.34,1.77.36,1.47.49,3,.73,4.47,0,.24.09.47.14.76.39-.31.69-.57,1-.81.83-.64,1.67-1.26,2.49-1.91a2.53,2.53,0,0,1,2.48-.78,2.27,2.27,0,0,1,1.54,2,7,7,0,0,0,1.42,2.87c.34-.2.64-.37.93-.56a1.36,1.36,0,0,0,.7-1.69c-.72-2.8-1.33-5.63-2-8.44a3.2,3.2,0,0,1,.2-2.11c1-2.28,1.92-4.59,2.87-6.89.11-.25.24-.5.37-.75.56-1.12,1.19-2.21,1.68-3.36.68-1.58,1.22-3.23,1.89-4.81.84-2,1.77-3.91,2.64-5.87s1.65-3.75,2.46-5.64c.66-1.51,1.36-3,1.94-4.57a25.64,25.64,0,0,0,1.27-5c.27-1.71.92-3.36,1.27-5.07a46.59,46.59,0,0,0,1-6.06,47.46,47.46,0,0,0,0-6.08c-.1-2-.3-3.94-.52-5.91-.15-1.22-.38-2.43-.65-3.63-.19-.84-.5-1.64-.75-2.46-.53-1.74-1-3.51-1.6-5.2s-1.44-3.18-2.22-4.74a27.81,27.81,0,0,0-2.58-4.71c-1.91-2.43-3.66-5-5.38-7.5a10.56,10.56,0,0,0-1.8-2c-1.39-1.24-2.91-2.34-4.28-3.6a15.72,15.72,0,0,0-4.12-2.73c-.41,1-.81,1.95-1.23,2.91-1.08,2.42-2.14,4.86-3.26,7.26-1,2.12-2,4.19-3,6.29q-1.12,2.34-2.2,4.69c-.68,1.5-1.3,3-2,4.51s-1.55,2.87-2.38,4.27-1.64,2.78-2.59,4.08c-1.6,2.2-3.31,4.33-5,6.48a15.71,15.71,0,0,1-3.56,3.44c-.81.55-1.66,1-2.46,1.61-1.82,1.3-3.64,2.6-5.4,4a25.72,25.72,0,0,1-9.73,4.59,9,9,0,0,0-1.29.32c-1.34.59-2.67,1.2-4,1.85a29.6,29.6,0,0,1-8.24,2.59c-1.58.27-3.19.37-4.78.58-.76.11-1.51.29-2.27.42a34,34,0,0,0-3.79.63,21.73,21.73,0,0,1-6.34.89c-2,0-4-.25-6-.41-1.3-.11-2.6-.25-3.89-.42s-2.44-.39-3.66-.54a39.83,39.83,0,0,1-7.33-1.47c-2.61-.85-5.19-1.86-7.85-2.54a40.54,40.54,0,0,1-9.67-3.56c-3.13-1.75-6.26-3.49-9.39-5.26a53.94,53.94,0,0,1-7.1-4.71c-1.85-1.45-3.77-2.82-5.62-4.29a22.21,22.21,0,0,1-3-2.72c-2.1-2.4-4.13-4.87-6.12-7.36-1.21-1.5-2.35-3.07-3.43-4.68-.8-1.19-1.35-2.57-2.22-3.71A42.94,42.94,0,0,1,80.06,171a1.85,1.85,0,0,1,1.64-2.62c1-.08,1.71.51,2.25,1.67.64,1.37,1.29,2.75,2.06,4,1.36,2.3,2.77,4.59,4.26,6.81,1.1,1.62,2.34,3.14,3.56,4.66,1,1.29,2.23,2.47,3.2,3.8a22.36,22.36,0,0,0,4,3.88c1.2,1,2.49,1.89,3.72,2.86a57.73,57.73,0,0,0,7.87,5.45c1.46.82,2.93,1.63,4.39,2.46,2.09,1.18,4.12,2.51,6.28,3.54a35,35,0,0,0,7.11,2.48c2.51.6,4.94,1.52,7.41,2.29,1.31.41,2.6.87,3.93,1.19s2.53.43,3.79.62c1.48.22,2.95.41,4.43.61,1.78.23,3.55.48,5.34.66a22.05,22.05,0,0,0,9.26-.64,27.91,27.91,0,0,1,3.78-.66c1.84-.27,3.7-.47,5.53-.78a35.89,35.89,0,0,0,5.47-1.14,54.57,54.57,0,0,0,5.47-2.47,14.37,14.37,0,0,1,1.73-.72c1.21-.37,2.47-.63,3.67-1a21.21,21.21,0,0,0,5.49-2.58c2.43-1.69,4.72-3.6,7.22-5.17a26.31,26.31,0,0,0,6.87-6.51,67.19,67.19,0,0,0,4.8-7c1.6-2.73,3-5.6,4.38-8.44,1.24-2.5,2.4-5,3.61-7.57.56-1.16,1.18-2.28,1.7-3.45,1.18-2.62,2.32-5.24,3.46-7.87.67-1.54,1.35-3.08,1.92-4.65,1.16-3.23,2.28-6.46,3.36-9.72.47-1.41.81-2.86,1.15-4.31a1.05,1.05,0,0,0-.27-.82c-.63-.66-1.4-1.19-2-1.89-1.83-2.21-3.59-4.48-5.37-6.73-1-1.27-1.73-2.78-3.06-3.79a1.17,1.17,0,0,1-.29-.48c-.24-.57-.46-1.16-.64-1.63a24,24,0,0,0-3-.35c-2.54,0-4.6-1.24-6.77-2.25a1.62,1.62,0,0,1-.38-.32c-1-1-2-1.89-2.9-2.93a17.4,17.4,0,0,1-2-2.84c-.92-1.64-.6-3.52-.72-5.29a15.38,15.38,0,0,1,.69-6.86c.22-.54.41-1.09.64-1.63A36.85,36.85,0,0,1,210,98.65a19.23,19.23,0,0,1,4.19-5.48,8.09,8.09,0,0,1,7.74-1.86c1,.27,2,.63,3.17,1,.34-1.36.68-2.66,1-4A2.26,2.26,0,0,0,226,87a24.58,24.58,0,0,0-2.38-4.72,31.71,31.71,0,0,1-3.23-5.63,1.28,1.28,0,0,0-.91-.55c-1.14-.11-2.29-.14-3.43-.15a2.28,2.28,0,0,0-1.06.23c-1.63.8-3.24,1.66-4.87,2.46-.83.42-1.75.67-2.56,1.12-2.45,1.4-4.87,2.86-7.3,4.29-.36.21-.71.43-1.06.67-1.54,1.06-3,2.2-4.63,3.15-1.23.74-2.63,1.18-3.9,1.86a19,19,0,0,1-9.07,1.94,25.56,25.56,0,0,1-5.16-.36,34.8,34.8,0,0,0-4.81-.34,28.5,28.5,0,0,1-3.06-.27,37.07,37.07,0,0,0-7.35-.86,7.79,7.79,0,0,1-1.52-.18c-1.76-.35-3.51-.77-5.27-1.09-1.28-.23-2.62-.19-3.87-.53a26.93,26.93,0,0,1-4.89-1.83,16.6,16.6,0,0,1-3.47-2.44,20.15,20.15,0,0,1-3.41-3.5,20.81,20.81,0,0,0-5-5.56c-.34-.23-.63-.55-1-.81-1.19-.94-2.37-1.88-3.58-2.8a2.71,2.71,0,0,0-1.09-.59,18.24,18.24,0,0,0-3.12-.32,18.81,18.81,0,0,0-6.53,1.39,10.86,10.86,0,0,0-1.54.82,31.69,31.69,0,0,0-3.21,2c-1.37,1-2.62,2.25-3.93,3.37-1.61,1.38-3.28,2.7-4.85,4.13-1.07,1-1.95,2.15-3,3.12a23.82,23.82,0,0,0-3.79,5,25.92,25.92,0,0,0-2,4q-1.47,3.56-2.75,7.18a40.9,40.9,0,0,0-1.82,9.88c-.17,1.8-.19,3.63-.3,5.44a1.71,1.71,0,0,1-1.49,1.69,1.81,1.81,0,0,1-1.78-1.4,7.5,7.5,0,0,1-.22-1.94c.14-2.34.32-4.69.55-7a30.79,30.79,0,0,1,1.3-7.13c.59-1.72,1.26-3.41,1.88-5.11C91.87,94.61,92.24,93.61,92.61,92.58Zm140,18.5c-1.25,0-2.35,0-3.44,0-2.13.11-4.27.29-6.4.4-1.52.08-3,.08-4.55.16-.86,0-1.71.25-2.56.24s-1.7,0-1.88-1a18.23,18.23,0,0,1-.19-3.06c0-.76,0-1.52,0-2.28s.31-1.61,1-1.63c1.11,0,2.23.11,3.35.14,1.42,0,2.84,0,4.26,0,.41,0,.83,0,1.24,0a17.13,17.13,0,0,0,2.85.15,13.43,13.43,0,0,1,4.56.1,9.2,9.2,0,0,0,1.5.12c-.35-1-.63-2-1-2.93-.73-1.94-2.42-2.94-4-4a4.2,4.2,0,0,0-1-.39c-1-.28-1.94-.46-2.85-.82-.49-.2-.81-.78-1.29-1a4.5,4.5,0,0,0-4-.29,7.87,7.87,0,0,0-3.2,3,26.24,26.24,0,0,0-3.19,6c-.56,1.74-1.31,3.46-1.17,5.36.1,1.23.28,2.46.26,3.69a5.23,5.23,0,0,0,1.34,3.61,12.36,12.36,0,0,0,4.76,3.79,9.7,9.7,0,0,0,5.58.8,17.76,17.76,0,0,0,5.07-1.52,5.14,5.14,0,0,0,2.88-2.6c.37-1,1-1.87,1.3-2.85A33,33,0,0,0,232.58,111.08Z"/><path d="M172.53,199.25c-1.48.3-2.95.67-4.44.89-1.34.19-2.72.22-4.08.32a.61.61,0,0,0-.14,0c-2.13.24-4.09-.47-6.08-1.09-2.29-.71-4.62-1.32-6.93-2a32.51,32.51,0,0,1-6.42-2.75q-2.94-1.62-5.89-3.23a26.25,26.25,0,0,1-5.44-3.79,52.34,52.34,0,0,0-4.64-4,69.31,69.31,0,0,1-7.91-7.11c-1.65-1.66-3.37-3.24-4.93-5a47.47,47.47,0,0,1-3.42-4.43c-1.28-1.8-2.51-3.65-3.69-5.53a32.25,32.25,0,0,1-3.72-7.65c-.87-2.78-1.78-5.54-2.67-8.31a2.14,2.14,0,0,1,.77-2.73,2.49,2.49,0,0,1,2.89.52,8.49,8.49,0,0,0,3.45,1.9c1.32.45,2.59,1,3.92,1.45,1.17.37,2.38.64,3.58.91,2.94.64,5.91,1.16,8.82,1.92a28.83,28.83,0,0,0,6.91.94,20,20,0,0,1,3.22.57c1.93.36,3.84.75,5.78,1.06,2.29.36,4.59.79,6.91,1s4.71.05,7.06.05c1.64,0,3.29.08,4.92,0a46.66,46.66,0,0,0,5.26-.66c2.36-.43,4.69-1,7-1.51.81-.17,1.69-.08,2.49-.27,1.18-.27,2.32-.7,3.48-1.05l6.08-1.88c2-.62,4-1.33,6-1.85,1.78-.46,3.61-.69,5.41-1.05.77-.16,1.53-.4,2.3-.56,1.76-.34,3.52-.66,5.29-1,.85-.15,1.69-.34,2.55-.42,1.71-.17,3.45-.2,5.15-.45s3.56-.73,5.33-1.12c2.73-.6,5.46-1.19,8.18-1.84a24.15,24.15,0,0,0,3.05-1,2.4,2.4,0,0,1,2.59.42,2.13,2.13,0,0,1-.08,2.47c-.35.67-.49,1.45-.8,2.14-.63,1.43-1.31,2.83-2,4.23-.92,1.92-1.78,3.86-2.77,5.73s-2.14,3.83-3.29,5.69c-.88,1.42-1.87,2.79-2.84,4.16s-2.14,2.93-3.18,4.42c-.68,1-1.27,2-1.94,3-1.77,2.59-3.33,5.32-5.68,7.5a64.13,64.13,0,0,0-4.6,5.26c-2.24,2.59-4.67,4.91-8,6.08a8.69,8.69,0,0,0-1.71,1c-1.61,1.07-3.25,2.09-4.8,3.23-2.33,1.71-5.11,2.33-7.73,3.32-1,.37-2,.77-2.91,1.22a14.91,14.91,0,0,1-5.7,1.18Zm-65.15-50.62c.64,2.06,1.17,3.92,1.82,5.74a10.63,10.63,0,0,0,1.17,3c.76,1,1.33,2.22,2,3.3.42.63,1,1.15,1.44,1.79.72,1.12,1.25,2.4,2.08,3.45a67.77,67.77,0,0,0,4.65,5.37c2.12,2.18,4.35,4.25,6.58,6.31,1.29,1.19,2.66,2.27,4,3.39s3,2.32,4.34,3.62a23.39,23.39,0,0,0,5,3.48c1.64.89,3.36,1.66,4.92,2.66a28.55,28.55,0,0,0,6.56,2.93c2.26.74,4.57,1.36,6.86,2a17.25,17.25,0,0,0,3.15.89,15.73,15.73,0,0,0,6.18-.3,28.54,28.54,0,0,1,4.27-.64,29.5,29.5,0,0,0,3.55-.56c1.22-.35,2.37-1,3.57-1.42,2.26-.86,4.64-1.44,6.69-2.77,1.74-1.13,3.45-2.3,5.18-3.43a13.75,13.75,0,0,1,2.21-1.3,13.86,13.86,0,0,0,5.2-3.48c1.22-1.34,2.33-2.79,3.52-4.16.66-.75,1.45-1.39,2.09-2.15,1.37-1.64,3-3,4.07-5a51.12,51.12,0,0,1,3.23-4.81c.89-1.29,1.79-2.57,2.67-3.86,1.16-1.7,2.33-3.38,3.45-5.11s2.4-3.7,3.45-5.64c1.26-2.34,2.36-4.76,3.53-7.15l.86-1.74-1.67.39c-2.45.56-4.93,1-7.35,1.69a22.39,22.39,0,0,1-6.6,1,16.27,16.27,0,0,0-2.5.24c-1.38.18-2.77.36-4.14.59-1.15.2-2.28.46-3.41.72s-2.1.61-3.18.8a38.66,38.66,0,0,0-6.86,1.55c-1.75.63-3.56,1.1-5.35,1.64-1.4.43-2.8.87-4.21,1.27-1.81.51-3.62,1.06-5.46,1.45-2.2.47-4.48.64-6.65,1.23a32.39,32.39,0,0,1-8.41,1.18c-3.11,0-6.22.16-9.32.1a52.14,52.14,0,0,1-5.27-.6c-1.14-.15-2.26-.32-3.39-.5-2.07-.31-4.14-.62-6.2-.95a34,34,0,0,0-4.07-.7,38.09,38.09,0,0,1-7-1c-2.9-.68-5.81-1.34-8.73-1.92a20.77,20.77,0,0,1-5.59-1.7A20.26,20.26,0,0,0,107.38,148.63Z"/><path d="M133.32,113.14a21.85,21.85,0,0,1-5.22,12.64,13.17,13.17,0,0,1-6.4,3.84,20.33,20.33,0,0,1-6.61,1,19.86,19.86,0,0,1-7.45-1.7,23.36,23.36,0,0,1-4.93-2.78,17.86,17.86,0,0,1-5.2-5.7,5,5,0,0,1-.37-.9,37.53,37.53,0,0,1-1.58-5.28,12.42,12.42,0,0,1,1-7,25.3,25.3,0,0,1,4.26-6.11,22.21,22.21,0,0,1,5-4.17,14.87,14.87,0,0,1,5.1-2c1.78-.32,3.62-.42,5.36-.91a21.31,21.31,0,0,1,4.61-.63,7.36,7.36,0,0,1,4,1.13,15.59,15.59,0,0,1,6.68,8.26,9.75,9.75,0,0,0,.61,1.26,8.56,8.56,0,0,1,.94,4C133.1,109.72,133.22,111.45,133.32,113.14Zm-17.69-15-.07-.34c-1.29.24-2.59.52-3.89.72a13.21,13.21,0,0,0-6.7,3.6,19.39,19.39,0,0,0-4.57,5.71,10.07,10.07,0,0,0-1.27,4.32c-.07,1.9.73,3.59,1.25,5.34.77,2.54,2.74,4.13,4.69,5.69a22.42,22.42,0,0,0,2.9,1.69,15.45,15.45,0,0,0,7.2,2,15.88,15.88,0,0,0,6-1,10.47,10.47,0,0,0,5-3.74,18.34,18.34,0,0,0,2.79-5.68,12.12,12.12,0,0,0,.59-3.3c0-1.76-.23-3.53-.39-5.29a4.63,4.63,0,0,0-.26-1.5,37.42,37.42,0,0,0-2.32-4.76A8.87,8.87,0,0,0,123,97.9a5.53,5.53,0,0,0-4.36-.34A22.91,22.91,0,0,1,115.63,98.15Z"/><path d="M105.26,107c.95.13,1.89.31,2.84.35s1.72-.08,2.58-.1a11.4,11.4,0,0,1,2.41,0c1.61.32,3.15-.14,4.73-.21.9,0,1.8-.18,2.7-.23,1.21-.07,2.43-.12,3.64-.14a1.46,1.46,0,0,1,1.54,1.46c.09,1.49.18,3,.28,4.46.07,1.1-.56,1.56-1.66,1.45a17.49,17.49,0,0,0-5.15.21c-2,.4-4,.68-6,1a64.67,64.67,0,0,1-9.12.59c-2.06,0-2.28-1.17-2.23-2.8,0-1.11,0-2.22,0-3.34a2.18,2.18,0,0,1,.15-.85,4,4,0,0,1,.75-1.24,2.06,2.06,0,0,1,1.09-.49,8.15,8.15,0,0,1,1.4,0Z"/><path d="M368.81,36.2a15.45,15.45,0,0,0-6.07.14L361,36.8c-3.43.91-6.63,4-9.61,9.37l-.18,0a21.82,21.82,0,0,0-7.29-8.6,15.58,15.58,0,0,0-11.25-1.1q-8,2.13-10.35,9.58a18.85,18.85,0,0,0-.53,5.33,21.71,21.71,0,0,0,.65,3.91q3.42,12.95,28.8,35.28,15-13.23,23.87-25,5.28-8.3,5.87-14.29a13.29,13.29,0,0,0-.46-5.2Q378.37,38.15,368.81,36.2Z" fill="#e6007b"/></svg>